<?xml version="1.0" encoding="UTF-8" standalone="no"?>
<!-- Created with Inkscape (http://www.inkscape.org/) -->

<svg
   xmlns:dc="http://purl.org/dc/elements/1.1/"
   xmlns:cc="http://creativecommons.org/ns#"
   xmlns:rdf="http://www.w3.org/1999/02/22-rdf-syntax-ns#"
   xmlns:svg="http://www.w3.org/2000/svg"
   xmlns="http://www.w3.org/2000/svg"
   xmlns:sodipodi="http://sodipodi.sourceforge.net/DTD/sodipodi-0.dtd"
   xmlns:inkscape="http://www.inkscape.org/namespaces/inkscape"
   width="211.66667mm"
   height="52.916672mm"
   viewBox="0 0 211.66667 52.916672"
   version="1.1"
   id="svg862"
   inkscape:version="0.92.4 (f8dce91, 2019-08-02)"
   sodipodi:docname="badenlab.svg">
  <defs
     id="defs856" />
  <sodipodi:namedview
     id="base"
     pagecolor="#ffffff"
     bordercolor="#666666"
     borderopacity="1.0"
     inkscape:pageopacity="0.0"
     inkscape:pageshadow="2"
     inkscape:zoom="0.24748737"
     inkscape:cx="297.36349"
     inkscape:cy="319.55135"
     inkscape:document-units="mm"
     inkscape:current-layer="layer1"
     showgrid="false"
     fit-margin-top="0"
     fit-margin-left="0"
     fit-margin-right="0"
     fit-margin-bottom="0"
     inkscape:window-width="782"
     inkscape:window-height="414"
     inkscape:window-x="363"
     inkscape:window-y="395"
     inkscape:window-maximized="0" />
  <metadata
     id="metadata859">
    <rdf:RDF>
      <cc:Work
         rdf:about="">
        <dc:format>image/svg+xml</dc:format>
        <dc:type
           rdf:resource="http://purl.org/dc/dcmitype/StillImage" />
        <dc:title></dc:title>
      </cc:Work>
    </rdf:RDF>
  </metadata>
  <g
     inkscape:label="Layer 1"
     inkscape:groupmode="layer"
     id="layer1"
     transform="translate(2.6458399,-182.09523)">
    <g
       id="g1450"
       transform="translate(-5.2916667,77.863095)">
      <path
         style="fill:#fcfcfc;stroke-width:0.26458335"
         d="M 2.6458268,130.69047 V 104.23214 H 108.47916 214.3125 v 26.45833 26.45834 H 108.47916 2.6458268 Z"
         id="path1460"
         inkscape:connector-curvature="0" />
      <path
         style="fill:#007ffe;stroke-width:0.26458335"
         d="m 170.98698,149.30066 c -0.72603,-0.29295 -0.26427,-0.57557 0.86951,-0.53217 1.23425,0.0472 1.69772,-0.27544 1.70612,-1.18785 0.003,-0.37591 -0.10772,-0.39785 -0.76299,-0.1505 -1.63204,0.61602 -2.83175,-1.1903 -2.04352,-3.0768 0.4399,-1.05282 1.49729,-1.51395 2.30906,-1.00699 0.31031,0.19379 0.53387,0.2058 0.63981,0.0344 0.41099,-0.665 0.65544,0.23704 0.65544,2.41863 0,2.17165 -0.0563,2.43393 -0.64943,3.02709 -0.62153,0.62153 -1.83525,0.83282 -2.724,0.4742 z m 2.06791,-2.47991 c 0.72944,-0.39039 0.73074,-2.50072 0.002,-2.89085 -1.3741,-0.7354 -2.54432,1.4533 -1.43337,2.68089 0.50402,0.55693 0.72321,0.58908 1.4316,0.20996 z m 2.09927,2.39056 c 0,-0.14552 0.17554,-0.26459 0.39008,-0.26459 0.21455,0 0.55791,-0.32742 0.76302,-0.7276 0.34086,-0.66501 0.30372,-0.90421 -0.43177,-2.78052 -0.4426,-1.12911 -0.73435,-2.12329 -0.64834,-2.20931 0.32374,-0.32374 0.7139,0.22519 1.15528,1.62541 0.25073,0.7954 0.53724,1.44619 0.63668,1.44619 0.0994,0 0.44129,-0.71437 0.75965,-1.5875 0.53027,-1.45433 1.07957,-2.08629 1.07957,-1.24204 0,0.56829 -1.86846,5.0418 -2.31453,5.54152 -0.44461,0.49808 -1.38964,0.63302 -1.38964,0.19844 z m -84.171249,-2.02482 c -0.422804,-0.50919 -0.505097,-3.6266 -0.09854,-3.73291 0.147648,-0.0386 0.298236,0.60453 0.340728,1.45521 0.04997,1.00051 0.218204,1.632 0.489516,1.83752 0.227354,0.17222 0.334891,0.44011 0.238969,0.59531 -0.246772,0.39929 -0.550635,0.35073 -0.970673,-0.15513 z m 1.79764,0.26093 c -0.395999,-0.396 -0.128304,-0.61558 0.673243,-0.55222 1.233305,0.0975 1.282359,-0.64147 0.08931,-1.34539 -1.678707,-0.99046 -0.879303,-2.79835 1.025922,-2.32017 0.974762,0.24465 0.842621,0.73961 -0.171069,0.64078 -1.236366,-0.12054 -1.284943,0.62261 -0.08691,1.32947 1.558631,0.91961 1.112192,2.42392 -0.719357,2.42392 -0.349115,0 -0.714132,-0.0794 -0.811144,-0.17639 z m 3.910431,-0.19815 c -0.416327,-0.30442 -0.514945,-0.69731 -0.514945,-2.05152 0,-2.10932 0.502404,-2.34916 0.605311,-0.28896 0.05205,1.04201 0.215,1.62936 0.514945,1.85611 0.292537,0.22115 0.350607,0.41992 0.17422,0.59631 -0.17639,0.17639 -0.436232,0.13907 -0.779531,-0.11194 z m 2.16657,-0.17383 c -0.56246,-0.44243 -0.69714,-0.77097 -0.69714,-1.70059 0,-0.92962 0.13468,-1.25816 0.69714,-1.70059 0.383426,-0.3016 0.962681,-0.54837 1.287238,-0.54837 0.32455,0 0.90381,0.24677 1.28723,0.54837 0.56246,0.44243 0.69714,0.77097 0.69714,1.70059 0,0.92962 -0.13468,1.25816 -0.69714,1.70059 -0.38342,0.3016 -0.96268,0.54837 -1.28723,0.54837 -0.324557,0 -0.903812,-0.24677 -1.287238,-0.54837 z m 1.966088,-0.25469 c 0.7488,-0.40075 0.72901,-2.50165 -0.0274,-2.90646 -1.195576,-0.63985 -2.40655,0.76966 -1.871134,2.17791 0.360566,0.94837 1.017063,1.20029 1.898524,0.72855 z m 9.56052,0.48556 c -0.40583,-0.40583 -0.4124,-1.70929 -0.01,-1.95807 0.1692,-0.10457 0.6745,-0.26516 1.12288,-0.35686 0.88124,-0.18023 1.23371,-0.90654 0.56456,-1.16332 -0.22669,-0.087 -0.70879,-0.0454 -1.07133,0.0925 -0.50202,0.19087 -0.65916,0.16492 -0.65916,-0.10885 0,-0.19771 0.26789,-0.43126 0.59532,-0.519 1.77352,-0.47529 2.3151,0.0853 2.3151,2.39653 0,1.6012 -0.0399,1.72132 -0.5289,1.59344 -0.2909,-0.0761 -0.59558,-0.0304 -0.67708,0.10143 -0.21337,0.34525 -1.27867,0.2951 -1.65152,-0.0778 z m 1.55198,-0.48556 c 0.75199,-0.40246 0.67064,-1.31361 -0.11729,-1.31361 -0.86922,0 -1.39968,0.65897 -0.95844,1.19063 0.39146,0.47167 0.41843,0.47476 1.07573,0.12298 z m 7.68171,0.30008 c -0.80628,-0.80628 -0.75886,-2.49257 0.0941,-3.34551 0.70498,-0.70498 1.21908,-0.80086 2.01379,-0.37554 0.47164,0.25241 0.51178,0.17806 0.51178,-0.94809 0,-0.85973 0.098,-1.18944 0.33072,-1.11223 0.23205,0.077 0.35305,0.9908 0.40552,3.06251 0.074,2.92163 0.0684,2.95269 -0.52916,2.94663 -0.33218,-0.003 -0.97913,0.069 -1.43767,0.16073 -0.64118,0.12832 -0.96195,0.0386 -1.38906,-0.3885 z m 2.09048,-0.55536 c 0.71906,-0.71905 0.68948,-1.97437 -0.0589,-2.49854 -0.73239,-0.51298 -0.86093,-0.51261 -1.37744,0.004 -0.58095,0.58096 -0.54973,2.39033 0.0473,2.73804 0.65095,0.37914 0.79107,0.35459 1.38906,-0.24339 z m 10.18937,0.43845 c -0.29741,-0.45389 -0.4033,-1.10462 -0.3476,-2.13613 0.11347,-2.10122 0.59312,-1.97819 0.68751,0.17633 0.0612,1.39662 0.16692,1.78594 0.48506,1.78594 0.22376,0 0.35971,0.14138 0.30211,0.31419 -0.19342,0.58025 -0.69594,0.51768 -1.12708,-0.14033 z m 1.89327,0.4435 c -0.396,-0.396 -0.12831,-0.61558 0.67324,-0.55222 1.23331,0.0975 1.28236,-0.64147 0.0893,-1.34539 -1.09596,-0.64663 -1.28672,-1.69001 -0.39613,-2.16664 0.68533,-0.36677 1.62724,-0.23858 1.78606,0.24308 0.0908,0.27545 -0.0461,0.32603 -0.54431,0.201 -0.42825,-0.10749 -0.77779,-0.032 -0.97999,0.21164 -0.25663,0.30923 -0.11654,0.50357 0.76348,1.0591 1.20854,0.76291 1.46224,1.77228 0.56601,2.25193 -0.57708,0.30884 -1.69086,0.36431 -1.95767,0.0975 z m 3.94355,-0.23939 c -0.47537,-0.47537 -0.5978,-3.67383 -0.15119,-3.94985 0.16221,-0.10025 0.26598,0.32878 0.26819,1.10887 0.006,2.28173 0.49914,3.04355 1.5905,2.45947 0.3899,-0.20867 0.51446,-0.62316 0.57615,-1.91728 0.10992,-2.30609 0.59112,-1.95692 0.68575,0.4976 0.0741,1.9219 0.0516,2.01336 -0.46275,1.87886 -0.29736,-0.0778 -0.60732,-0.0335 -0.68882,0.0984 -0.23812,0.38529 -1.3657,0.2761 -1.81783,-0.17603 z m 4.39964,0.0983 c -0.40583,-0.40583 -0.4124,-1.70929 -0.01,-1.95807 0.1692,-0.10457 0.6745,-0.26516 1.12288,-0.35686 0.88124,-0.18023 1.23371,-0.90654 0.56456,-1.16332 -0.22669,-0.087 -0.70879,-0.0454 -1.07133,0.0925 -0.50202,0.19087 -0.65916,0.16492 -0.65916,-0.10885 0,-0.19771 0.26789,-0.43126 0.59532,-0.519 1.77352,-0.47529 2.3151,0.0853 2.3151,2.39653 0,1.6012 -0.0399,1.72132 -0.5289,1.59344 -0.2909,-0.0761 -0.59558,-0.0304 -0.67708,0.10143 -0.21337,0.34525 -1.27867,0.2951 -1.65152,-0.0778 z m 1.55198,-0.48556 c 0.75199,-0.40246 0.67064,-1.31361 -0.11729,-1.31361 -0.86921,0 -1.39968,0.65897 -0.95844,1.19063 0.39146,0.47167 0.41843,0.47476 1.07573,0.12298 z m 3.09146,0.51728 c -0.39636,-0.23086 -0.46302,-0.68678 -0.46302,-3.16695 0,-2.39896 0.0683,-2.89727 0.39687,-2.89727 0.32732,0 0.39688,0.48192 0.39688,2.74981 0,2.24976 0.0752,2.77869 0.41364,2.90855 0.22751,0.0873 0.33954,0.27864 0.24897,0.42519 -0.20361,0.32945 -0.40112,0.32561 -0.99334,-0.0193 z m 8.5827,-0.2537 c -0.88589,-0.82534 -0.81334,-2.67741 0.13409,-3.42266 0.40157,-0.31587 0.99954,-0.52656 1.36866,-0.48222 0.75705,0.0909 1.13084,0.76456 0.38792,0.69911 -0.99866,-0.088 -1.33465,0.0591 -1.6335,0.71499 -0.43441,0.95341 -0.38489,1.36493 0.23935,1.98916 0.42695,0.42696 0.72947,0.50619 1.38387,0.36247 0.75307,-0.16541 0.80139,-0.14048 0.47953,0.24734 -0.49315,0.59421 -1.66358,0.54055 -2.35992,-0.10819 z m 3.77455,-0.10996 c -1.7755,-1.77549 0.3246,-4.76182 2.52177,-3.58593 0.26982,0.14441 0.62275,0.66304 0.78429,1.15252 0.74004,2.24234 -1.70067,4.03881 -3.30606,2.43341 z m 2.26098,-0.4089 c 0.29104,-0.29104 0.52917,-0.82682 0.52917,-1.19062 0,-0.62038 -0.80807,-1.71979 -1.26405,-1.71979 -0.11314,0 -0.47033,0.18534 -0.79375,0.41187 -0.71348,0.49975 -0.79226,1.83434 -0.15015,2.54386 0.56469,0.62398 1.02182,0.61164 1.67878,-0.0453 z m 2.84427,0.76413 c -0.39688,-0.22393 -0.46302,-0.67513 -0.46302,-3.15852 0,-1.75513 0.1043,-2.89727 0.26458,-2.89727 0.15867,0 0.26459,1.05395 0.26459,2.63268 0,2.23141 0.0706,2.67251 0.46302,2.89394 0.30868,0.17417 0.37482,0.34945 0.19843,0.52584 -0.17476,0.17477 -0.42176,0.1759 -0.7276,0.003 z m 2.15136,0.0279 c -0.23558,-0.13765 -0.57454,-0.60328 -0.75325,-1.03473 -0.91787,-2.21592 1.65886,-4.19881 3.31027,-2.5474 1.77634,1.77634 -0.40871,4.83737 -2.55702,3.58213 z m 1.99693,-0.67858 c 0.42853,-0.42854 0.5571,-1.87094 0.21328,-2.39284 -0.40713,-0.618 -1.34129,-0.67469 -1.90064,-0.11534 -0.68888,0.68888 -0.69467,1.71364 -0.0136,2.39478 0.63705,0.63705 1.14348,0.67081 1.7009,0.1134 z m -144.179021,0.24754 c -4.466639,-0.93976 -8.836869,-3.95662 -11.500432,-7.93897 -1.643205,-2.4568 -1.682993,-3.03001 -0.274999,-3.96177 l 1.056862,-0.6994 -0.83861,-0.42883 c -1.212213,-0.61989 -1.494013,-1.19611 -0.990655,-2.02569 0.414693,-0.68345 3.113692,-3.03336 3.483978,-3.03336 0.110173,0 0.200314,0.40418 0.200314,0.89817 0,2.2739 1.668865,5.89548 3.818429,8.28631 3.587529,3.99019 9.608805,5.79162 14.820859,4.43405 5.248013,-1.36693 9.627589,-5.80629 10.851848,-10.99998 0.764516,-3.24332 0.378013,-7.22556 -0.954865,-9.83822 -0.290044,-0.56853 -0.45516,-1.10588 -0.366924,-1.19412 0.447436,-0.44744 8.799158,4.46538 13.105654,7.70927 1.527968,1.15095 2.923754,2.14901 3.101747,2.21791 0.177991,0.0689 3.740275,-1.61939 7.916183,-3.75175 4.175908,-2.13236 7.425137,-3.66192 7.220511,-3.39902 -0.370618,0.47616 -5.603433,6.47286 -6.788333,7.77929 l -0.622821,0.6867 1.068647,2.99577 c 0.587758,1.64767 1.068649,3.10054 1.068649,3.2286 0,0.12807 -1.339453,-0.80113 -2.976562,-2.06487 -1.63711,-1.26374 -3.831024,-2.94417 -4.875364,-3.7343 l -1.898801,-1.4366 -2.069949,2.1694 c -10.102038,10.58739 -23.498784,16.21728 -33.555366,14.10141 z m 62.60868,-0.14325 c -0.127272,-0.33801 -0.533826,-1.448 -0.903454,-2.46664 -0.369625,-1.01865 -0.754827,-2.06045 -0.856006,-2.31511 -0.126328,-0.31796 -0.05859,-0.46302 0.216201,-0.46302 0.338379,0 1.243283,2.05931 2.078559,4.73024 0.06271,0.20054 0.509167,-0.78173 0.992116,-2.18281 0.569317,-1.65166 1.013548,-2.54743 1.263306,-2.54743 0.445379,0 0.412626,0.1338 -0.842004,3.43958 -0.894792,2.35767 -1.521942,2.93863 -1.948718,1.80519 z m 16.369451,-1.39269 c 0,-1.82034 0.26568,-2.64037 0.65262,-2.01429 0.10245,0.16577 0.39461,0.15204 0.81203,-0.0382 0.48372,-0.2204 0.82274,-0.21929 1.31347,0.004 0.61414,0.27982 0.66146,0.43429 0.66146,2.15914 0,1.06211 -0.11332,1.85775 -0.26458,1.85775 -0.14553,0 -0.26459,-0.64634 -0.26459,-1.43631 0,-1.35913 -0.42408,-2.26786 -1.05833,-2.26786 -0.63426,0 -1.05833,0.90873 -1.05833,2.26786 0,1.10033 -0.0928,1.4363 -0.39688,1.4363 -0.31722,0 -0.39687,-0.39513 -0.39687,-1.96875 z m 11.37708,0 c 0,-1.8319 0.26589,-2.64003 0.65923,-2.0036 0.11201,0.18123 0.32914,0.18265 0.66235,0.004 1.40053,-0.74954 2.118,0.0184 2.118,2.26714 0,0.95754 -0.11563,1.70089 -0.26458,1.70089 -0.14552,0 -0.26458,-0.64634 -0.26458,-1.43631 0,-1.35912 -0.42408,-2.26785 -1.05834,-2.26785 -0.63425,0 -1.05833,0.90873 -1.05833,2.26786 0,1.10033 -0.0928,1.4363 -0.39688,1.4363 -0.31722,0 -0.39687,-0.39513 -0.39687,-1.96875 z m 13.20715,1.2604 c -0.52775,-1.36796 -1.83007,-4.948 -1.83007,-5.03083 0,-0.0449 0.16471,-0.0816 0.36601,-0.0816 0.22266,0 0.71842,0.98285 1.26574,2.50934 l 0.89973,2.50933 0.88208,-2.50933 c 0.56585,-1.60975 1.01958,-2.50934 1.26563,-2.50934 0.43512,0 0.45039,-0.0629 -0.80261,3.30729 -0.96242,2.58866 -1.54574,3.1032 -2.04651,1.80519 z m 23.04077,-2.20206 v -2.91042 h 1.4552 c 1.11713,0 1.45521,0.0922 1.45521,0.39688 0,0.28663 -0.29398,0.39687 -1.05833,0.39687 -1.03314,0 -1.05833,0.022 -1.05833,0.92604 0,0.904 0.0252,0.92604 1.05833,0.92604 0.58208,0 1.05833,0.11907 1.05833,0.26459 0,0.14552 -0.47625,0.26458 -1.05833,0.26458 h -1.05833 v 1.05833 1.05834 h 1.19062 c 0.65484,0 1.19063,0.11906 1.19063,0.26458 0,0.14699 -0.70556,0.26458 -1.5875,0.26458 h -1.5875 z m -60.192713,-2.38125 c -0.192935,-0.31218 0.05733,-0.79375 0.41249,-0.79375 0.136933,0 0.248968,0.23812 0.248968,0.52916 0,0.55803 -0.384937,0.71201 -0.661458,0.26459 z m 5.542002,-0.023 c -0.272659,-0.44117 0.340574,-0.94708 0.705569,-0.58208 0.305308,0.3053 0.114226,0.86971 -0.294446,0.86971 -0.128344,0 -0.313349,-0.12944 -0.411123,-0.28764 z m 35.471081,0.0274 c -0.19514,-0.31575 0.0525,-0.79807 0.40982,-0.79807 0.32195,0 0.32404,0.71612 0.003,0.91474 -0.13547,0.0837 -0.32109,0.0312 -0.41249,-0.11668 z M 28.310411,139.67717 c -2.704696,-0.48043 -4.468742,-1.41773 -6.561001,-3.48612 -6.767129,-6.68992 -2.959314,-18.36963 6.542463,-20.06769 5.095963,-0.9107 10.497541,1.97033 12.797529,6.8258 0.806609,1.70281 0.84705,1.93977 0.84705,4.96319 0,2.99964 -0.0451,3.26998 -0.816594,4.89479 -1.731515,3.64667 -5.197205,6.26216 -9.105281,6.87157 -1.91163,0.2981 -2.017479,0.29805 -3.704166,-0.002 z m 4.451,-5.28757 c 1.732153,-0.74516 3.798256,-2.94247 4.384469,-4.66291 1.341557,-3.93725 -0.475718,-8.324 -4.209447,-10.16126 -1.849072,-0.90988 -5.277203,-0.92909 -6.953049,-0.039 -3.669241,1.94891 -5.397594,5.5765 -4.439227,9.31737 1.293878,5.0505 6.446662,7.59802 11.217254,5.54577 z m -6.722399,-5.91347 c -1.55438,-0.7031 -2.5215,-2.65975 -2.115061,-4.27913 0.09333,-0.37187 0.56307,-1.10537 1.043861,-1.63001 0.757949,-0.82706 1.064627,-0.968 2.306819,-1.06013 1.737154,-0.12884 2.842066,0.45451 3.504353,1.85018 1.162327,2.44942 -0.267076,5.0799 -2.921514,5.37635 -0.551247,0.0616 -1.369553,-0.0542 -1.818458,-0.25726 z m 75.114608,5.62681 c -1.765912,-0.51092 -2.652295,-2.85365 -1.759311,-4.6499 0.675561,-1.35889 1.530641,-1.89646 3.528601,-2.21832 2.68569,-0.43265 2.91042,-0.50013 2.91042,-0.8739 0,-1.22292 -2.44375,-1.60689 -4.44536,-0.69847 l -1.13807,0.5165 0.0797,-1.38221 0.0797,-1.38221 1.32292,-0.34207 c 1.89827,-0.49084 4.69182,-0.3072 5.61393,0.36905 1.43717,1.05397 1.66125,1.93336 1.6617,6.52146 l 4.1e-4,4.16719 h -1.5875 -1.5875 v -0.83239 -0.83238 l -0.62899,0.67869 c -0.34595,0.37328 -1.09009,0.80672 -1.65365,0.9632 -1.1737,0.32589 -1.25654,0.32575 -2.39707,-0.004 z m 4.03028,-3.00357 c 0.4108,-0.41079 0.64943,-0.95146 0.64943,-1.47141 v -0.82199 l -1.25677,0.18232 c -1.57707,0.22879 -2.10076,0.49767 -2.32104,1.1917 -0.4468,1.40775 1.75023,2.09753 2.92838,0.91938 z m 9.48514,3.04486 c -1.15403,-0.27566 -2.08471,-1.02969 -2.79333,-2.26313 -0.49775,-0.86638 -0.6068,-1.44223 -0.60127,-3.175 0.008,-2.49759 0.60039,-3.90159 2.14262,-5.0779 0.84504,-0.64454 1.21046,-0.74293 2.75925,-0.74293 1.52523,0 1.88466,0.0934 2.468,0.64143 l 0.68277,0.64143 v -3.35341 -3.35341 h 1.71979 1.71979 v 8.33437 8.33438 h -1.71979 -1.71979 v -0.82983 -0.82983 l -0.69412,0.69412 c -0.38177,0.38176 -1.12591,0.81406 -1.65365,0.96064 -1.06741,0.2965 -1.1461,0.29715 -2.31027,0.0191 z m 3.45556,-2.82436 c 0.69847,-0.26803 1.20248,-1.56365 1.20248,-3.09116 0,-1.7403 -0.80444,-2.8299 -2.08928,-2.8299 -2.23444,0 -3.3937,3.73686 -1.72967,5.57559 0.45947,0.50772 1.74972,0.67808 2.61647,0.34547 z m 10.64596,2.71177 c -1.4905,-0.41799 -2.95457,-1.7217 -3.37954,-3.00936 -0.70734,-2.14326 -0.17522,-5.19608 1.15858,-6.64695 1.49385,-1.62496 4.44268,-2.08763 6.5459,-1.02704 1.58118,0.79734 2.34916,2.20329 2.43744,4.46221 l 0.066,1.68935 -3.50573,0.0738 c -3.77482,0.0795 -3.99958,0.18372 -3.01591,1.39849 0.65608,0.81023 3.2805,1.04639 4.55617,0.41 0.47088,-0.23491 0.89739,-0.4271 0.94779,-0.4271 0.0504,0 0.0916,0.57646 0.0916,1.28103 0,1.26734 -0.0114,1.28446 -1.06851,1.60118 -1.69847,0.50887 -3.45982,0.57969 -4.83384,0.19437 z m 3.59131,-7.37606 c -0.39529,-1.62473 -2.228,-2.09297 -3.226,-0.82422 -0.95935,1.21962 -0.76061,1.41953 1.41123,1.41953 1.89871,0 1.9551,-0.0185 1.81477,-0.59531 z m 25.94175,7.44736 c -1.7572,-0.5084 -2.62087,-2.65129 -1.76372,-4.37607 0.83379,-1.67781 1.28503,-1.87996 5.86578,-2.62788 0.8288,-0.13533 0.86779,-0.19021 0.70175,-0.98788 -0.28126,-1.3512 -1.00294,-1.91015 -2.39659,-1.85621 -0.65986,0.0255 -1.66865,0.27842 -2.24175,0.56197 l -1.04201,0.51555 v -0.86412 c 0,-0.7619 0.12583,-0.91447 1.06369,-1.28972 1.34131,-0.53669 3.75114,-0.54895 4.7658,-0.0242 1.45627,0.75306 1.69844,1.63444 1.79808,6.54396 l 0.0899,4.43177 h -0.94834 c -0.8897,0 -0.94835,-0.0521 -0.94835,-0.84325 v -0.84325 l -0.76421,0.73216 c -0.42032,0.40268 -1.22399,0.83884 -1.78594,0.96923 -1.20061,0.27857 -1.29163,0.27698 -2.39414,-0.042 z m 3.33425,-1.68102 c 0.86421,-0.4469 1.61004,-1.84968 1.61004,-3.0282 0,-0.92497 0.0143,-0.92169 -2.38125,-0.54671 -2.65402,0.41543 -3.66942,1.90226 -2.26098,3.3107 0.74806,0.74806 1.90208,0.84862 3.03219,0.26421 z m 10.47358,1.58029 c -0.58208,-0.20979 -1.26669,-0.63723 -1.52135,-0.94986 l -0.46302,-0.56842 v 0.82307 c 0,0.76488 -0.0657,0.82306 -0.92981,0.82306 h -0.92981 l 0.0699,-8.26823 0.0699,-8.26823 0.85989,-0.0829 0.8599,-0.0829 v 3.61605 3.61604 l 0.93089,-0.81733 c 1.11533,-0.97927 1.85478,-1.1943 3.54757,-1.03165 2.67276,0.25682 3.85591,1.94394 3.85591,5.49833 0,1.97521 -0.0883,2.39914 -0.72526,3.48271 -1.22915,2.09091 -3.49047,2.97951 -5.62474,2.21028 z m 2.81206,-1.60949 c 1.62986,-0.84283 2.3785,-4.41536 1.35472,-6.46475 -0.65263,-1.30641 -2.07884,-1.97161 -3.44089,-1.60485 -1.85412,0.49927 -2.71026,1.91867 -2.71026,4.49337 0,3.0806 2.35678,4.83782 4.79643,3.57623 z m -88.933932,-6.0396 v -7.83348 l 3.770313,0.0201 c 2.202995,0.0118 4.104201,0.14925 4.573505,0.33073 1.822821,0.70489 2.504099,1.62368 2.504099,3.37709 0,1.23044 -0.914609,2.72138 -1.851906,3.01887 -0.772578,0.24521 -0.65141,0.47572 0.505336,0.96134 1.422802,0.59733 2.008028,1.58611 2.008028,3.39271 0,1.78374 -0.702812,2.91935 -2.337384,3.77677 -0.959028,0.50307 -1.626315,0.59188 -5.137095,0.68375 l -4.034896,0.10557 z m 6.860244,4.74402 c 1.215019,-0.62832 1.420799,-1.75064 0.528886,-2.88453 -0.490794,-0.62394 -0.726924,-0.69714 -2.248958,-0.69714 h -1.700588 v 1.98438 1.98437 h 1.336055 c 0.73483,0 1.672903,-0.17419 2.084605,-0.38708 z m -0.24298,-6.89138 c 0.644284,-0.58307 0.68966,-1.89227 0.0886,-2.55643 -0.320169,-0.35379 -0.818046,-0.48386 -1.852083,-0.48386 h -1.4142 v 1.88575 1.88575 l 1.325596,-0.12738 c 0.750271,-0.0721 1.554099,-0.33416 1.852084,-0.60383 z m 45.152878,9.74791 c -0.097,-0.097 -0.17639,-2.59733 -0.17639,-5.55625 v -5.37986 h 1.85208 c 1.83136,0 1.85209,0.008 1.85209,0.70758 v 0.70758 l 0.59531,-0.54223 c 0.93702,-0.85346 1.66271,-1.13782 2.89302,-1.13362 1.45328,0.005 2.29337,0.43447 3.05216,1.56044 0.56867,0.84385 0.60326,1.15077 0.60326,5.35396 v 4.45879 h -1.70073 -1.70073 l -0.0852,-3.99064 c -0.0766,-3.58885 -0.13692,-4.02839 -0.5988,-4.36563 -0.76578,-0.55911 -1.67938,-0.45502 -2.40885,0.27445 -0.62787,0.62787 -0.64943,0.77281 -0.64943,4.36562 v 3.7162 h -1.6757 c -0.92163,0 -1.75507,-0.0794 -1.85208,-0.17639 z m 14.35534,-0.59701 -0.7734,-0.7734 v -7.57774 -7.57774 l 0.8599,0.0829 0.85989,0.0829 0.0706,7.12195 c 0.0467,4.71368 0.16948,7.24115 0.36312,7.47448 0.16092,0.19389 0.57565,0.35253 0.92164,0.35253 0.52257,0 0.62906,0.13437 0.62906,0.79375 0,0.75215 -0.0565,0.79375 -1.07869,0.79375 -0.83945,0 -1.25021,-0.17153 -1.85208,-0.7734 z"
         id="path1458"
         inkscape:connector-curvature="0" />
      <path
         style="fill:#c70606;stroke-width:0.26458335"
         d="m 171.03755,149.06261 c -0.48266,-0.38838 -0.45405,-0.40364 0.47489,-0.25329 1.23742,0.20029 2.05422,-0.21306 2.05422,-1.03955 0,-0.58439 -0.0546,-0.60856 -0.76704,-0.33963 -1.55196,0.58579 -2.88479,-1.25568 -2.09618,-2.89615 0.4488,-0.93361 1.55415,-1.56878 2.22642,-1.27937 0.27748,0.11945 0.71287,0.1914 0.96753,0.15989 0.41128,-0.0509 0.46302,0.21202 0.46302,2.35261 0,2.20589 -0.055,2.46489 -0.64943,3.05934 -0.74878,0.74878 -1.90901,0.85127 -2.67343,0.23615 z m 2.01734,-2.24186 c 0.72944,-0.39039 0.73074,-2.50072 0.002,-2.89085 -1.3741,-0.7354 -2.54432,1.4533 -1.43337,2.68089 0.50402,0.55693 0.72321,0.58908 1.4316,0.20996 z m 2.09927,2.42142 c 0,-0.12855 0.23669,-0.29563 0.52598,-0.37128 1.03309,-0.27015 1.1124,-1.31551 0.25717,-3.38947 -0.90763,-2.20101 -0.88475,-2.09095 -0.43459,-2.09095 0.19171,0 0.5537,0.65079 0.80443,1.4462 0.25073,0.7954 0.54778,1.50299 0.66011,1.57242 0.11233,0.0694 0.42664,-0.52807 0.69846,-1.32776 0.47156,-1.38729 0.8131,-1.89398 1.09,-1.61707 0.18092,0.18091 -1.75141,4.99356 -2.22782,5.54861 -0.41166,0.47962 -1.37374,0.6402 -1.37374,0.2293 z m -82.373609,-1.79475 c -0.406595,-0.4066 -0.125447,-0.64822 0.575202,-0.49433 0.506473,0.11124 0.857972,0.0369 1.077785,-0.22796 0.272265,-0.32806 0.148003,-0.50553 -0.751591,-1.07342 -1.245804,-0.78644 -1.39151,-1.51431 -0.429337,-2.14475 0.721575,-0.47279 1.496508,-0.42943 1.670627,0.0935 0.08112,0.24363 -0.07073,0.29592 -0.526875,0.18143 -0.694823,-0.17439 -1.361498,0.35503 -1.049462,0.83339 0.100817,0.15456 0.540491,0.4491 0.977053,0.65454 1.102302,0.51873 1.253776,1.71333 0.264922,2.08928 -0.803595,0.30553 -1.554448,0.34221 -1.808324,0.0883 z m 6.077001,-0.37198 c -1.438781,-1.13175 -0.520401,-3.94955 1.287238,-3.94955 1.01547,0 1.98437,1.09809 1.98437,2.24896 0,1.12984 -0.96372,2.24896 -1.93667,2.24896 -0.350786,0 -0.951512,-0.24677 -1.334938,-0.54837 z m 2.083328,-0.34667 c 0.33612,-0.24578 0.50037,-0.6902 0.50037,-1.35392 0,-2.11017 -2.235917,-2.30133 -2.643378,-0.226 -0.125211,0.63775 -0.03326,0.96249 0.393311,1.38906 0.650336,0.65034 1.060187,0.69504 1.749697,0.19086 z m 9.5888,0.61644 c -0.64083,-0.38318 -0.6092,-1.74122 0.0487,-2.09334 0.28148,-0.15064 0.81023,-0.2739 1.17501,-0.2739 0.83666,0 1.04002,-0.3173 0.59416,-0.92705 -0.29548,-0.40409 -0.47373,-0.43199 -1.18215,-0.18503 -0.91289,0.31824 -1.14933,-0.0236 -0.32243,-0.46611 1.50628,-0.80614 2.39864,0.049 2.39864,2.29864 0,1.48845 -0.0432,1.60469 -0.59531,1.6029 -0.32742,-0.001 -0.83344,0.0707 -1.12448,0.15941 -0.29104,0.0887 -0.73753,0.0367 -0.99219,-0.11552 z m 1.77094,-0.83861 c 0.57958,-0.82747 0.51944,-0.99946 -0.34948,-0.99946 -0.98274,0 -1.55785,0.62778 -1.09073,1.19063 0.46417,0.55928 0.96074,0.49337 1.44021,-0.19117 z m 7.32418,0.56266 c -0.80326,-0.8622 -0.76138,-2.44543 0.0871,-3.29394 0.70498,-0.70498 1.21908,-0.80086 2.01379,-0.37554 0.47101,0.25208 0.51178,0.17831 0.51178,-0.92604 0,-0.65996 0.11906,-1.19993 0.26458,-1.19993 0.16091,0 0.26458,1.18129 0.26458,3.01472 0,2.94798 -0.0132,3.01486 -0.59531,3.02149 -0.32742,0.004 -0.90782,0.0869 -1.28978,0.18479 -0.52908,0.13562 -0.82837,0.0343 -1.25677,-0.42555 z m 2.12884,-0.4125 c 0.65269,-0.59067 0.62767,-1.99578 -0.0464,-2.6058 -0.43812,-0.3965 -0.64496,-0.42759 -1.19062,-0.17897 -1.22112,0.55638 -0.81255,3.22265 0.49383,3.22265 0.14263,0 0.47706,-0.19704 0.74318,-0.43788 z m 12.03733,0.79066 c -0.39062,-0.39062 -0.13553,-0.59596 0.56603,-0.45565 0.49072,0.0982 0.85613,0.0115 1.07779,-0.2556 0.28432,-0.34258 0.17132,-0.50763 -0.74243,-1.08446 -1.32784,-0.83823 -1.49291,-1.85192 -0.37102,-2.27846 0.84997,-0.32316 1.45757,-0.23754 1.61231,0.2272 0.0811,0.24363 -0.0707,0.29592 -0.52687,0.18143 -0.69482,-0.17439 -1.3615,0.35503 -1.04946,0.83339 0.10081,0.15456 0.54049,0.44934 0.97705,0.65507 1.00583,0.47399 1.16788,1.36033 0.35306,1.93104 -0.61951,0.43393 -1.58351,0.55899 -1.89646,0.24604 z m 3.98341,-0.28785 c -0.50713,-0.56037 -0.66977,-3.7691 -0.19105,-3.7691 0.14552,0 0.26458,0.64634 0.26458,1.43631 0,0.95296 0.13992,1.57623 0.41578,1.85209 0.99061,0.99061 1.70089,0.25823 1.70089,-1.75381 0,-1.18769 0.0897,-1.53459 0.39687,-1.53459 0.31745,0 0.39688,0.39655 0.39688,1.98142 0,1.88187 -0.0299,1.98082 -0.59531,1.96972 -0.32743,-0.006 -0.8963,0.0633 -1.26416,0.15487 -0.47397,0.11802 -0.80161,0.0198 -1.12448,-0.33691 z m 4.5053,0.18564 c -0.64083,-0.38318 -0.6092,-1.74122 0.0488,-2.09334 0.28147,-0.15064 0.81022,-0.2739 1.175,-0.2739 0.83666,0 1.04002,-0.3173 0.59416,-0.92705 -0.29548,-0.40409 -0.47373,-0.43199 -1.18215,-0.18503 -0.91289,0.31824 -1.14933,-0.0236 -0.32243,-0.46611 1.50628,-0.80614 2.39864,0.049 2.39864,2.29864 0,1.48845 -0.0432,1.60469 -0.59531,1.6029 -0.32742,-0.001 -0.83344,0.0707 -1.12448,0.15941 -0.29104,0.0887 -0.73753,0.0367 -0.99219,-0.11552 z m 1.77094,-0.83861 c 0.57958,-0.82747 0.51944,-0.99946 -0.34948,-0.99946 -0.98274,0 -1.55785,0.62778 -1.09073,1.19063 0.46417,0.55928 0.96074,0.49337 1.44021,-0.19117 z m 11.42777,0.56884 c -1.47411,-1.15953 -0.4607,-4.11371 1.33803,-3.90049 0.38618,0.0458 0.75274,0.23725 0.81459,0.4255 0.0808,0.24587 -0.0747,0.2953 -0.55198,0.17551 -0.82991,-0.20829 -1.76862,0.64033 -1.76862,1.59889 0,0.94159 0.93945,1.807 1.74272,1.60539 0.7037,-0.17662 0.88749,0.22683 0.22002,0.48297 -0.69465,0.26656 -1.0645,0.18665 -1.79476,-0.38777 z m 3.65646,-0.10107 c -1.86618,-1.86617 0.53694,-4.94035 2.59588,-3.32079 0.59033,0.46435 0.72343,0.78105 0.72343,1.72127 0,0.92962 -0.13468,1.25816 -0.69714,1.70059 -0.92478,0.72744 -1.82851,0.69261 -2.62217,-0.10107 z m 2.26098,-0.4089 c 0.29104,-0.29104 0.52917,-0.82682 0.52917,-1.19062 0,-0.72152 -0.83373,-1.71979 -1.43631,-1.71979 -0.65045,0 -1.20953,0.79494 -1.20953,1.71979 0,1.55008 1.12462,2.18268 2.11667,1.19062 z m 5.10164,0.73917 c -0.32279,-0.15584 -0.71332,-0.66642 -0.86783,-1.13461 -0.72833,-2.20684 1.73169,-3.98186 3.31884,-2.39471 1.79085,1.79085 -0.17844,4.62651 -2.45101,3.52932 z m 1.89092,-0.62577 c 0.86122,-0.86122 0.29354,-3.02381 -0.79375,-3.02381 -0.60259,0 -1.43631,0.99827 -1.43631,1.71979 0,0.72152 0.83372,1.71979 1.43631,1.71979 0.20789,0 0.56507,-0.1871 0.79375,-0.41577 z m -144.179021,0.24754 c -4.466639,-0.93976 -8.836869,-3.95662 -11.500432,-7.93897 -1.643205,-2.4568 -1.682993,-3.03001 -0.274999,-3.96177 l 1.056862,-0.6994 -0.83861,-0.42883 c -1.212213,-0.61989 -1.494013,-1.19611 -0.990655,-2.02569 0.414693,-0.68345 3.113692,-3.03336 3.483978,-3.03336 0.110173,0 0.200314,0.40418 0.200314,0.89817 0,2.2739 1.668865,5.89548 3.818429,8.28631 3.587529,3.99019 9.608805,5.79162 14.820859,4.43405 5.248013,-1.36693 9.627589,-5.80629 10.851848,-10.99998 0.764516,-3.24332 0.378013,-7.22556 -0.954865,-9.83822 -0.290044,-0.56853 -0.45516,-1.10588 -0.366924,-1.19412 0.447436,-0.44744 8.799158,4.46538 13.105654,7.70927 1.527968,1.15095 2.923754,2.14901 3.101747,2.21791 0.177991,0.0689 3.740275,-1.61939 7.916183,-3.75175 4.175908,-2.13236 7.425137,-3.66192 7.220511,-3.39902 -0.370618,0.47616 -5.603433,6.47286 -6.788333,7.77929 l -0.622821,0.6867 1.068647,2.99577 c 0.587758,1.64767 1.068649,3.10054 1.068649,3.2286 0,0.12807 -1.339453,-0.80113 -2.976562,-2.06487 -1.63711,-1.26374 -3.831024,-2.94417 -4.875364,-3.7343 l -1.898801,-1.4366 -2.069949,2.1694 c -10.102038,10.58739 -23.498784,16.21728 -33.555366,14.10141 z m 62.710302,0.12164 c -1.795058,-4.96511 -1.955451,-5.50966 -1.622849,-5.50966 0.210823,0 0.729658,1.04523 1.271873,2.56229 l 0.9158,2.56229 0.883214,-2.56229 c 0.524544,-1.52175 1.02685,-2.56229 1.236916,-2.56229 0.441159,0 0.518031,-0.33122 -0.675484,2.91042 -0.660207,1.79314 -1.175311,2.80851 -1.452845,2.86382 -0.236493,0.0471 -0.486974,-0.0719 -0.556625,-0.26458 z m 4.008797,0.13478 c -0.285777,-0.28577 -0.204227,-3.79236 0.08819,-3.79236 0.149251,0 0.264583,0.74966 0.264583,1.7198 0,1.35231 0.0848,1.71979 0.396875,1.71979 0.218281,0 0.396875,0.11906 0.396875,0.26458 0,0.29559 -0.872056,0.36267 -1.146527,0.0882 z m 5.55625,0 c -0.285776,-0.28577 -0.204227,-3.79236 0.08819,-3.79236 0.149251,0 0.264583,0.74966 0.264583,1.7198 0,1.35231 0.0848,1.71979 0.396875,1.71979 0.218281,0 0.396875,0.11906 0.396875,0.26458 0,0.29559 -0.872056,0.36267 -1.146527,0.0882 z m 6.702782,-1.80502 c 0,-1.88187 0.0299,-1.98082 0.59531,-1.96973 0.32742,0.006 0.90394,-0.0647 1.28116,-0.15811 1.11464,-0.27596 1.56311,0.41501 1.56311,2.40836 0,0.95754 -0.11564,1.70089 -0.26458,1.70089 -0.14553,0 -0.26459,-0.64634 -0.26459,-1.4363 0,-1.35913 -0.42408,-2.26786 -1.05833,-2.26786 -0.63426,0 -1.05833,0.90873 -1.05833,2.26786 0,1.10033 -0.0928,1.4363 -0.39688,1.4363 -0.31745,0 -0.39687,-0.39654 -0.39687,-1.98141 z m 11.37708,0 c 0,-1.88187 0.0299,-1.98082 0.59531,-1.96973 0.32742,0.006 0.90394,-0.0647 1.28116,-0.15811 1.11464,-0.27596 1.56311,0.41501 1.56311,2.40836 0,0.95754 -0.11563,1.70089 -0.26458,1.70089 -0.14552,0 -0.26458,-0.64634 -0.26458,-1.4363 0,-0.95296 -0.13992,-1.57623 -0.41578,-1.85209 -0.49188,-0.49188 -0.52725,-0.4961 -1.18912,-0.14188 -0.41816,0.22379 -0.51177,0.56256 -0.51177,1.85208 0,1.22645 -0.0885,1.57819 -0.39688,1.57819 -0.31744,0 -0.39687,-0.39654 -0.39687,-1.98141 z m 13.24941,1.37319 c -1.37117,-3.60643 -1.83023,-5.21261 -1.48983,-5.21261 0.2292,0 0.6829,0.94638 1.205,2.51354 0.46056,1.38245 0.87383,2.51354 0.91837,2.51354 0.0445,0 0.47087,-1.13109 0.9474,-2.51354 0.51341,-1.48944 1.01052,-2.51354 1.22011,-2.51354 0.44116,0 0.51803,-0.33122 -0.67548,2.91042 -1.06761,2.89965 -1.65609,3.53704 -2.12557,2.30219 z m 3.94196,-0.0705 c -0.42248,-1.11121 -0.33054,-3.29007 0.13884,-3.29007 0.31207,0 0.39687,0.36748 0.39687,1.7198 0,1.35231 0.0848,1.71979 0.39688,1.71979 0.21828,0 0.39687,0.11906 0.39687,0.26458 0,0.58053 -1.0791,0.24442 -1.32946,-0.4141 z m 14.71923,0.26017 c -0.0883,-0.23018 -0.1606,-1.60932 -0.1606,-3.06476 0,-1.99908 0.0809,-2.61942 0.33073,-2.5366 0.22749,0.0754 0.35453,0.92202 0.40699,2.71226 0.0611,2.08561 0.16623,2.67097 0.52916,2.9467 0.40814,0.31007 0.38379,0.34492 -0.24639,0.3525 -0.39959,0.005 -0.76812,-0.17095 -0.85989,-0.4101 z m 4.33732,-2.4919 v -2.91042 h 1.4552 c 1.11713,0 1.45521,0.0922 1.45521,0.39688 0,0.28663 -0.29398,0.39687 -1.05833,0.39687 -1.03314,0 -1.05833,0.022 -1.05833,0.92604 0,0.87892 0.0463,0.92604 0.91042,0.92604 0.50074,0 0.98401,0.11907 1.07395,0.26459 0.0988,0.15979 -0.26184,0.26458 -0.91043,0.26458 h -1.07394 v 1.05833 1.05834 h 1.19062 c 0.65484,0 1.19063,0.11906 1.19063,0.26458 0,0.14699 -0.70556,0.26458 -1.5875,0.26458 h -1.5875 z m 13.14097,2.73402 c -0.29063,-0.29062 -0.20677,-5.90902 0.0882,-5.90902 0.15881,0 0.26459,1.0611 0.26459,2.65413 0,2.11516 0.0806,2.68507 0.39687,2.80644 0.21828,0.0838 0.39688,0.25862 0.39688,0.38857 0,0.27418 -0.88596,0.32046 -1.14653,0.0599 z m -73.333683,-5.11527 c -0.105609,-0.17088 -0.07296,-0.42975 0.07256,-0.57528 0.17639,-0.17639 0.328591,-0.16102 0.456602,0.0461 0.105609,0.17088 0.07296,0.42975 -0.07256,0.57527 -0.17639,0.17639 -0.328592,0.16102 -0.456602,-0.0461 z m 5.55625,0 c -0.105609,-0.17088 -0.07296,-0.42975 0.07256,-0.57528 0.17639,-0.17639 0.328592,-0.16102 0.456602,0.0461 0.105609,0.17088 0.07296,0.42975 -0.07256,0.57527 -0.17639,0.17639 -0.328592,0.16102 -0.456602,-0.0461 z m 35.454163,0 c -0.1056,-0.17088 -0.0729,-0.42975 0.0726,-0.57528 0.17639,-0.17639 0.32859,-0.16102 0.4566,0.0461 0.10561,0.17088 0.073,0.42975 -0.0726,0.57527 -0.17639,0.17639 -0.3286,0.16102 -0.45661,-0.0461 z m -30.41695,-8.08001 c -1.73306,-0.59987 -2.427083,-2.03488 -1.969809,-4.07292 0.318416,-1.41914 1.453519,-2.27973 3.470129,-2.63091 0.93935,-0.16358 1.96977,-0.29741 2.28984,-0.29741 0.78208,0 1.00275,-0.69341 0.42412,-1.33277 -0.61954,-0.68459 -2.51462,-0.6833 -4.02597,0.003 l -1.12448,0.51042 v -1.30259 -1.30259 l 1.50224,-0.43672 c 1.90689,-0.55434 4.60497,-0.38753 5.60717,0.34668 1.39391,1.02118 1.62098,1.93025 1.62143,6.4914 l 4.1e-4,4.16719 h -1.5875 -1.5875 l -0.008,-0.8599 c -0.007,-0.72831 -0.0577,-0.79612 -0.33072,-0.44314 -0.93692,1.21144 -2.72974,1.69745 -4.28094,1.16053 z m 4.07171,-2.93588 c 0.3016,-0.38343 0.54837,-1.05316 0.54837,-1.48828 0,-0.74497 -0.0483,-0.78149 -0.82682,-0.62578 -0.45476,0.0909 -1.05007,0.16536 -1.32292,0.16536 -0.58494,0 -1.55443,0.89582 -1.55443,1.43631 0,1.29053 2.25563,1.65676 3.1558,0.51239 z m 9.36612,3.03791 c -4.23106,-0.94728 -4.64131,-8.75371 -0.5692,-10.83115 1.46395,-0.74685 3.62365,-0.61367 4.57732,0.28227 l 0.65098,0.61155 0.0746,-3.27932 0.0746,-3.27933 1.65365,-0.0788 1.65364,-0.0788 v 8.347 8.347 h -1.71979 -1.71979 v -0.82116 -0.82116 l -0.93525,0.82116 c -0.51438,0.45164 -1.15949,0.82116 -1.43357,0.82116 -0.27408,0 -0.65688,0.0465 -0.85069,0.10336 -0.1938,0.0568 -0.84922,-0.008 -1.45649,-0.14384 z m 3.47352,-2.76971 c 0.70558,-0.27076 1.20248,-1.56905 1.20248,-3.14183 0,-1.21897 -0.11467,-1.59504 -0.64943,-2.1298 -1.35608,-1.35608 -3.28955,-0.60849 -3.85474,1.49045 -0.71631,2.66016 1.02531,4.65471 3.30169,3.78118 z m 12.0504,2.90899 c -0.21829,-0.035 -0.84591,-0.1369 -1.39472,-0.22652 -1.18994,-0.19434 -2.77217,-1.5007 -3.27491,-2.70392 -0.52417,-1.25452 -0.44719,-4.2248 0.14262,-5.50274 0.9018,-1.95394 2.69311,-3.04271 5.00606,-3.04271 2.80713,0 4.57294,1.8194 4.94321,5.09323 l 0.17206,1.52136 h -3.59091 c -3.44113,0 -3.59091,0.0226 -3.59091,0.54119 0,0.29766 0.29224,0.83344 0.64943,1.19062 0.53427,0.53428 0.91111,0.64944 2.12516,0.64944 0.81166,0 1.88863,-0.17252 2.39328,-0.38338 l 0.91754,-0.38337 v 1.19062 c 0,1.09514 -0.069,1.21868 -0.85989,1.54037 -0.85769,0.34884 -2.88548,0.63635 -3.63802,0.51581 z m 2.27726,-7.39648 c -0.0883,-0.23019 -0.1606,-0.51934 -0.1606,-0.64256 0,-0.50951 -0.88953,-1.0556 -1.71949,-1.0556 -0.64411,0 -1.03851,0.19143 -1.4363,0.69714 -0.96406,1.22561 -0.76402,1.41953 1.46431,1.41953 1.7266,0 1.98985,-0.0595 1.85208,-0.41851 z m 26.37051,7.28328 c -2.02256,-0.42819 -2.99094,-2.0198 -2.44092,-4.01183 0.40781,-1.47695 1.49099,-2.22121 3.74706,-2.57462 3.34554,-0.52408 3.20237,-0.45681 3.01081,-1.41458 -0.0931,-0.46545 -0.40795,-1.08482 -0.6997,-1.37636 -0.72889,-0.72839 -2.75252,-0.69099 -4.05053,0.0749 l -0.96241,0.56783 v -0.87465 c 0,-1.08161 0.73901,-1.49022 3.04326,-1.68264 2.02604,-0.16919 3.35649,0.34882 4.01206,1.56211 0.40266,0.74521 0.47662,1.55249 0.4806,5.24636 l 0.005,4.36563 -0.8599,0.0829 c -0.81078,0.0782 -0.85989,0.0338 -0.85989,-0.77711 v -0.86001 l -0.72761,0.69558 c -0.84287,0.80579 -2.47187,1.236 -3.69754,0.97652 z m 2.87163,-1.72297 c 0.88787,-0.45913 1.55351,-1.76476 1.55351,-3.04712 v -0.83274 l -1.52135,0.17766 c -0.83675,0.0977 -1.90922,0.29956 -2.38328,0.44855 -1.48518,0.46678 -1.83948,1.91679 -0.7376,3.01867 0.76003,0.76003 1.90495,0.84713 3.08872,0.23498 z m 11.47539,1.86123 c -0.14552,-0.0427 -0.57336,-0.14511 -0.95075,-0.22765 -0.37739,-0.0825 -1.00247,-0.46638 -1.38906,-0.85298 l -0.7029,-0.70289 v 0.82983 c 0,0.77263 -0.0641,0.82983 -0.92981,0.82983 h -0.92981 l 0.0699,-8.26823 0.0699,-8.26823 0.85989,-0.0829 0.8599,-0.0829 v 3.63814 3.63814 l 0.7276,-0.69413 c 2.73382,-2.60804 7.04603,-0.98747 7.62375,2.86509 0.43165,2.87843 -0.72365,5.93578 -2.56098,6.77733 -0.94741,0.43394 -2.30538,0.73125 -2.74766,0.60157 z m 1.75372,-1.8612 c 1.74678,-0.90329 2.46394,-4.89799 1.21296,-6.75635 -1.25129,-1.85882 -3.46858,-2.01788 -4.9298,-0.35364 -0.91676,1.04412 -1.19195,2.19718 -1.01981,4.27297 0.10757,1.29707 0.24601,1.59902 1.0862,2.36899 1.09695,1.00528 2.31061,1.16089 3.65045,0.46803 z m -88.933932,-6.03903 v -7.83405 l 3.505729,0.001 c 4.10228,0.002 5.282362,0.26703 6.469878,1.45455 0.706408,0.70641 0.87231,1.08112 0.87231,1.97024 0,1.44931 -0.561324,2.47235 -1.764551,3.21598 l -0.983631,0.60792 0.827664,0.21447 c 1.119611,0.29012 2.392516,1.61887 2.597484,2.71144 0.367979,1.96149 -0.567476,3.75245 -2.437051,4.6658 -1.133028,0.55352 -1.737797,0.63825 -5.185228,0.72641 l -3.902604,0.0998 v -7.83405 z m 7.443687,4.35883 c 0.67845,-0.83785 0.624451,-1.92374 -0.130953,-2.63341 -0.479512,-0.45048 -0.986993,-0.5996 -2.182812,-0.64143 l -1.558047,-0.0545 -0.07784,2.08209 -0.07784,2.08209 1.766843,-0.1125 c 1.44608,-0.0921 1.856491,-0.22322 2.260655,-0.72234 z m -0.997077,-6.39125 c 0.79525,-0.62554 0.961261,-2.06013 0.313373,-2.70801 -0.421556,-0.42156 -2.632488,-0.84171 -3.055038,-0.58056 -0.14595,0.0902 -0.265361,0.99041 -0.265361,2.00047 v 1.83647 h 1.154943 c 0.767794,0 1.388634,-0.18382 1.852083,-0.54837 z m 45.411722,4.26516 v -5.56887 h 1.71979 1.7198 v 0.82943 0.82943 l 0.5333,-0.67799 c 1.04185,-1.3245 4.10978,-1.6403 5.33478,-0.54914 1.07752,0.95978 1.27567,1.95994 1.27567,6.43894 v 4.24183 h -1.7198 -1.71979 v -3.83646 c 0,-3.48368 -0.0487,-3.88512 -0.52916,-4.36563 -0.71027,-0.71026 -1.8862,-0.6763 -2.59188,0.0749 -0.51562,0.54885 -0.5742,0.94151 -0.64143,4.29948 l -0.074,3.69546 -1.65364,0.0788 -1.65365,0.0788 z m 14.26715,4.77023 -0.7734,-0.7734 v -7.57774 -7.57774 l 0.8599,0.0829 0.85989,0.0829 0.0706,7.12195 c 0.0467,4.71368 0.16948,7.24115 0.36312,7.47448 0.16092,0.19389 0.57565,0.35253 0.92164,0.35253 0.52257,0 0.62906,0.13437 0.62906,0.79375 0,0.75215 -0.0565,0.79375 -1.07869,0.79375 -0.83945,0 -1.25021,-0.17153 -1.85208,-0.7734 z M 26.039012,128.47613 c -1.55438,-0.7031 -2.5215,-2.65975 -2.115061,-4.27913 0.09333,-0.37187 0.56307,-1.10537 1.043861,-1.63001 0.757949,-0.82706 1.064627,-0.968 2.306819,-1.06013 1.737154,-0.12884 2.842066,0.45451 3.504353,1.85018 1.162327,2.44942 -0.267076,5.0799 -2.921514,5.37635 -0.551247,0.0616 -1.369553,-0.0542 -1.818458,-0.25726 z"
         id="path1456"
         inkscape:connector-curvature="0" />
      <path
         style="fill:#03c603;stroke-width:0.26458335"
         d="m 171.25156,149.30066 c -0.64496,-0.26024 -0.31911,-0.60297 0.4307,-0.453 1.01902,0.2038 1.8844,-0.2912 1.8844,-1.07789 0,-0.58439 -0.0546,-0.60856 -0.76704,-0.33963 -2.14389,0.80922 -3.22959,-2.61323 -1.2421,-3.91548 0.44308,-0.29031 0.86043,-0.36523 1.26858,-0.22771 0.33455,0.11271 0.81663,0.17463 1.07129,0.1376 0.41201,-0.0599 0.46302,0.19816 0.46302,2.34257 0,2.20589 -0.055,2.46489 -0.64943,3.05934 -0.61348,0.61347 -1.62901,0.80928 -2.45942,0.4742 z m 1.80333,-2.47991 c 0.38922,-0.20831 0.51177,-0.55813 0.51177,-1.46088 0,-1.00885 -0.0991,-1.23215 -0.66038,-1.48788 -0.54566,-0.24862 -0.7525,-0.21753 -1.19063,0.17897 -0.64796,0.5864 -0.69513,1.89377 -0.0924,2.55983 0.50401,0.55693 0.7232,0.58908 1.43159,0.20996 z m 2.09927,2.42142 c 0,-0.12855 0.23669,-0.29563 0.52598,-0.37128 1.03309,-0.27015 1.1124,-1.31551 0.25717,-3.38947 -0.90874,-2.20371 -0.88565,-2.09095 -0.42816,-2.09095 0.20407,0 0.55932,0.67488 0.83564,1.5875 0.26436,0.87313 0.55621,1.5875 0.64856,1.5875 0.0923,0 0.39261,-0.66107 0.66725,-1.46906 0.47618,-1.4009 0.81757,-1.9097 1.09512,-1.63215 0.23461,0.2346 -1.80997,5.08079 -2.34092,5.54861 -0.55777,0.49144 -1.26064,0.61929 -1.26064,0.2293 z m -82.219269,-1.79359 c -0.636582,-0.25687 -0.323813,-0.60391 0.411694,-0.45681 0.490715,0.0982 0.856126,0.0115 1.077786,-0.2556 0.284318,-0.34258 0.171323,-0.50763 -0.742424,-1.08446 -1.245804,-0.78644 -1.39151,-1.51431 -0.429337,-2.14475 0.721575,-0.47279 1.496508,-0.42943 1.670627,0.0935 0.08112,0.24363 -0.07073,0.29592 -0.526875,0.18143 -0.694823,-0.17439 -1.361498,0.35503 -1.049462,0.83339 0.100817,0.15456 0.540491,0.44934 0.977053,0.65507 1.005827,0.47399 1.167876,1.36033 0.353058,1.93104 -0.604179,0.42319 -1.123395,0.49686 -1.74212,0.2472 z m 5.922661,-0.37314 c -1.38914,-1.0927 -0.718498,-3.50043 1.071258,-3.84603 1.87238,-0.36154 2.98085,2.31504 1.55092,3.74496 -0.79367,0.79368 -1.697391,0.82851 -2.622178,0.10107 z m 2.083328,-0.34667 c 1.05528,-0.77164 0.42117,-3.07371 -0.84666,-3.07371 -0.575427,0 -1.404642,1.01526 -1.404642,1.71979 0,0.70453 0.829215,1.71979 1.404642,1.71979 0.19047,0 0.57147,-0.16464 0.84666,-0.36587 z m 9.5888,0.61644 c -0.64083,-0.38318 -0.6092,-1.74122 0.0487,-2.09334 0.28148,-0.15064 0.81023,-0.2739 1.17501,-0.2739 0.83666,0 1.04002,-0.3173 0.59416,-0.92705 -0.29783,-0.40729 -0.47094,-0.43296 -1.2019,-0.17814 -0.66274,0.23103 -0.82989,0.22517 -0.74645,-0.0262 0.21177,-0.63782 1.42818,-0.84142 2.16045,-0.36162 0.61478,0.40282 0.68196,0.61291 0.68196,2.13255 0,1.57231 -0.04,1.68557 -0.59531,1.68377 -0.32742,-0.001 -0.83344,0.0707 -1.12448,0.15941 -0.29104,0.0887 -0.73753,0.0367 -0.99219,-0.11552 z m 1.77094,-0.83861 c 0.57958,-0.82747 0.51944,-0.99946 -0.34948,-0.99946 -0.98274,0 -1.55785,0.62778 -1.09073,1.19063 0.46417,0.55928 0.96074,0.49337 1.44021,-0.19117 z m 7.30135,0.53815 c -0.78032,-0.83757 -0.72667,-2.4328 0.10996,-3.26943 0.70498,-0.70498 1.21908,-0.80086 2.01379,-0.37554 0.47101,0.25208 0.51178,0.17831 0.51178,-0.92604 0,-0.65996 0.11906,-1.19993 0.26458,-1.19993 0.16105,0 0.26458,1.19062 0.26458,3.04271 0,1.85208 -0.10353,3.0427 -0.26458,3.0427 -0.14552,0 -0.26458,-0.12581 -0.26458,-0.27958 0,-0.15671 -0.25844,-0.0986 -0.58804,0.13229 -0.80748,0.56558 -1.41071,0.51633 -2.04749,-0.16718 z m 2.15167,-0.38799 c 0.90206,-0.81636 0.41057,-3.0017 -0.6751,-3.0017 -0.75551,0 -1.32813,0.74148 -1.32813,1.71979 0,0.66372 0.16425,1.10814 0.50036,1.35392 0.64809,0.47389 0.91372,0.46116 1.50287,-0.072 z m 12.03733,0.79066 c -0.39062,-0.39062 -0.13553,-0.59596 0.56603,-0.45565 0.49072,0.0982 0.85613,0.0115 1.07779,-0.2556 0.28432,-0.34258 0.17132,-0.50763 -0.74243,-1.08446 -1.2458,-0.78644 -1.39151,-1.51431 -0.42933,-2.14475 0.72989,-0.47825 1.49697,-0.42803 1.67603,0.10972 0.0869,0.26107 -0.0364,0.30905 -0.45379,0.17657 -0.5621,-0.1784 -1.34152,0.22009 -1.34152,0.68587 0,0.12656 0.44648,0.43987 0.99218,0.69624 1.20196,0.56469 1.43189,1.40938 0.5515,2.02602 -0.61951,0.43393 -1.58351,0.55899 -1.89646,0.24604 z m 3.98341,-0.28785 c -0.50713,-0.56037 -0.66977,-3.7691 -0.19105,-3.7691 0.14552,0 0.26458,0.64634 0.26458,1.43631 0,0.95296 0.13992,1.57623 0.41578,1.85209 0.99061,0.99061 1.70089,0.25823 1.70089,-1.75381 0,-1.18769 0.0897,-1.53459 0.39687,-1.53459 0.31745,0 0.39688,0.39655 0.39688,1.98142 0,1.88187 -0.0299,1.98082 -0.59531,1.96972 -0.32743,-0.006 -0.8963,0.0633 -1.26416,0.15487 -0.47397,0.11802 -0.80161,0.0198 -1.12448,-0.33691 z m 4.5053,0.18564 c -0.64083,-0.38318 -0.6092,-1.74122 0.0488,-2.09334 0.28147,-0.15064 0.81022,-0.2739 1.175,-0.2739 0.83666,0 1.04002,-0.3173 0.59416,-0.92705 -0.29782,-0.40729 -0.47094,-0.43296 -1.2019,-0.17814 -0.66274,0.23103 -0.82989,0.22517 -0.74645,-0.0262 0.21177,-0.63782 1.42818,-0.84142 2.16045,-0.36162 0.61478,0.40282 0.68196,0.61291 0.68196,2.13255 0,1.57231 -0.04,1.68557 -0.59531,1.68377 -0.32742,-0.001 -0.83344,0.0707 -1.12448,0.15941 -0.29104,0.0887 -0.73753,0.0367 -0.99219,-0.11552 z m 1.77094,-0.83861 c 0.57958,-0.82747 0.51944,-0.99946 -0.34948,-0.99946 -0.98274,0 -1.55785,0.62778 -1.09073,1.19063 0.46417,0.55928 0.96074,0.49337 1.44021,-0.19117 z m 11.42777,0.56884 c -0.84677,-0.66607 -0.96108,-2.24207 -0.22825,-3.14707 0.53322,-0.6585 2.17715,-0.88566 2.37308,-0.32792 0.0867,0.24682 -0.0651,0.29577 -0.54419,0.17551 -0.82991,-0.20829 -1.76862,0.64033 -1.76862,1.59889 0,0.94159 0.93945,1.807 1.74272,1.60539 0.7037,-0.17662 0.88749,0.22683 0.22002,0.48297 -0.69465,0.26656 -1.0645,0.18665 -1.79476,-0.38777 z m 3.65646,-0.10107 c -1.86618,-1.86617 0.53694,-4.94035 2.59588,-3.32079 0.59033,0.46435 0.72343,0.78105 0.72343,1.72127 0,0.92962 -0.13468,1.25816 -0.69714,1.70059 -0.92478,0.72744 -1.82851,0.69261 -2.62217,-0.10107 z m 2.26098,-0.4089 c 0.29104,-0.29104 0.52917,-0.82682 0.52917,-1.19062 0,-0.72152 -0.83373,-1.71979 -1.43631,-1.71979 -0.6843,0 -1.20953,0.80675 -1.20953,1.85783 0,1.51123 1.10736,2.0619 2.11667,1.05258 z m 4.95676,0.53065 c -0.59032,-0.46435 -0.72343,-0.78106 -0.72343,-1.72127 0,-0.92962 0.13468,-1.25816 0.69714,-1.70059 0.92479,-0.72744 1.82851,-0.69261 2.62218,0.10106 1.86617,1.86617 -0.53694,4.94036 -2.59589,3.3208 z m 1.9398,-0.27537 c 1.03933,-0.55623 0.46418,-3.16569 -0.69775,-3.16569 -0.61783,0 -1.43631,1.00584 -1.43631,1.7651 0,0.77995 0.66725,1.67448 1.24903,1.67448 0.20529,0 0.60356,-0.12325 0.88503,-0.27389 z m -144.083021,0.10566 c -4.466639,-0.93976 -8.836869,-3.95662 -11.500432,-7.93897 -1.643205,-2.4568 -1.682993,-3.03001 -0.274999,-3.96177 l 1.056862,-0.6994 -0.83861,-0.42883 c -1.212213,-0.61989 -1.494013,-1.19611 -0.990655,-2.02569 0.414693,-0.68345 3.113692,-3.03336 3.483978,-3.03336 0.110173,0 0.200314,0.40418 0.200314,0.89817 0,2.2739 1.668865,5.89548 3.818429,8.28631 3.587529,3.99019 9.608805,5.79162 14.820859,4.43405 5.248013,-1.36693 9.627589,-5.80629 10.851848,-10.99998 0.764516,-3.24332 0.378013,-7.22556 -0.954865,-9.83822 -0.290044,-0.56853 -0.45516,-1.10588 -0.366924,-1.19412 0.460644,-0.46065 8.904337,4.53523 13.42626,7.94391 l 2.834148,2.13642 -0.490842,0.68932 c -0.710896,0.99836 -4.871879,4.95192 -7.029537,6.67911 -9.159434,7.33209 -19.839634,10.7796 -28.045834,9.05305 z m 62.710302,0.12164 c -1.825692,-5.04984 -1.95992,-5.50966 -1.608371,-5.50966 0.222528,0 0.607383,0.71343 0.963417,1.78594 1.219306,3.67301 1.10282,3.63156 2.114873,0.75248 0.498792,-1.41896 1.041461,-2.53842 1.230521,-2.53842 0.423159,0 0.500431,-0.32547 -0.69097,2.91042 -0.660207,1.79314 -1.175311,2.80851 -1.452845,2.86382 -0.236493,0.0471 -0.486974,-0.0719 -0.556625,-0.26458 z m 4.008797,0.13478 c -0.285777,-0.28577 -0.204227,-3.79236 0.08819,-3.79236 0.149251,0 0.264583,0.74966 0.264583,1.7198 0,1.35231 0.0848,1.71979 0.396875,1.71979 0.218281,0 0.396875,0.11906 0.396875,0.26458 0,0.29559 -0.872056,0.36267 -1.146527,0.0882 z m 5.55625,0 c -0.285776,-0.28577 -0.204227,-3.79236 0.08819,-3.79236 0.149251,0 0.264583,0.74966 0.264583,1.7198 0,1.35231 0.0848,1.71979 0.396875,1.71979 0.218281,0 0.396875,0.11906 0.396875,0.26458 0,0.29559 -0.872056,0.36267 -1.146527,0.0882 z m 6.702782,-1.80502 c 0,-1.88859 0.0279,-1.9798 0.59531,-1.94702 0.32742,0.0189 0.90562,-0.0506 1.28488,-0.15439 1.11377,-0.30492 1.55939,0.37575 1.55939,2.38193 0,0.95754 -0.11564,1.70089 -0.26458,1.70089 -0.14553,0 -0.26459,-0.64634 -0.26459,-1.4363 0,-1.35913 -0.42408,-2.26786 -1.05833,-2.26786 -0.63426,0 -1.05833,0.90873 -1.05833,2.26786 0,1.10033 -0.0928,1.4363 -0.39688,1.4363 -0.31745,0 -0.39687,-0.39654 -0.39687,-1.98141 z m 11.37708,-0.0196 c 0,-1.75169 0.0577,-1.9937 0.46302,-1.94232 0.25466,0.0323 0.79524,-0.0339 1.20128,-0.14702 1.23391,-0.3438 1.77528,0.39161 1.77528,2.41157 0,0.9428 -0.11599,1.67878 -0.26458,1.67878 -0.14552,0 -0.26458,-0.64634 -0.26458,-1.4363 0,-0.95296 -0.13992,-1.57623 -0.41578,-1.85209 -0.49188,-0.49188 -0.52725,-0.4961 -1.18912,-0.14188 -0.41816,0.22379 -0.51177,0.56256 -0.51177,1.85208 0,1.22645 -0.0885,1.57819 -0.39688,1.57819 -0.31779,0 -0.39687,-0.39872 -0.39687,-2.001 z m 13.36551,1.68983 c -1.82519,-5.04844 -1.95984,-5.50965 -1.60862,-5.50965 0.2326,0 0.6817,0.93471 1.20769,2.51354 0.46056,1.38245 0.87383,2.51354 0.91837,2.51354 0.0445,0 0.47087,-1.13109 0.9474,-2.51354 0.49927,-1.44844 1.01273,-2.51354 1.21171,-2.51354 0.51925,0 -1.5589,5.66284 -2.11903,5.77424 -0.23698,0.0471 -0.48787,-0.0719 -0.55752,-0.26458 z m 4.0088,0.13478 c -0.28578,-0.28576 -0.20423,-3.79235 0.0882,-3.79235 0.14925,0 0.26458,0.74966 0.26458,1.7198 0,1.35231 0.0848,1.71979 0.39688,1.71979 0.21828,0 0.39687,0.11906 0.39687,0.26458 0,0.29559 -0.87205,0.36267 -1.14652,0.0882 z m 14.53629,-0.24212 c -0.0883,-0.23017 -0.1606,-1.60931 -0.1606,-3.06475 0,-1.9991 0.0809,-2.61942 0.33073,-2.53656 0.22879,0.0759 0.35397,0.93893 0.40613,2.80018 0.042,1.50016 0.18836,2.69049 0.33073,2.69049 0.14043,0 0.25533,0.11906 0.25533,0.26458 0,0.4316 -0.98784,0.30077 -1.16232,-0.15393 z m 4.33732,-2.49189 v -2.91042 h 1.4552 c 1.11713,0 1.45521,0.0922 1.45521,0.39688 0,0.28663 -0.29398,0.39687 -1.05833,0.39687 -1.03314,0 -1.05833,0.022 -1.05833,0.92604 0,0.88195 0.0441,0.92604 0.92604,0.92604 0.50932,0 0.92604,0.11907 0.92604,0.26459 0,0.14552 -0.41672,0.26458 -0.92604,0.26458 -0.904,0 -0.92604,0.0252 -0.92604,1.05833 v 1.05834 h 1.19062 c 0.65484,0 1.19063,0.11906 1.19063,0.26458 0,0.14699 -0.70556,0.26458 -1.5875,0.26458 h -1.5875 z m 13.14097,2.73402 c -0.29063,-0.29062 -0.20677,-5.90902 0.0882,-5.90902 0.15881,0 0.26459,1.0611 0.26459,2.65413 0,2.11516 0.0806,2.68507 0.39687,2.80644 0.21828,0.0838 0.39688,0.25862 0.39688,0.38857 0,0.27418 -0.88596,0.32046 -1.14653,0.0599 z m -32.32327,-5.11527 c -0.1056,-0.17088 -0.0729,-0.42975 0.0726,-0.57528 0.17639,-0.17639 0.32859,-0.16102 0.4566,0.0461 0.10561,0.17088 0.073,0.42975 -0.0726,0.57527 -0.17639,0.17639 -0.3286,0.16102 -0.45661,-0.0461 z m -41.142705,-0.26459 c 0,-0.14552 0.178594,-0.26458 0.396875,-0.26458 0.218281,0 0.396875,0.11906 0.396875,0.26458 0,0.14553 -0.178594,0.26459 -0.396875,0.26459 -0.218281,0 -0.396875,-0.11906 -0.396875,-0.26459 z m 5.55625,0 c 0,-0.14552 0.178594,-0.26458 0.396875,-0.26458 0.218281,0 0.396875,0.11906 0.396875,0.26458 0,0.14553 -0.178594,0.26459 -0.396875,0.26459 -0.218281,0 -0.396875,-0.11906 -0.396875,-0.26459 z m 5.953125,-7.60818 c -1.10339,-0.19687 -1.9733,-0.66989 -2.38361,-1.29609 -0.570524,-0.87073 -0.57096,-3.09015 -7.94e-4,-3.96036 0.587064,-0.89597 2.257734,-1.60578 4.325014,-1.83754 1.84231,-0.20655 2.2524,-0.60487 1.49004,-1.44726 -0.61954,-0.68459 -2.51462,-0.6833 -4.02598,0.003 l -1.12447,0.51042 v -1.30259 -1.30259 l 1.49108,-0.43347 c 1.69866,-0.49382 4.04557,-0.41767 5.232,0.16976 0.42347,0.20967 1.01878,0.71693 1.32291,1.12725 0.50049,0.67524 0.56089,1.17108 0.63653,5.22552 l 0.0836,4.47949 h -1.60492 -1.60492 l -0.008,-0.8599 c -0.007,-0.71731 -0.0619,-0.79409 -0.33072,-0.46302 -0.82101,1.01093 -2.30613,1.60018 -3.49732,1.38765 z m 3.28809,-3.14312 c 0.69271,-0.88065 0.74435,-2.21595 0.0854,-2.20697 -1.71889,0.0234 -3.24115,0.84308 -3.24115,1.74515 0,1.24543 2.27727,1.57868 3.1558,0.46182 z m 24.89004,3.17719 c -0.21829,-0.035 -0.84591,-0.1369 -1.39472,-0.22652 -1.2112,-0.19781 -2.72282,-1.46421 -3.24797,-2.72109 -0.54601,-1.30677 -0.48535,-4.18332 0.11568,-5.48557 0.9018,-1.95394 2.69311,-3.04271 5.00606,-3.04271 2.89251,0 4.81261,2.02227 4.81261,5.0687 v 1.54589 h -3.43958 c -3.28867,0 -3.43958,0.0237 -3.43958,0.54119 0,0.29766 0.29224,0.83344 0.64943,1.19062 0.53427,0.53428 0.91111,0.64944 2.12516,0.64944 0.81166,0 1.88863,-0.17252 2.39328,-0.38338 l 0.91754,-0.38337 v 1.19062 c 0,1.09514 -0.069,1.21868 -0.85989,1.54037 -0.85769,0.34884 -2.88548,0.63635 -3.63802,0.51581 z m 2.23523,-6.95577 c 0.19285,-0.31204 -0.32109,-1.67071 -0.73043,-1.93099 -0.1728,-0.10988 -0.69249,-0.2016 -1.15487,-0.20382 -0.91875,-0.004 -1.93743,0.986 -1.93743,1.88371 0,0.43419 0.22065,0.49348 1.83646,0.49348 1.01006,0 1.90388,-0.10907 1.98627,-0.24238 z m 26.47206,6.85374 c -1.90663,-0.40707 -2.55764,-1.19688 -2.55764,-3.10295 0,-2.19923 1.10261,-3.07464 4.5724,-3.63022 1.1572,-0.18528 2.17088,-0.40376 2.25261,-0.48549 0.32875,-0.32875 -0.25029,-1.80169 -0.91425,-2.32565 -0.57234,-0.45166 -0.93071,-0.52775 -1.87829,-0.39879 -0.64405,0.0877 -1.56679,0.39289 -2.05052,0.6783 l -0.87952,0.51893 v -0.87465 c 0,-1.08418 0.73911,-1.49026 3.06594,-1.68446 1.20561,-0.10062 1.85735,-0.0174 2.59134,0.3309 1.65355,0.78466 1.86033,1.50013 1.87259,6.47939 l 0.0107,4.36563 -0.85989,0.0829 c -0.81078,0.0782 -0.8599,0.0338 -0.8599,-0.77711 v -0.86001 l -0.7276,0.69558 c -0.82857,0.79211 -2.46861,1.23737 -3.63802,0.98769 z m 2.81211,-1.73414 c 0.88787,-0.45913 1.55351,-1.76476 1.55351,-3.04712 v -0.83274 l -1.52135,0.17766 c -2.95461,0.34502 -3.77031,0.85566 -3.77031,2.36026 0,0.83639 1.13429,1.75639 2.16548,1.75639 0.42417,0 1.13186,-0.1865 1.57267,-0.41445 z m -75.704822,-6.0351 v -7.83795 l 3.505729,0.001 c 4.10228,0.002 5.282362,0.26703 6.469878,1.45455 0.706408,0.70641 0.87231,1.08112 0.87231,1.97024 0,1.44931 -0.561324,2.47235 -1.764551,3.21598 l -0.983631,0.60792 0.827664,0.21447 c 1.119611,0.29012 2.392516,1.61887 2.597484,2.71144 0.368231,1.96283 -0.568333,3.75547 -2.433858,4.65855 -1.119642,0.54201 -1.767221,0.63322 -5.185227,0.73032 l -3.905798,0.11095 z m 7.288067,4.4772 c 1.364192,-1.36419 0.538663,-3.1448 -1.60718,-3.46659 -2.027491,-0.30404 -2.09932,-0.23608 -2.186286,2.06837 l -0.07728,2.04765 h 1.610656 c 1.357302,0 1.712812,-0.10215 2.260087,-0.64943 z m -0.977939,-6.39033 c 1.452914,-1.01766 1.157726,-2.83549 -0.53443,-3.29114 -1.993252,-0.53673 -2.193329,-0.37905 -2.28156,1.79809 l -0.07774,1.91823 h 1.143344 c 0.62884,0 1.416513,-0.19133 1.750383,-0.42518 z m 21.203844,9.09028 c -1.27255,-0.86609 -1.81287,-1.73043 -2.11634,-3.38549 -0.56073,-3.05808 0.62136,-5.93928 2.83925,-6.92036 1.56711,-0.69321 3.51119,-0.55395 4.43935,0.31801 l 0.64437,0.60535 0.0746,-3.27932 0.0746,-3.27933 h 1.5875 1.5875 l 0.0699,8.26823 0.0699,8.26823 h -1.72356 -1.72356 v -0.82116 -0.82116 l -0.93525,0.82116 c -0.81685,0.7172 -1.1301,0.82116 -2.47441,0.82116 -1.16062,0 -1.7543,-0.14642 -2.41387,-0.59532 z m 5.43469,-3.1244 c 0.21386,-0.41355 0.38884,-1.41809 0.38884,-2.2323 0,-1.85056 -0.75169,-2.77923 -2.24957,-2.77923 -2.91925,0 -3.39718,5.55277 -0.52856,6.14112 0.88506,0.18152 1.97865,-0.33549 2.38929,-1.12959 z m 18.90967,-1.82391 v -5.56887 h 1.71979 1.7198 v 0.85262 0.85262 l 0.43145,-0.61599 c 0.93863,-1.34008 3.5324,-1.75812 5.07457,-0.81789 1.4067,0.85765 1.63773,1.79034 1.63773,6.61193 v 4.25446 l -1.65365,-0.0788 -1.65365,-0.0788 -0.13229,-3.9247 c -0.11769,-3.49164 -0.18896,-3.96604 -0.64588,-4.29947 -0.76029,-0.55482 -1.83181,-0.45558 -2.47516,0.22923 -0.51562,0.54885 -0.5742,0.94151 -0.64143,4.29948 l -0.074,3.69546 -1.65364,0.0788 -1.65365,0.0788 z m 14.3684,4.90532 -0.74236,-0.63831 v -7.62992 -7.62992 h 0.79375 0.79375 l 0.14283,7.40833 c 0.0785,4.07459 0.16785,7.4381 0.19844,7.47448 0.0306,0.0364 0.4128,0.0662 0.84936,0.0662 0.70556,0 0.79375,0.0882 0.79375,0.79375 0,0.74778 -0.0604,0.79375 -1.04358,0.79375 -0.72153,0 -1.27267,-0.19699 -1.78594,-0.63831 z m 16.17864,0.30469 c -0.0704,-0.18349 -0.0964,-3.9042 -0.0578,-8.26823 l 0.0702,-7.93461 h 0.79375 0.79375 l 0.13229,3.53477 0.13229,3.53476 0.52917,-0.59472 c 1.11823,-1.25676 3.62891,-1.71 5.14099,-0.92806 1.07731,0.55709 2.07463,1.84607 2.4221,3.13038 0.66119,2.44397 -0.29168,5.93847 -1.93916,7.11158 -0.84697,0.6031 -3.07844,0.94594 -4.24736,0.65257 -0.34773,-0.0873 -0.94854,-0.47499 -1.33513,-0.86159 l -0.7029,-0.70289 v 0.82983 c 0,0.74755 -0.0795,0.82983 -0.80205,0.82983 -0.44114,0 -0.85967,-0.15013 -0.93008,-0.33362 z m 6.50517,-1.39163 c 1.15505,-0.5973 1.84154,-2.15485 1.84154,-4.17821 0,-2.69986 -1.39861,-4.3039 -3.53173,-4.05047 -1.08892,0.12937 -2.1054,0.90526 -2.71111,2.06943 -0.49099,0.94367 -0.47544,3.74953 0.0266,4.80758 0.75899,1.59944 2.72241,2.20609 4.37467,1.35167 z"
         id="path1454"
         inkscape:connector-curvature="0" />
      <path
         style="fill:#0b0b0b;stroke-width:0.26458335"
         d="m 171.25156,149.30066 c -0.64496,-0.26024 -0.31911,-0.60297 0.4307,-0.453 1.01902,0.2038 1.8844,-0.2912 1.8844,-1.07789 0,-0.58439 -0.0546,-0.60856 -0.76704,-0.33963 -2.14389,0.80922 -3.22959,-2.61323 -1.2421,-3.91548 0.44308,-0.29031 0.86043,-0.36523 1.26858,-0.22771 0.33455,0.11271 0.81663,0.17463 1.07129,0.1376 0.41201,-0.0599 0.46302,0.19816 0.46302,2.34257 0,2.20589 -0.055,2.46489 -0.64943,3.05934 -0.61348,0.61347 -1.62901,0.80928 -2.45942,0.4742 z m 1.80333,-2.47991 c 0.38922,-0.20831 0.51177,-0.55813 0.51177,-1.46088 0,-1.00885 -0.0991,-1.23215 -0.66038,-1.48788 -0.54566,-0.24862 -0.7525,-0.21753 -1.19063,0.17897 -0.64796,0.5864 -0.69513,1.89377 -0.0924,2.55983 0.50401,0.55693 0.7232,0.58908 1.43159,0.20996 z m 2.09927,2.42142 c 0,-0.12855 0.23669,-0.29563 0.52598,-0.37128 1.03309,-0.27015 1.1124,-1.31551 0.25717,-3.38947 -0.90874,-2.20371 -0.88565,-2.09095 -0.42816,-2.09095 0.20407,0 0.55932,0.67488 0.83564,1.5875 0.26436,0.87313 0.55621,1.5875 0.64856,1.5875 0.0923,0 0.39261,-0.66107 0.66725,-1.46906 0.47618,-1.4009 0.81757,-1.9097 1.09512,-1.63215 0.23461,0.2346 -1.80997,5.08079 -2.34092,5.54861 -0.55777,0.49144 -1.26064,0.61929 -1.26064,0.2293 z m -82.219269,-1.79359 c -0.636582,-0.25687 -0.323813,-0.60391 0.411694,-0.45681 0.490715,0.0982 0.856126,0.0115 1.077786,-0.2556 0.284318,-0.34258 0.171323,-0.50763 -0.742424,-1.08446 -1.245804,-0.78644 -1.39151,-1.51431 -0.429337,-2.14475 0.721575,-0.47279 1.496508,-0.42943 1.670627,0.0935 0.08112,0.24363 -0.07073,0.29592 -0.526875,0.18143 -0.694823,-0.17439 -1.361498,0.35503 -1.049462,0.83339 0.100817,0.15456 0.540491,0.44934 0.977053,0.65507 1.005827,0.47399 1.167876,1.36033 0.353058,1.93104 -0.604179,0.42319 -1.123395,0.49686 -1.74212,0.2472 z m 5.922661,-0.37314 c -1.38914,-1.0927 -0.718498,-3.50043 1.071258,-3.84603 1.87238,-0.36154 2.98085,2.31504 1.55092,3.74496 -0.79367,0.79368 -1.697391,0.82851 -2.622178,0.10107 z m 2.083328,-0.34667 c 1.05528,-0.77164 0.42117,-3.07371 -0.84666,-3.07371 -0.575427,0 -1.404642,1.01526 -1.404642,1.71979 0,0.70453 0.829215,1.71979 1.404642,1.71979 0.19047,0 0.57147,-0.16464 0.84666,-0.36587 z m 9.5888,0.61644 c -0.64083,-0.38318 -0.6092,-1.74122 0.0487,-2.09334 0.28148,-0.15064 0.81023,-0.2739 1.17501,-0.2739 0.83666,0 1.04002,-0.3173 0.59416,-0.92705 -0.29783,-0.40729 -0.47094,-0.43296 -1.2019,-0.17814 -0.66274,0.23103 -0.82989,0.22517 -0.74645,-0.0262 0.21177,-0.63782 1.42818,-0.84142 2.16045,-0.36162 0.61478,0.40282 0.68196,0.61291 0.68196,2.13255 0,1.57231 -0.04,1.68557 -0.59531,1.68377 -0.32742,-0.001 -0.83344,0.0707 -1.12448,0.15941 -0.29104,0.0887 -0.73753,0.0367 -0.99219,-0.11552 z m 1.77094,-0.83861 c 0.57958,-0.82747 0.51944,-0.99946 -0.34948,-0.99946 -0.98274,0 -1.55785,0.62778 -1.09073,1.19063 0.46417,0.55928 0.96074,0.49337 1.44021,-0.19117 z m 7.30135,0.53815 c -0.78032,-0.83757 -0.72667,-2.4328 0.10996,-3.26943 0.70498,-0.70498 1.21908,-0.80086 2.01379,-0.37554 0.47101,0.25208 0.51178,0.17831 0.51178,-0.92604 0,-0.65996 0.11906,-1.19993 0.26458,-1.19993 0.16105,0 0.26458,1.19062 0.26458,3.04271 0,1.85208 -0.10353,3.0427 -0.26458,3.0427 -0.14552,0 -0.26458,-0.12581 -0.26458,-0.27958 0,-0.15671 -0.25844,-0.0986 -0.58804,0.13229 -0.80748,0.56558 -1.41071,0.51633 -2.04749,-0.16718 z m 2.15167,-0.38799 c 0.90206,-0.81636 0.41057,-3.0017 -0.6751,-3.0017 -0.75551,0 -1.32813,0.74148 -1.32813,1.71979 0,0.66372 0.16425,1.10814 0.50036,1.35392 0.64809,0.47389 0.91372,0.46116 1.50287,-0.072 z m 12.03733,0.79066 c -0.39062,-0.39062 -0.13553,-0.59596 0.56603,-0.45565 0.49072,0.0982 0.85613,0.0115 1.07779,-0.2556 0.28432,-0.34258 0.17132,-0.50763 -0.74243,-1.08446 -1.2458,-0.78644 -1.39151,-1.51431 -0.42933,-2.14475 0.72989,-0.47825 1.49697,-0.42803 1.67603,0.10972 0.0869,0.26107 -0.0364,0.30905 -0.45379,0.17657 -0.5621,-0.1784 -1.34152,0.22009 -1.34152,0.68587 0,0.12656 0.44648,0.43987 0.99218,0.69624 1.20196,0.56469 1.43189,1.40938 0.5515,2.02602 -0.61951,0.43393 -1.58351,0.55899 -1.89646,0.24604 z m 3.98341,-0.28785 c -0.50713,-0.56037 -0.66977,-3.7691 -0.19105,-3.7691 0.14552,0 0.26458,0.64634 0.26458,1.43631 0,0.95296 0.13992,1.57623 0.41578,1.85209 0.99061,0.99061 1.70089,0.25823 1.70089,-1.75381 0,-1.18769 0.0897,-1.53459 0.39687,-1.53459 0.31745,0 0.39688,0.39655 0.39688,1.98142 0,1.88187 -0.0299,1.98082 -0.59531,1.96972 -0.32743,-0.006 -0.8963,0.0633 -1.26416,0.15487 -0.47397,0.11802 -0.80161,0.0198 -1.12448,-0.33691 z m 4.5053,0.18564 c -0.64083,-0.38318 -0.6092,-1.74122 0.0488,-2.09334 0.28147,-0.15064 0.81022,-0.2739 1.175,-0.2739 0.83666,0 1.04002,-0.3173 0.59416,-0.92705 -0.29782,-0.40729 -0.47094,-0.43296 -1.2019,-0.17814 -0.66274,0.23103 -0.82989,0.22517 -0.74645,-0.0262 0.21177,-0.63782 1.42818,-0.84142 2.16045,-0.36162 0.61478,0.40282 0.68196,0.61291 0.68196,2.13255 0,1.57231 -0.04,1.68557 -0.59531,1.68377 -0.32742,-0.001 -0.83344,0.0707 -1.12448,0.15941 -0.29104,0.0887 -0.73753,0.0367 -0.99219,-0.11552 z m 1.77094,-0.83861 c 0.57958,-0.82747 0.51944,-0.99946 -0.34948,-0.99946 -0.98274,0 -1.55785,0.62778 -1.09073,1.19063 0.46417,0.55928 0.96074,0.49337 1.44021,-0.19117 z m 11.42777,0.56884 c -0.84677,-0.66607 -0.96108,-2.24207 -0.22825,-3.14707 0.53322,-0.6585 2.17715,-0.88566 2.37308,-0.32792 0.0867,0.24682 -0.0651,0.29577 -0.54419,0.17551 -0.82991,-0.20829 -1.76862,0.64033 -1.76862,1.59889 0,0.94159 0.93945,1.807 1.74272,1.60539 0.7037,-0.17662 0.88749,0.22683 0.22002,0.48297 -0.69465,0.26656 -1.0645,0.18665 -1.79476,-0.38777 z m 3.65646,-0.10107 c -1.86618,-1.86617 0.53694,-4.94035 2.59588,-3.32079 0.59033,0.46435 0.72343,0.78105 0.72343,1.72127 0,0.92962 -0.13468,1.25816 -0.69714,1.70059 -0.92478,0.72744 -1.82851,0.69261 -2.62217,-0.10107 z m 2.26098,-0.4089 c 0.29104,-0.29104 0.52917,-0.82682 0.52917,-1.19062 0,-0.72152 -0.83373,-1.71979 -1.43631,-1.71979 -0.6843,0 -1.20953,0.80675 -1.20953,1.85783 0,1.51123 1.10736,2.0619 2.11667,1.05258 z m 4.95676,0.53065 c -0.59032,-0.46435 -0.72343,-0.78106 -0.72343,-1.72127 0,-0.92962 0.13468,-1.25816 0.69714,-1.70059 0.92479,-0.72744 1.82851,-0.69261 2.62218,0.10106 1.86617,1.86617 -0.53694,4.94036 -2.59589,3.3208 z m 1.9398,-0.27537 c 1.03933,-0.55623 0.46418,-3.16569 -0.69775,-3.16569 -0.61783,0 -1.43631,1.00584 -1.43631,1.7651 0,0.77995 0.66725,1.67448 1.24903,1.67448 0.20529,0 0.60356,-0.12325 0.88503,-0.27389 z m -81.372719,0.2273 c -1.825692,-5.04984 -1.95992,-5.50966 -1.608371,-5.50966 0.222528,0 0.607383,0.71343 0.963417,1.78594 1.219306,3.67301 1.10282,3.63156 2.114873,0.75248 0.498792,-1.41896 1.041461,-2.53842 1.230521,-2.53842 0.423159,0 0.500431,-0.32547 -0.69097,2.91042 -0.660207,1.79314 -1.175311,2.80851 -1.452845,2.86382 -0.236493,0.0471 -0.486974,-0.0719 -0.556625,-0.26458 z m 4.008797,0.13478 c -0.285777,-0.28577 -0.204227,-3.79236 0.08819,-3.79236 0.149251,0 0.264583,0.74966 0.264583,1.7198 0,1.35231 0.0848,1.71979 0.396875,1.71979 0.218281,0 0.396875,0.11906 0.396875,0.26458 0,0.29559 -0.872056,0.36267 -1.146527,0.0882 z m 5.55625,0 c -0.285776,-0.28577 -0.204227,-3.79236 0.08819,-3.79236 0.149251,0 0.264583,0.74966 0.264583,1.7198 0,1.35231 0.0848,1.71979 0.396875,1.71979 0.218281,0 0.396875,0.11906 0.396875,0.26458 0,0.29559 -0.872056,0.36267 -1.146527,0.0882 z m 6.702782,-1.80502 c 0,-1.88859 0.0279,-1.9798 0.59531,-1.94702 0.32742,0.0189 0.90562,-0.0506 1.28488,-0.15439 1.11377,-0.30492 1.55939,0.37575 1.55939,2.38193 0,0.95754 -0.11564,1.70089 -0.26458,1.70089 -0.14553,0 -0.26459,-0.64634 -0.26459,-1.4363 0,-1.35913 -0.42408,-2.26786 -1.05833,-2.26786 -0.63426,0 -1.05833,0.90873 -1.05833,2.26786 0,1.10033 -0.0928,1.4363 -0.39688,1.4363 -0.31745,0 -0.39687,-0.39654 -0.39687,-1.98141 z m 11.37708,-0.0196 c 0,-1.75169 0.0577,-1.9937 0.46302,-1.94232 0.25466,0.0323 0.79524,-0.0339 1.20128,-0.14702 1.23391,-0.3438 1.77528,0.39161 1.77528,2.41157 0,0.9428 -0.11599,1.67878 -0.26458,1.67878 -0.14552,0 -0.26458,-0.64634 -0.26458,-1.4363 0,-0.95296 -0.13992,-1.57623 -0.41578,-1.85209 -0.49188,-0.49188 -0.52725,-0.4961 -1.18912,-0.14188 -0.41816,0.22379 -0.51177,0.56256 -0.51177,1.85208 0,1.22645 -0.0885,1.57819 -0.39688,1.57819 -0.31779,0 -0.39687,-0.39872 -0.39687,-2.001 z m 13.36551,1.68983 c -1.82519,-5.04844 -1.95984,-5.50965 -1.60862,-5.50965 0.2326,0 0.6817,0.93471 1.20769,2.51354 0.46056,1.38245 0.87383,2.51354 0.91837,2.51354 0.0445,0 0.47087,-1.13109 0.9474,-2.51354 0.49927,-1.44844 1.01273,-2.51354 1.21171,-2.51354 0.51925,0 -1.5589,5.66284 -2.11903,5.77424 -0.23698,0.0471 -0.48787,-0.0719 -0.55752,-0.26458 z m 4.0088,0.13478 c -0.28578,-0.28576 -0.20423,-3.79235 0.0882,-3.79235 0.14925,0 0.26458,0.74966 0.26458,1.7198 0,1.35231 0.0848,1.71979 0.39688,1.71979 0.21828,0 0.39687,0.11906 0.39687,0.26458 0,0.29559 -0.87205,0.36267 -1.14652,0.0882 z m 14.53629,-0.24212 c -0.0883,-0.23017 -0.1606,-1.60931 -0.1606,-3.06475 0,-1.9991 0.0809,-2.61942 0.33073,-2.53656 0.22879,0.0759 0.35397,0.93893 0.40613,2.80018 0.042,1.50016 0.18836,2.69049 0.33073,2.69049 0.14043,0 0.25533,0.11906 0.25533,0.26458 0,0.4316 -0.98784,0.30077 -1.16232,-0.15393 z m 4.33732,-2.49189 v -2.91042 h 1.4552 c 1.11713,0 1.45521,0.0922 1.45521,0.39688 0,0.28663 -0.29398,0.39687 -1.05833,0.39687 -1.03314,0 -1.05833,0.022 -1.05833,0.92604 0,0.88195 0.0441,0.92604 0.92604,0.92604 0.50932,0 0.92604,0.11907 0.92604,0.26459 0,0.14552 -0.41672,0.26458 -0.92604,0.26458 -0.904,0 -0.92604,0.0252 -0.92604,1.05833 v 1.05834 h 1.19062 c 0.65484,0 1.19063,0.11906 1.19063,0.26458 0,0.14699 -0.70556,0.26458 -1.5875,0.26458 h -1.5875 z m 13.14097,2.73402 c -0.29063,-0.29062 -0.20677,-5.90902 0.0882,-5.90902 0.15881,0 0.26459,1.0611 0.26459,2.65413 0,2.11516 0.0806,2.68507 0.39687,2.80644 0.21828,0.0838 0.39688,0.25862 0.39688,0.38857 0,0.27418 -0.88596,0.32046 -1.14653,0.0599 z m -32.32327,-5.11527 c -0.1056,-0.17088 -0.0729,-0.42975 0.0726,-0.57528 0.17639,-0.17639 0.32859,-0.16102 0.4566,0.0461 0.10561,0.17088 0.073,0.42975 -0.0726,0.57527 -0.17639,0.17639 -0.3286,0.16102 -0.45661,-0.0461 z m -41.142705,-0.26459 c 0,-0.14552 0.178594,-0.26458 0.396875,-0.26458 0.218281,0 0.396875,0.11906 0.396875,0.26458 0,0.14553 -0.178594,0.26459 -0.396875,0.26459 -0.218281,0 -0.396875,-0.11906 -0.396875,-0.26459 z m 5.55625,0 c 0,-0.14552 0.178594,-0.26458 0.396875,-0.26458 0.218281,0 0.396875,0.11906 0.396875,0.26458 0,0.14553 -0.178594,0.26459 -0.396875,0.26459 -0.218281,0 -0.396875,-0.11906 -0.396875,-0.26459 z m 5.953125,-7.60818 c -1.10339,-0.19687 -1.9733,-0.66989 -2.38361,-1.29609 -0.570524,-0.87073 -0.57096,-3.09015 -7.94e-4,-3.96036 0.587064,-0.89597 2.257734,-1.60578 4.325014,-1.83754 1.84231,-0.20655 2.2524,-0.60487 1.49004,-1.44726 -0.61954,-0.68459 -2.51462,-0.6833 -4.02598,0.003 l -1.12447,0.51042 v -1.30259 -1.30259 l 1.49108,-0.43347 c 1.69866,-0.49382 4.04557,-0.41767 5.232,0.16976 0.42347,0.20967 1.01878,0.71693 1.32291,1.12725 0.50049,0.67524 0.56089,1.17108 0.63653,5.22552 l 0.0836,4.47949 h -1.60492 -1.60492 l -0.008,-0.8599 c -0.007,-0.71731 -0.0619,-0.79409 -0.33072,-0.46302 -0.82101,1.01093 -2.30613,1.60018 -3.49732,1.38765 z m 3.28809,-3.14312 c 0.69271,-0.88065 0.74435,-2.21595 0.0854,-2.20697 -1.71889,0.0234 -3.24115,0.84308 -3.24115,1.74515 0,1.24543 2.27727,1.57868 3.1558,0.46182 z m 24.89004,3.17719 c -0.21829,-0.035 -0.84591,-0.1369 -1.39472,-0.22652 -1.2112,-0.19781 -2.72282,-1.46421 -3.24797,-2.72109 -0.54601,-1.30677 -0.48535,-4.18332 0.11568,-5.48557 0.9018,-1.95394 2.69311,-3.04271 5.00606,-3.04271 2.89251,0 4.81261,2.02227 4.81261,5.0687 v 1.54589 h -3.43958 c -3.28867,0 -3.43958,0.0237 -3.43958,0.54119 0,0.29766 0.29224,0.83344 0.64943,1.19062 0.53427,0.53428 0.91111,0.64944 2.12516,0.64944 0.81166,0 1.88863,-0.17252 2.39328,-0.38338 l 0.91754,-0.38337 v 1.19062 c 0,1.09514 -0.069,1.21868 -0.85989,1.54037 -0.85769,0.34884 -2.88548,0.63635 -3.63802,0.51581 z m 2.23523,-6.95577 c 0.19285,-0.31204 -0.32109,-1.67071 -0.73043,-1.93099 -0.1728,-0.10988 -0.69249,-0.2016 -1.15487,-0.20382 -0.91875,-0.004 -1.93743,0.986 -1.93743,1.88371 0,0.43419 0.22065,0.49348 1.83646,0.49348 1.01006,0 1.90388,-0.10907 1.98627,-0.24238 z m 26.47206,6.85374 c -1.90663,-0.40707 -2.55764,-1.19688 -2.55764,-3.10295 0,-2.19923 1.10261,-3.07464 4.5724,-3.63022 1.1572,-0.18528 2.17088,-0.40376 2.25261,-0.48549 0.32875,-0.32875 -0.25029,-1.80169 -0.91425,-2.32565 -0.57234,-0.45166 -0.93071,-0.52775 -1.87829,-0.39879 -0.64405,0.0877 -1.56679,0.39289 -2.05052,0.6783 l -0.87952,0.51893 v -0.87465 c 0,-1.08418 0.73911,-1.49026 3.06594,-1.68446 1.20561,-0.10062 1.85735,-0.0174 2.59134,0.3309 1.65355,0.78466 1.86033,1.50013 1.87259,6.47939 l 0.0107,4.36563 -0.85989,0.0829 c -0.81078,0.0782 -0.8599,0.0338 -0.8599,-0.77711 v -0.86001 l -0.7276,0.69558 c -0.82857,0.79211 -2.46861,1.23737 -3.63802,0.98769 z m 2.81211,-1.73414 c 0.88787,-0.45913 1.55351,-1.76476 1.55351,-3.04712 v -0.83274 l -1.52135,0.17766 c -2.95461,0.34502 -3.77031,0.85566 -3.77031,2.36026 0,0.83639 1.13429,1.75639 2.16548,1.75639 0.42417,0 1.13186,-0.1865 1.57267,-0.41445 z m -75.704822,-6.0351 v -7.83795 l 3.505729,0.001 c 4.10228,0.002 5.282362,0.26703 6.469878,1.45455 0.706408,0.70641 0.87231,1.08112 0.87231,1.97024 0,1.44931 -0.561324,2.47235 -1.764551,3.21598 l -0.983631,0.60792 0.827664,0.21447 c 1.119611,0.29012 2.392516,1.61887 2.597484,2.71144 0.368231,1.96283 -0.568333,3.75547 -2.433858,4.65855 -1.119642,0.54201 -1.767221,0.63322 -5.185227,0.73032 l -3.905798,0.11095 z m 7.288067,4.4772 c 1.364192,-1.36419 0.538663,-3.1448 -1.60718,-3.46659 -2.027491,-0.30404 -2.09932,-0.23608 -2.186286,2.06837 l -0.07728,2.04765 h 1.610656 c 1.357302,0 1.712812,-0.10215 2.260087,-0.64943 z m -0.977939,-6.39033 c 1.452914,-1.01766 1.157726,-2.83549 -0.53443,-3.29114 -1.993252,-0.53673 -2.193329,-0.37905 -2.28156,1.79809 l -0.07774,1.91823 h 1.143344 c 0.62884,0 1.416513,-0.19133 1.750383,-0.42518 z m 21.203844,9.09028 c -1.27255,-0.86609 -1.81287,-1.73043 -2.11634,-3.38549 -0.56073,-3.05808 0.62136,-5.93928 2.83925,-6.92036 1.56711,-0.69321 3.51119,-0.55395 4.43935,0.31801 l 0.64437,0.60535 0.0746,-3.27932 0.0746,-3.27933 h 1.5875 1.5875 l 0.0699,8.26823 0.0699,8.26823 h -1.72356 -1.72356 v -0.82116 -0.82116 l -0.93525,0.82116 c -0.81685,0.7172 -1.1301,0.82116 -2.47441,0.82116 -1.16062,0 -1.7543,-0.14642 -2.41387,-0.59532 z m 5.43469,-3.1244 c 0.21386,-0.41355 0.38884,-1.41809 0.38884,-2.2323 0,-1.85056 -0.75169,-2.77923 -2.24957,-2.77923 -2.91925,0 -3.39718,5.55277 -0.52856,6.14112 0.88506,0.18152 1.97865,-0.33549 2.38929,-1.12959 z m 18.90967,-1.82391 v -5.56887 h 1.71979 1.7198 v 0.85262 0.85262 l 0.43145,-0.61599 c 0.93863,-1.34008 3.5324,-1.75812 5.07457,-0.81789 1.4067,0.85765 1.63773,1.79034 1.63773,6.61193 v 4.25446 l -1.65365,-0.0788 -1.65365,-0.0788 -0.13229,-3.9247 c -0.11769,-3.49164 -0.18896,-3.96604 -0.64588,-4.29947 -0.76029,-0.55482 -1.83181,-0.45558 -2.47516,0.22923 -0.51562,0.54885 -0.5742,0.94151 -0.64143,4.29948 l -0.074,3.69546 -1.65364,0.0788 -1.65365,0.0788 z m 14.3684,4.90532 -0.74236,-0.63831 v -7.62992 -7.62992 h 0.79375 0.79375 l 0.14283,7.40833 c 0.0785,4.07459 0.16785,7.4381 0.19844,7.47448 0.0306,0.0364 0.4128,0.0662 0.84936,0.0662 0.70556,0 0.79375,0.0882 0.79375,0.79375 0,0.74778 -0.0604,0.79375 -1.04358,0.79375 -0.72153,0 -1.27267,-0.19699 -1.78594,-0.63831 z m 16.17864,0.30469 c -0.0704,-0.18349 -0.0964,-3.9042 -0.0578,-8.26823 l 0.0702,-7.93461 h 0.79375 0.79375 l 0.13229,3.53477 0.13229,3.53476 0.52917,-0.59472 c 1.11823,-1.25676 3.62891,-1.71 5.14099,-0.92806 1.07731,0.55709 2.07463,1.84607 2.4221,3.13038 0.66119,2.44397 -0.29168,5.93847 -1.93916,7.11158 -0.84697,0.6031 -3.07844,0.94594 -4.24736,0.65257 -0.34773,-0.0873 -0.94854,-0.47499 -1.33513,-0.86159 l -0.7029,-0.70289 v 0.82983 c 0,0.74755 -0.0795,0.82983 -0.80205,0.82983 -0.44114,0 -0.85967,-0.15013 -0.93008,-0.33362 z m 6.50517,-1.39163 c 1.15505,-0.5973 1.84154,-2.15485 1.84154,-4.17821 0,-2.69986 -1.39861,-4.3039 -3.53173,-4.05047 -1.08892,0.12937 -2.1054,0.90526 -2.71111,2.06943 -0.49099,0.94367 -0.47544,3.74953 0.0266,4.80758 0.75899,1.59944 2.72241,2.20609 4.37467,1.35167 z"
         id="path1452"
         inkscape:connector-curvature="0" />
    </g>
  </g>
</svg>
