<?xml version="1.0" encoding="UTF-8" standalone="no"?>
<!-- Created with Inkscape (http://www.inkscape.org/) -->

<svg
   xmlns:dc="http://purl.org/dc/elements/1.1/"
   xmlns:cc="http://creativecommons.org/ns#"
   xmlns:rdf="http://www.w3.org/1999/02/22-rdf-syntax-ns#"
   xmlns:svg="http://www.w3.org/2000/svg"
   xmlns="http://www.w3.org/2000/svg"
   xmlns:sodipodi="http://sodipodi.sourceforge.net/DTD/sodipodi-0.dtd"
   xmlns:inkscape="http://www.inkscape.org/namespaces/inkscape"
   version="1.1"
   id="svg2"
   width="297.60001"
   height="125.76"
   viewBox="0 0 297.60001 125.76"
   sodipodi:docname="Logo_Profund.svg"
   inkscape:version="0.92.4 (f8dce91, 2019-08-02)">
  <metadata
     id="metadata8">
    <rdf:RDF>
      <cc:Work
         rdf:about="">
        <dc:format>image/svg+xml</dc:format>
        <dc:type
           rdf:resource="http://purl.org/dc/dcmitype/StillImage" />
        <dc:title></dc:title>
      </cc:Work>
    </rdf:RDF>
  </metadata>
  <defs
     id="defs6" />
  <sodipodi:namedview
     pagecolor="#ffffff"
     bordercolor="#666666"
     borderopacity="1"
     objecttolerance="10"
     gridtolerance="10"
     guidetolerance="10"
     inkscape:pageopacity="0"
     inkscape:pageshadow="2"
     inkscape:window-width="1282"
     inkscape:window-height="856"
     id="namedview4"
     showgrid="false"
     inkscape:zoom="1.2096774"
     inkscape:cx="120.28"
     inkscape:cy="64.186666"
     inkscape:window-x="0"
     inkscape:window-y="27"
     inkscape:window-maximized="0"
     inkscape:current-layer="svg2"
     fit-margin-top="0"
     fit-margin-left="0"
     fit-margin-right="0"
     fit-margin-bottom="0" />
  <g
     id="g817">
    <path
       style="fill:#fcfcfc;stroke-width:0.31999999"
       d="M 0,62.88 V 0 h 148.8 148.80001 v 62.88 62.88 H 148.8 0 Z"
       id="path827"
       inkscape:connector-curvature="0" />
    <path
       style="fill:#8c90a9;stroke-width:0.31999999"
       d="m 115.39286,107.42195 c -2.21529,-2.2153 -0.99556,-5.83095 2.04714,-6.06832 1.1139,-0.0869 1.12054,-0.0966 1.21742,-1.780478 0.0884,-1.536717 0.16231,-1.683866 0.8,-1.593126 0.68152,0.09698 0.70526,0.238304 0.7917,4.714854 0.049,2.53818 -0.023,4.7219 -0.16,4.85271 -0.13701,0.13081 -1.06818,0.33759 -2.06927,0.45951 -1.66977,0.20337 -1.88682,0.15502 -2.62699,-0.58515 z m 2.99589,-1.48091 c 0.73313,-1.36988 0.29694,-3.22104 -0.75898,-3.22104 -1.00883,0 -1.46977,0.60213 -1.46977,1.92 0,1.80519 1.49262,2.67651 2.22875,1.30104 z m 4.90694,1.73797 c -0.8811,-0.61715 -1.50064,-2.49425 -1.24503,-3.77227 0.31689,-1.58445 1.3597,-2.46674 2.91553,-2.46674 1.54978,0 2.38788,0.71445 2.48825,2.12115 0.0641,0.89776 0.0251,0.92111 -1.69444,1.01718 -2.04577,0.1143 -2.43601,0.37749 -1.93838,1.30731 0.29263,0.5468 0.66143,0.67436 1.94964,0.67436 1.18193,0 1.58874,0.12003 1.58874,0.46874 0,1.09026 -2.79718,1.5378 -4.06431,0.65027 z M 125.44,103.04 c 0,-0.176 -0.2075,-0.32 -0.46111,-0.32 -0.25361,0 -0.55011,0.144 -0.65889,0.32 -0.10877,0.176 0.0987,0.32 0.46112,0.32 0.36239,0 0.65888,-0.144 0.65888,-0.32 z m 13.52,4.89036 c -0.29373,-0.10552 -0.4,-1.31687 -0.4,-4.5597 0,-4.309066 0.0174,-4.420689 0.72,-4.608967 1.27509,-0.341709 3.62052,-0.214243 4.22773,0.229763 0.94127,0.688275 0.28096,1.168544 -1.60661,1.168544 H 140.16 v 1.28 1.28 h 1.45005 c 1.03435,0 1.5064,0.14686 1.64663,0.51229 0.26159,0.6817 -0.43052,1.07682 -1.89668,1.08281 l -1.2,0.005 v 1.56082 c 0,1.5624 -0.44419,2.32107 -1.2,2.04954 z m 12.05539,-0.70575 c -0.79037,-0.79036 -0.93538,-1.1895 -0.93538,-2.57454 0,-1.31368 0.15596,-1.79513 0.78545,-2.42461 1.62943,-1.62943 4.83089,-0.65801 4.59393,1.39393 -0.0923,0.7989 -0.22105,0.86759 -1.79607,0.95791 -1.12203,0.0644 -1.75734,0.25539 -1.8758,0.56408 -0.31359,0.81722 0.53121,1.41862 1.99278,1.41862 1.63986,0 2.02205,0.40595 1.03386,1.09811 -1.16573,0.8165 -2.72692,0.63835 -3.79877,-0.4335 z m 2.58462,-4.18461 c 0,-0.176 -0.288,-0.32 -0.64,-0.32 -0.352,0 -0.64,0.144 -0.64,0.32 0,0.176 0.288,0.32 0.64,0.32 0.352,0 0.64,-0.144 0.64,-0.32 z m 8.48,4.7335 c -1.40578,-0.80621 -1.92441,-2.35124 -1.41209,-4.20669 0.39262,-1.42197 1.35373,-2.12681 2.90006,-2.12681 0.90596,0 1.34535,0.20313 1.86303,0.86124 0.3726,0.47369 0.63505,1.15769 0.58323,1.52 -0.0795,0.55545 -0.36031,0.67402 -1.79092,0.75606 -1.81479,0.10408 -2.38454,0.63367 -1.64299,1.52719 0.27572,0.33222 0.83515,0.46579 1.69181,0.40394 0.8717,-0.063 1.32708,0.0492 1.4279,0.35167 0.35467,1.06401 -2.22324,1.71446 -3.62003,0.9134 z m 2.08,-4.7335 c 0,-0.176 -0.288,-0.32 -0.64,-0.32 -0.352,0 -0.64,0.144 -0.64,0.32 0,0.176 0.288,0.32 0.64,0.32 0.352,0 0.64,-0.144 0.64,-0.32 z m 4.18853,4.82334 c -0.54479,-0.34358 -0.71812,-5.7149 -0.19485,-6.03836 0.17947,-0.11094 1.21907,-0.24894 2.31022,-0.30666 2.62406,-0.1388 3.04731,0.4149 2.9108,3.80795 -0.0871,2.16365 -0.15285,2.36199 -0.8147,2.45599 -0.68739,0.0976 -0.72,0.002 -0.72,-2.12082 0,-2.5169 -0.4364,-3.24418 -1.57955,-2.63239 -0.5502,0.29446 -0.66045,0.6619 -0.66045,2.20105 0,2.02185 -0.51216,3.09949 -1.25147,2.63324 z m 12.54005,-0.3156 c -1.2884,-0.80932 -1.41818,-1.33834 -1.30214,-5.30774 0.0864,-2.955482 0.14246,-3.2 0.73356,-3.2 0.59057,0 0.65235,0.266666 0.8,3.45266 0.17479,3.77184 0.3219,4.05363 2.12082,4.06244 1.5402,0.008 1.8601,-0.66426 2.03918,-4.28239 0.1468,-2.966044 0.21279,-3.23271 0.8,-3.23271 0.602,0 0.64,0.213334 0.64,3.59356 0,3.46465 -0.0306,3.62408 -0.85151,4.44424 -1.16716,1.16601 -3.51855,1.3879 -4.97991,0.46994 z m 21.42234,0.21226 c -0.58253,-0.71164 -2.36037,-5.66111 -2.15362,-5.99564 0.47789,-0.77324 1.2066,-0.21537 1.97978,1.51564 0.89317,1.99963 0.76946,2.0428 1.83407,-0.64 0.45014,-1.13435 1.20937,-1.55872 1.61486,-0.90263 0.10108,0.16355 -0.24631,1.47584 -0.77197,2.91619 -1.24082,3.39992 -1.74782,4.02912 -2.50312,3.10644 z m 5.635,-0.0894 c -1.78477,-0.96926 -1.90003,-4.53796 -0.18534,-5.73897 1.16059,-0.81292 2.95969,-0.63558 3.75042,0.36966 0.3726,0.47369 0.63505,1.15769 0.58323,1.52 -0.0807,0.56424 -0.35825,0.67253 -1.93423,0.75473 -1.50253,0.0784 -1.84,0.19868 -1.84,0.656 0,0.90826 0.67768,1.32803 2.144,1.32803 0.99509,0 1.376,0.12976 1.376,0.46874 0,1.08539 -2.3608,1.47449 -3.89408,0.64181 z m 2.13408,-4.63055 c -0.10878,-0.176 -0.40528,-0.32 -0.65889,-0.32 -0.25361,0 -0.46111,0.144 -0.46111,0.32 0,0.176 0.2965,0.32 0.65888,0.32 0.36239,0 0.56989,-0.144 0.46112,-0.32 z m 8.88,4.90807 c -0.22,-0.0888 -0.4,-0.45625 -0.4,-0.81661 0,-0.55849 0.1535,-0.63172 1.04,-0.49614 2.14459,0.32798 2.44886,-0.3917 0.5707,-1.34986 -1.9318,-0.98553 -2.38503,-2.11113 -1.2907,-3.20546 0.77933,-0.77933 3.23342,-0.89088 3.82837,-0.17402 0.63117,0.76053 0.0887,1.15391 -1.28769,0.93382 -1.0151,-0.16232 -1.26068,-0.10432 -1.26068,0.29774 0,0.27463 0.27612,0.58697 0.61361,0.69409 2.0542,0.65197 2.85246,2.4623 1.62639,3.68837 -0.61316,0.61316 -2.42313,0.83839 -3.44,0.42807 z m 10.34286,-0.29093 c -0.35336,-0.35335 -0.50286,-1.11745 -0.50286,-2.57004 0,-1.5423 -0.12188,-2.11395 -0.48,-2.25138 -0.60778,-0.23322 -0.61683,-0.8838 -0.0192,-1.37978 0.25343,-0.21033 0.50543,-0.69596 0.56,-1.07918 0.14126,-0.992059 1.34433,-0.943262 1.48632,0.0603 0.0591,0.41758 0.38193,0.82891 0.72,0.91732 0.8075,0.21117 0.78827,1.24512 -0.0271,1.45835 -0.54377,0.1422 -0.64,0.43648 -0.64,1.95732 0,1.57663 0.0763,1.78996 0.64,1.78996 0.41461,0 0.64,0.21333 0.64,0.60576 0,1.0201 -1.53179,1.33673 -2.37714,0.49138 z m 4.19283,0.0328 c -0.57386,-0.57386 -0.69396,-1.66492 -0.2588,-2.35117 0.1469,-0.23166 0.82869,-0.61428 1.5151,-0.85025 0.84403,-0.29017 1.24801,-0.61995 1.24801,-1.0188 0,-0.49643 -0.21521,-0.57367 -1.36,-0.48816 -1.01944,0.0762 -1.36,-0.0142 -1.36,-0.36081 0,-1.27511 2.68167,-1.74905 3.86044,-0.68228 0.51845,0.4692 0.61956,0.99646 0.61956,3.2311 0,2.55493 -0.0311,2.67055 -0.72,2.67392 -0.396,0.002 -1.23494,0.0887 -1.86431,0.19284 -0.83332,0.13785 -1.2899,0.0437 -1.68,-0.34639 z m 2.19747,-1.47126 c 0.34858,-0.56403 -0.0189,-0.6431 -0.67652,-0.14558 -0.5414,0.40959 -0.55062,0.46776 -0.0755,0.47669 0.29761,0.006 0.63603,-0.1434 0.75205,-0.33111 z m 4.8097,1.43843 c -0.35336,-0.35335 -0.50286,-1.11745 -0.50286,-2.57004 0,-1.5423 -0.12188,-2.11395 -0.48,-2.25138 -0.60777,-0.23322 -0.61683,-0.8838 -0.0192,-1.37978 0.25343,-0.21033 0.50543,-0.69596 0.56,-1.07918 0.13775,-0.967467 1.34353,-0.947986 1.48156,0.0239 0.0563,0.39638 0.38029,0.86945 0.72,1.05126 0.8028,0.42964 0.791,1.14806 -0.0223,1.36076 -0.54378,0.1422 -0.64,0.43648 -0.64,1.95732 0,1.57662 0.0763,1.78996 0.64,1.78996 0.41461,0 0.64,0.21333 0.64,0.60576 0,1.02009 -1.53179,1.33673 -2.37714,0.49138 z m 8.1484,-0.1161 c -0.1822,-0.34043 -0.33126,-2.27415 -0.33126,-4.29715 0,-4.541682 0.17476,-4.817612 2.92519,-4.618664 2.60213,0.188224 3.28219,0.85295 3.04337,2.974774 -0.12774,1.13498 -0.0447,1.78053 0.28568,2.22116 0.55139,0.73536 0.60103,1.88816 0.12,2.78697 -0.79782,1.49074 -5.36693,2.19612 -6.04298,0.93291 z m 4.30874,-2.25333 c 0,-0.93013 -0.14689,-1.16396 -0.89689,-1.42772 -1.09152,-0.38387 -1.9366,0.0515 -2.08842,1.07596 -0.19672,1.32746 0.15738,1.66851 1.62238,1.56259 1.3236,-0.0957 1.36293,-0.13064 1.36293,-1.21083 z m -0.45774,-3.39453 c 0.64551,-0.7778 -0.0283,-1.57318 -1.33275,-1.57318 -1.10938,0 -1.52089,0.59124 -1.12662,1.61869 0.23788,0.6199 1.93316,0.58853 2.45937,-0.0455 z m 5.19343,5.78583 c -0.88111,-0.61715 -1.50064,-2.49425 -1.24504,-3.77227 0.31689,-1.58445 1.3597,-2.46674 2.91553,-2.46674 1.54979,0 2.38788,0.71445 2.48825,2.12115 0.064,0.89673 0.0212,0.9227 -1.78051,1.07885 -1.01535,0.088 -1.86956,0.232 -1.89825,0.32 -0.0287,0.088 0.0326,0.484 0.13613,0.88 0.16417,0.62779 0.39703,0.72 1.81824,0.72 1.21812,0 1.62996,0.11844 1.62996,0.46874 0,1.09026 -2.79718,1.5378 -4.06431,0.65027 z m 2.30431,-4.63901 c -0.10878,-0.176 -0.40527,-0.32 -0.65889,-0.32 -0.25361,0 -0.46111,0.144 -0.46111,0.32 0,0.176 0.2965,0.32 0.65889,0.32 0.36238,0 0.56988,-0.144 0.46111,-0.32 z m 4.02953,4.67559 c -0.24203,-0.29163 -0.34236,-1.45818 -0.28245,-3.28395 l 0.0929,-2.83164 h 1.76 c 1.54262,0 1.76,0.0785 1.76,0.63562 0,0.38268 -0.25468,0.6829 -0.64,0.75443 -1.16439,0.21617 -1.44,0.7157 -1.44,2.60995 0,2.00596 -0.55799,2.94998 -1.25047,2.11559 z m -134.61338,-0.30234 c -0.0901,-0.23471 -0.12155,-1.63871 -0.07,-3.12 L 129.44,101.6 h 1.76 c 1.54263,0 1.76,0.0785 1.76,0.63562 0,0.38515 -0.25218,0.6795 -0.64,0.74699 -1.03653,0.18039 -1.44,1.02054 -1.44,2.99855 0,1.65508 -0.0712,1.85884 -0.65004,1.85884 -0.35752,0 -0.72373,-0.19204 -0.8138,-0.42675 z m 16.05808,-0.0794 c -0.27333,-0.71229 -0.23325,-5.02074 0.0507,-5.44586 0.12931,-0.19361 0.9551,-0.33761 1.8351,-0.32 1.40407,0.0281 1.61253,0.1202 1.70226,0.75203 0.083,0.58417 -0.0507,0.72 -0.70874,0.72 -1.07016,0 -1.47352,0.8264 -1.47352,3.01896 0,1.53415 -0.084,1.78104 -0.60576,1.78104 -0.33317,0 -0.69317,-0.22778 -0.8,-0.50617 z m 11.79099,0.10307 c -0.0951,-0.24772 -0.13062,-1.66236 -0.079,-3.14365 0.0853,-2.44865 0.15193,-2.69325 0.73381,-2.69325 0.59502,0 0.64,0.21333 0.64,3.03562 0,2.63864 -0.0734,3.04974 -0.56097,3.14365 -0.30854,0.0594 -0.63875,-0.0947 -0.73381,-0.34237 z m 32.04901,-0.10307 c -0.27341,-0.71251 -0.23321,-5.02344 0.0507,-5.43312 0.12993,-0.18751 1.23228,-0.33066 2.46432,-0.32 2.047,0.0177 2.26241,0.0847 2.63528,0.81929 0.41958,0.82663 0.56375,4.04132 0.22126,4.93383 -0.10683,0.27839 -0.46683,0.50617 -0.8,0.50617 -0.53034,0 -0.60576,-0.25137 -0.60576,-2.01884 0,-2.24815 -0.48511,-3.26331 -1.39296,-2.91493 -0.76966,0.29534 -1.16704,1.4376 -1.16704,3.3546 0,1.33609 -0.0933,1.57917 -0.60577,1.57917 -0.33317,0 -0.69317,-0.22778 -0.8,-0.50617 z m 7.80577,-2.49269 c 0,-3.10044 0.26003,-3.79485 1.14576,-3.05976 0.37034,0.30736 0.4571,1.01489 0.38598,3.14755 -0.0859,2.57698 -0.1373,2.75754 -0.81174,2.85333 -0.70337,0.0999 -0.72,0.0319 -0.72,-2.94112 z m 16.83423,2.49269 c -0.27333,-0.71229 -0.23324,-5.02074 0.0507,-5.44586 0.1293,-0.19361 0.9551,-0.33761 1.8351,-0.32 1.40406,0.0281 1.61252,0.1202 1.70225,0.75203 0.0835,0.58792 -0.05,0.72 -0.72792,0.72 -1.01875,0 -1.45433,0.96467 -1.45433,3.22083 0,1.33609 -0.0932,1.57917 -0.60577,1.57917 -0.33317,0 -0.69317,-0.22778 -0.8,-0.50617 z m 10.8991,0.29284 c -0.11733,-0.11734 -0.21333,-1.3957 -0.21333,-2.84082 0,-1.91003 0.12724,-2.73309 0.46598,-3.01422 0.87207,-0.72375 1.13402,-0.0199 1.13402,3.04726 0,2.71623 -0.0592,3.02111 -0.58667,3.02111 -0.32267,0 -0.68267,-0.096 -0.8,-0.21333 z M 268.80001,102.88 c 0,-4.653222 0.0375,-4.96 0.60576,-4.96 0.8791,0 0.99424,0.5744 0.99424,4.96 0,4.3856 -0.11514,4.96 -0.99424,4.96 -0.5683,0 -0.60576,-0.30678 -0.60576,-4.96 z m 3.84,1.93889 c 0,-3.06713 0.26194,-3.77101 1.13402,-3.04726 0.33006,0.27393 0.46598,1.06774 0.46598,2.72138 0,2.74997 -0.17735,3.34699 -0.99424,3.34699 -0.55157,0 -0.60576,-0.27025 -0.60576,-3.02111 z m 3.97615,2.59436 c -0.0901,-0.23471 -0.12154,-1.63617 -0.07,-3.11434 l 0.0938,-2.6876 1.76,-0.081 c 2.53206,-0.11649 3.085,0.0794 3.48802,1.23548 0.38044,1.09132 0.4722,3.74856 0.15774,4.56801 -0.10683,0.27839 -0.45142,0.50617 -0.76576,0.50617 -0.75285,0 -0.96,-0.62301 -0.96,-2.88729 0,-2.12115 -0.32249,-2.51436 -1.45407,-1.77291 -0.70067,0.45909 -0.78593,0.73979 -0.78593,2.58758 0,1.86996 -0.0636,2.07262 -0.65004,2.07262 -0.35753,0 -0.72374,-0.19204 -0.81381,-0.42675 z m -43.12183,-7.06707 c -0.24222,-0.631217 0.62064,-1.494074 1.25186,-1.251854 0.72087,0.276624 0.42756,1.526594 -0.38545,1.642594 -0.38429,0.0548 -0.76054,-0.11486 -0.86641,-0.39074 z m 2.20899,-0.0808 c -0.13781,-0.359142 -0.0235,-0.710787 0.31037,-0.954941 0.72683,-0.531462 1.48055,-0.17191 1.36324,0.650311 -0.12424,0.87072 -1.36941,1.09737 -1.67361,0.30463 z m -78.45852,-0.24171 c -0.29113,-0.758684 0.1208,-1.524908 0.75424,-1.402917 0.35425,0.06822 0.56097,0.399606 0.56097,0.899267 0,0.9122 -1.01001,1.29898 -1.31521,0.50365 z m 40.0996,0.25408 c -0.32086,-0.320863 -0.27725,-1.327295 0.0667,-1.539884 0.56215,-0.347427 1.34367,0.216925 1.2458,0.899613 -0.097,0.676261 -0.88978,1.063011 -1.31253,0.640271 z m 27.40181,-0.302543 c -0.10655,-0.277648 0.0508,-0.745648 0.3496,-1.04 0.50809,-0.500486 0.57282,-0.495392 0.99833,0.07856 0.3372,0.454819 0.36342,0.724119 0.10126,1.040003 -0.47929,0.5775 -1.21269,0.53774 -1.44919,-0.07856 z m 47.9384,0.07856 c -0.26215,-0.315923 -0.23593,-0.585223 0.10126,-1.040042 0.4141,-0.558553 0.50101,-0.568496 0.96634,-0.11056 0.55782,0.548954 0.35753,1.576852 -0.30725,1.576852 -0.22363,0 -0.56578,-0.19181 -0.76035,-0.42625 z m -79.15064,-5.229955 c -0.43306,-0.478532 -0.51013,-0.99473 -0.37518,-2.513034 0.2143,-2.411226 0.20793,-2.957062 -0.0488,-4.179488 -0.16283,-0.775414 -0.0396,-1.183952 0.57102,-1.893901 0.82376,-0.95767 1.71201,-1.108921 4.19228,-0.713853 1.51123,0.240717 1.7207,0.428212 1.27524,1.141498 -0.19095,0.305773 -0.44676,1.009274 -0.56845,1.563338 -0.26227,1.194092 -0.63229,1.540883 -2.29375,2.149756 l -1.24637,0.456756 1.38103,0.02256 c 1.96067,0.03201 2.61897,0.468873 2.61897,1.738025 0,1.553367 -1.17321,2.516474 -3.27805,2.691024 -1.35737,0.112563 -1.78841,0.02304 -2.22799,-0.462669 z m 3.0852,-1.055914 c 0.45146,-0.171645 0.82084,-0.531645 0.82084,-0.8 0,-0.699197 -2.41769,-0.680339 -2.68681,0.02096 -0.39958,1.041296 0.35147,1.354858 1.86597,0.779043 z m 0.0208,-5.92792 c 0,-0.809258 -0.12493,-0.96 -0.79562,-0.96 -0.5131,0 -0.83519,0.205488 -0.90707,0.578691 -0.18696,0.97081 0.20901,1.553411 0.98126,1.443754 0.56549,-0.0803 0.72143,-0.309952 0.72143,-1.062445 z m 62.76683,7.113818 c -0.59823,-0.43744 -0.64287,-0.812448 -0.38972,-3.273818 0.2307,-2.243139 0.23071,-2.147622 -3.2e-4,-3.114086 -0.4954,-2.07145 1.07952,-3.711114 3.18218,-3.313005 0.55062,0.104249 1.35056,0.257622 1.77763,0.340829 1.2004,0.233862 1.49764,0.70134 0.87993,1.383897 -0.29504,0.326019 -0.53644,0.877898 -0.53644,1.2264 0,1.01856 -0.70683,1.707098 -2.24398,2.185872 l -1.43602,0.44728 1.65715,0.02141 c 2.35404,0.0304 3.26766,1.173386 2.33337,2.919133 -0.73679,1.37671 -3.95761,2.101866 -5.22368,1.176093 z m 3.24197,-1.371962 c 1.05127,-0.736331 0.86884,-1.10187 -0.54987,-1.10187 -1.32361,0 -1.79562,0.357898 -1.49729,1.135325 0.23285,0.6068 1.1546,0.591731 2.0472,-0.03347 z m -0.26155,-5.086499 c 0.57727,-0.69551 0.10613,-1.775356 -0.77454,-1.775356 -0.82352,0 -1.2488,0.730006 -0.95836,1.645082 0.22503,0.709027 1.19228,0.78174 1.73294,0.130275 z M 130.08,91.857485 c -1.99904,-0.818192 -2.66266,-3.975389 -1.16965,-5.564631 1.42948,-1.521609 3.73236,-1.35494 4.49804,0.325546 0.67342,1.478 0.20794,2.0216 -1.73106,2.0216 -1.9617,0 -2.25807,0.239542 -1.54896,1.251939 0.40765,0.582013 0.74869,0.696733 1.81977,0.612151 1.04986,-0.08291 1.34052,0.0097 1.42827,0.454979 0.18286,0.927974 -1.86232,1.485376 -3.29641,0.898416 z m 1.52,-5.029415 c -0.22,-0.08877 -0.58,-0.08877 -0.8,0 -0.22,0.08877 -0.04,0.161405 0.4,0.161405 0.44,0 0.62,-0.07263 0.4,-0.161405 z m 10.28656,5.003773 c -3.88912,-1.197981 -4.33797,-6.999725 -0.67597,-8.737456 2.1286,-1.010086 5.43561,-0.45447 4.94255,0.830407 -0.15427,0.402035 -0.42486,0.443254 -1.41199,0.215084 -1.65638,-0.382857 -3.18438,0.146106 -3.78671,1.310884 -1.26735,2.450777 0.1971,5.250851 2.64056,5.048854 1.09444,-0.09048 1.21404,-0.192781 1.30344,-1.114944 0.0825,-0.850938 -0.0206,-1.032275 -0.63673,-1.12 -0.40434,-0.05757 -0.78221,-0.351526 -0.8397,-0.653238 -0.12458,-0.653796 1.13275,-1.062525 2.33799,-0.760029 0.75695,0.189984 0.8,0.319997 0.8,2.415808 0,1.218259 -0.14056,2.301894 -0.31237,2.408077 -0.58762,0.363168 -3.36647,0.462924 -4.36107,0.156553 z M 154.90674,91.606 c -1.3412,-1.086038 -1.35128,-6.166 -0.0122,-6.166 0.65874,0 0.75951,0.348202 0.64997,2.245869 -0.079,1.367846 0.45065,2.875923 1.00762,2.869232 1.01928,-0.01226 1.37099,-0.652899 1.52792,-2.783098 0.14035,-1.905337 0.23857,-2.172003 0.8,-2.172003 0.59508,0 0.64,0.213334 0.64,3.04 v 3.04 l -0.96,0.06708 c -0.528,0.0369 -1.39741,0.156752 -1.93202,0.266342 -0.69872,0.143232 -1.18268,0.02867 -1.72125,-0.407427 z m 16.00849,0.107555 c -1.56114,-0.865513 -2.09463,-3.17695 -1.15336,-4.997158 0.34569,-0.668503 0.86566,-1.036051 1.84,-1.300656 0.74697,-0.202858 1.53814,-0.419869 1.75814,-0.482243 0.24346,-0.06903 0.4,-0.673463 0.4,-1.54457 0,-1.606963 0.51984,-2.183802 1.16854,-1.296656 0.46926,0.641747 0.6296,8.635645 0.18656,9.30056 -0.38587,0.579104 -3.32852,0.803818 -4.19988,0.320723 z m 2.09941,-1.401661 c 0.52717,-0.335344 0.85302,-1.839385 0.60908,-2.81135 -0.17449,-0.695203 -0.36017,-0.804374 -1.2246,-0.72 -0.83832,0.08183 -1.07095,0.282016 -1.31242,1.129382 -0.46437,1.629559 0.75465,3.148308 1.92794,2.401968 z m 5.30537,1.36705 c -0.6495,-0.464781 -0.72,-0.78079 -0.72,-3.227133 0,-2.149065 0.10248,-2.751225 0.4938,-2.901385 0.76793,-0.294682 0.9342,0.08892 1.1062,2.55216 0.11866,1.699312 0.28402,2.312716 0.64,2.37399 1.03226,0.177683 1.43823,-0.50855 1.6,-2.704573 0.14035,-1.905337 0.23857,-2.172003 0.8,-2.172003 0.59508,0 0.64,0.213334 0.64,3.04 v 3.04 l -0.96,0.06708 c -0.528,0.0369 -1.392,0.152589 -1.92,0.257091 -0.62962,0.124614 -1.20779,0.01267 -1.68,-0.325232 z m 23.07274,0.175309 c -1.53676,-0.64713 -1.07477,-1.493517 0.73033,-1.338 1.53874,0.132569 1.56012,-0.458275 0.0468,-1.293075 -1.68845,-0.931402 -2.24128,-2.180282 -1.38431,-3.127229 1.15687,-1.278317 4.20654,-1.089792 3.94965,0.244157 -0.0793,0.411766 -0.38217,0.512908 -1.29931,0.433891 -0.89845,-0.0774 -1.1959,0.01709 -1.1959,0.37992 0,0.265625 0.27612,0.570595 0.61361,0.677709 1.11488,0.353846 2.26639,1.482806 2.26639,2.222003 0,1.402733 -2.1759,2.453897 -3.72726,1.800624 z m 11.07355,-0.03221 c -1.23046,-0.47056 -2.01648,-2.028807 -1.80788,-3.584042 0.21448,-1.599091 1.30528,-2.754454 2.83486,-3.002672 0.95803,-0.155465 1.31098,-0.03104 2.2228,0.78368 0.96146,0.859063 1.08393,1.151418 1.08393,2.587466 0,1.300371 -0.15744,1.77632 -0.8,2.418499 -0.92163,0.921078 -2.36066,1.245667 -3.53371,0.797069 z m 2.53005,-2.240349 c 0.85816,-1.534192 -0.79502,-3.571901 -2.05172,-2.528938 -0.56749,0.470983 -0.6137,2.590164 -0.0684,3.135504 0.59916,0.599162 1.60692,0.310839 2.12008,-0.606566 z m 10.06231,2.262125 c -1.56532,-0.645898 -2.31423,-3.375683 -1.39653,-5.090413 0.41064,-0.767293 2.11147,-1.633408 3.2076,-1.633408 0.55467,0 0.65028,-0.205952 0.65028,-1.400819 0,-1.476032 0.70302,-2.504163 1.30243,-1.904749 0.18722,0.187216 0.27921,2.2552 0.22644,5.090438 l -0.0889,4.77513 -0.8,0.04216 c -0.44,0.0232 -1.16,0.125165 -1.6,0.226608 -0.44,0.101443 -1.11561,0.05422 -1.50135,-0.10495 z M 227.13601,90.176 c 0.2112,-0.2112 0.384,-1.0752 0.384,-1.92 0,-1.468954 -0.0391,-1.536 -0.896,-1.536 -1.17278,0 -1.664,0.531706 -1.664,1.801142 0,1.598823 1.26783,2.563021 2.176,1.654858 z m 5.61824,1.681594 c -1.82303,-0.775293 -2.36609,-4.024087 -0.9482,-5.672477 1.57394,-1.829815 4.87138,-0.778317 4.60989,1.470013 -0.0892,0.766585 -0.22594,0.831651 -1.93593,0.920838 -1.53383,0.08 -1.84,0.19329 -1.84,0.680819 0,0.963936 0.82999,1.405799 2.22242,1.183143 1.40268,-0.224298 1.97381,0.220979 1.23328,0.96151 -0.58314,0.583136 -2.44517,0.837328 -3.34146,0.456154 z m 1.56576,-5.029524 c -0.22,-0.08877 -0.58,-0.08877 -0.8,0 -0.22,0.08877 -0.04,0.161405 0.4,0.161405 0.44,0 0.62,-0.07263 0.4,-0.161405 z m 9.68773,4.568752 c -0.77675,-0.776752 -0.8282,-1.006915 -0.74121,-3.315756 0.0843,-2.236573 0.15655,-2.481066 0.73348,-2.481066 0.55237,0 0.65136,0.240986 0.72295,1.76 0.12927,2.742717 0.3127,3.256934 1.12035,3.140774 0.95518,-0.137379 1.50633,-1.36975 1.51198,-3.380774 0.004,-1.433357 0.0936,-1.68 0.61048,-1.68 0.81564,0 0.99512,0.599776 0.98934,3.306173 -0.006,2.640342 -0.17516,3.041638 -1.27611,3.020931 -0.43944,-0.0083 -1.25745,0.09284 -1.81778,0.224691 -0.8518,0.200429 -1.1556,0.102906 -1.85348,-0.594973 z M 115.27122,87.28 l 0.0888,-4.56 1.97527,-0.09463 c 3.6549,-0.175091 5.54234,1.382793 5.54234,4.574627 0,3.188118 -1.69923,4.64 -5.4305,4.64 h -2.26468 z m 5.03846,2.489347 c 0.86247,-0.780534 1.11589,-2.72152 0.53639,-4.108454 -0.37425,-0.895693 -0.75125,-1.222669 -1.75724,-1.524071 C 116.93961,83.492899 116.8,83.691421 116.8,87.391574 v 3.251658 l 1.45299,-0.16377 c 0.79914,-0.09008 1.72465,-0.409628 2.05669,-0.710115 z m 4.63555,1.667555 c -0.0951,-0.247721 -0.13062,-1.662361 -0.079,-3.143651 C 124.95149,85.844602 125.01813,85.6 125.6,85.6 c 0.59503,0 0.64,0.213334 0.64,3.035616 0,2.638643 -0.0734,3.049747 -0.56096,3.143651 -0.30854,0.05942 -0.63875,-0.09465 -0.73381,-0.342365 z m 24.32,0 c -0.0951,-0.247721 -0.13062,-1.662361 -0.079,-3.143651 l 0.0938,-2.693251 1.37592,-0.183629 c 1.58026,-0.210899 2.52372,0.269674 2.19765,1.119418 -0.14066,0.366547 -0.4142,0.483664 -0.82507,0.353257 -0.85151,-0.270259 -1.12224,0.290004 -1.3085,2.707927 -0.12698,1.648265 -0.27579,2.098992 -0.72097,2.183651 -0.30854,0.05867 -0.63875,-0.096 -0.73381,-0.343722 z m 12.84901,-0.103075 c -0.28329,-0.73824 -0.22836,-5.02464 0.0704,-5.495229 0.14016,-0.220771 0.60596,-0.384556 1.0351,-0.363968 0.42914,0.02058 1.2387,-0.06687 1.79903,-0.194355 0.84694,-0.192691 1.15959,-0.09099 1.85348,0.602903 0.77676,0.776752 0.82821,1.006915 0.74121,3.315756 -0.0843,2.236573 -0.15654,2.481066 -0.73347,2.481066 -0.55237,0 -0.65136,-0.240986 -0.72296,-1.76 -0.11893,-2.523254 -0.326,-3.2 -0.97914,-3.2 -0.95824,0 -1.3379,0.691802 -1.3379,2.437827 0,2.059767 -0.22278,2.682173 -0.96,2.682173 -0.31434,0 -0.65894,-0.227776 -0.76577,-0.506173 z m 23.36,0 c -0.28329,-0.73824 -0.22836,-5.02464 0.0704,-5.495229 0.14017,-0.220771 0.60596,-0.384556 1.0351,-0.363968 0.42914,0.02058 1.2387,-0.06687 1.79903,-0.194355 0.84694,-0.192691 1.15959,-0.09099 1.85349,0.602903 0.77675,0.776752 0.8282,1.006915 0.7412,3.315756 -0.0843,2.236573 -0.15654,2.481066 -0.73347,2.481066 -0.55237,0 -0.65136,-0.240986 -0.72296,-1.76 -0.11893,-2.523254 -0.326,-3.2 -0.97914,-3.2 -0.92886,0 -1.33763,0.67729 -1.34227,2.224 -0.003,0.8008 -0.0912,1.78 -0.19733,2.176 -0.22194,0.828198 -1.23383,0.970166 -1.52407,0.213827 z m 21.56577,-1.832387 c 0,-1.727904 -0.13197,-2.492595 -0.48,-2.78144 -0.59784,-0.496163 -0.61958,-1.157965 -0.0453,-1.378342 0.2391,-0.09175 0.52754,-0.747303 0.641,-1.456788 0.12877,-0.805315 0.4731,-1.476864 0.91648,-1.78742 0.95556,-0.6693 3.08558,-0.659844 3.34448,0.01485 0.22253,0.579894 -0.48009,1.160563 -1.11985,0.925491 -0.74037,-0.272039 -1.65682,0.46 -1.65682,1.323427 0,0.549581 0.21038,0.873715 0.64,0.986064 0.82141,0.214803 0.82994,1.062963 0.0129,1.27664 -0.54285,0.141962 -0.63963,0.492771 -0.72,2.610042 -0.0858,2.260092 -0.14758,2.453811 -0.81285,2.548294 -0.69136,0.09819 -0.72,0.0075 -0.72,-2.280816 z m 11.71423,1.832387 c -0.27333,-0.712285 -0.23324,-5.020736 0.0507,-5.445862 0.3858,-0.577699 2.87204,-0.773613 3.29838,-0.259911 0.49018,0.590628 0.1253,1.466311 -0.56124,1.346957 -0.78566,-0.136582 -1.37181,1.218858 -1.37733,3.184989 -0.004,1.433357 -0.0936,1.68 -0.61048,1.68 -0.33317,0 -0.69317,-0.227776 -0.8,-0.506173 z m 19.56274,-2.270691 c -0.0953,-1.527274 -0.10562,-2.953101 -0.023,-3.168502 0.15524,-0.404544 2.50547,-0.78201 3.24291,-0.520836 0.56548,0.200276 0.34433,1.504064 -0.25692,1.51466 -0.95499,0.01683 -1.28005,0.525638 -1.28437,2.010428 -0.006,2.062548 -0.28914,2.941114 -0.94784,2.941114 -0.47396,0 -0.58356,-0.416458 -0.73082,-2.776864 z m 13.0389,2.074358 c -0.10284,-0.409766 -0.14399,-1.823334 -0.0914,-3.141264 l 0.0956,-2.39623 0.96,-0.04125 c 0.528,-0.02269 1.39738,-0.142563 1.93196,-0.266394 1.61435,-0.373945 2.46954,0.58696 2.6418,2.968384 0.18296,2.529392 -0.081,3.579258 -0.89986,3.579258 -0.65618,0 -0.74394,-0.295872 -0.64155,-2.16297 0.0945,-1.722684 -0.29732,-2.95703 -0.93859,-2.95703 -0.9405,0 -1.44396,0.937638 -1.61376,3.005414 -0.12376,1.50704 -0.28428,1.972093 -0.70857,2.052784 -0.35529,0.06757 -0.61445,-0.158166 -0.73556,-0.640704 z M 12.48,64.64 V 38.08 h 4.445764 c 4.991885,0 4.834237,-0.08063 4.834237,2.472589 v 1.460246 l 1.703479,-1.611078 c 3.042541,-2.877507 6.434939,-3.982925 10.196563,-3.322563 6.762112,1.187104 11.374295,6.606873 12.44048,14.61879 1.373491,10.321168 -4.276771,20.110851 -12.938407,22.417174 -3.349632,0.891904 -9.351118,0.319415 -10.442953,-0.996169 C 22.500523,72.855546 22.195268,72.64 22.040818,72.64 c -0.154449,0 -0.280817,3.948224 -0.280817,8.773827 0,4.825607 -0.08741,9.001607 -0.194237,9.28 C 21.401543,91.121782 20.684522,91.2 16.925764,91.2 H 12.48 Z m 19.060365,1.444982 c 2.651627,-1.553955 4.333591,-4.421641 4.95723,-8.451888 0.424157,-2.741097 0.05327,-6.108198 -0.923939,-8.387926 -2.536432,-5.917251 -8.898458,-6.334378 -12.875533,-0.844182 l -0.938122,1.29504 v 7.240784 c 0,7.94336 0.04987,8.176108 1.963873,9.165878 2.450396,1.267149 5.636369,1.259933 7.816491,-0.0177 z M 154.77334,84.586666 c -0.40537,-0.405373 -0.21149,-1.3189 0.32348,-1.524189 0.30019,-0.115194 0.7465,0.0037 1.01251,0.269705 0.39085,0.390845 0.40226,0.56418 0.064,0.971757 -0.43208,0.520631 -1.03943,0.643283 -1.39999,0.282727 z m 2.77286,-0.291479 c -0.10654,-0.277648 0.042,-0.740505 0.33005,-1.028573 0.47112,-0.471126 0.57317,-0.474342 1.01551,-0.032 0.27821,0.278205 0.4023,0.72488 0.28577,1.028573 -0.26054,0.678954 -1.37468,0.70081 -1.63133,0.032 z m 54.40001,0 c -0.10655,-0.277648 0.042,-0.740505 0.33004,-1.028573 0.48501,-0.485011 0.56251,-0.485011 1.04751,0 0.65424,0.654234 0.35395,1.533386 -0.52375,1.533386 -0.36305,0 -0.74726,-0.227165 -0.8538,-0.504813 z m 2.34713,0.291479 c -0.40537,-0.405373 -0.21149,-1.3189 0.32348,-1.524189 0.69356,-0.266141 1.46685,0.507155 1.20071,1.20071 -0.20529,0.534973 -1.11882,0.728851 -1.52419,0.323479 z M 124.91573,84 c -0.26233,-0.683603 0.0971,-1.44 0.68427,-1.44 0.67847,0 0.96205,0.859178 0.47662,1.444074 -0.50397,0.607244 -0.92688,0.60576 -1.16089,-0.0041 z M 87.360003,74.060774 C 78.47647,72.14593 72.892034,64.38911 73.351737,54.6032 c 0.30039,-6.394592 3.062877,-11.468566 8.044931,-14.776464 2.786247,-1.849965 4.998353,-2.485824 9.172721,-2.636662 3.335245,-0.120519 3.928925,-0.0529 6.184905,0.704406 3.172525,1.064982 5.360136,2.469395 7.504496,4.817792 6.21142,6.802413 6.47668,18.230246 0.5892,25.38391 -2.54288,3.08976 -5.947737,5.132512 -9.967987,5.980324 -2.736627,0.577113 -4.789552,0.572819 -7.52,-0.01574 z m 6.668787,-7.695187 c 1.957594,-0.97551 3.543287,-2.884317 4.582919,-5.516774 1.044502,-2.644794 1.02464,-7.740771 -0.04072,-10.446455 -1.04391,-2.6512 -3.734304,-5.338934 -5.884352,-5.878528 C 89.31913,43.678691 86.023603,45.733037 84.030256,49.92 83.101235,51.871379 83.04,52.227558 83.04,55.68 c 0,3.450758 0.0616,3.809571 0.988912,5.76 1.305369,2.74561 2.358109,3.936822 4.361427,4.93512 2.095799,1.044378 3.528384,1.041958 5.638448,-0.0095 z m 49.06022,7.726039 c -2.48689,-0.601658 -4.18164,-1.925872 -5.32499,-4.160756 L 136.8,68.046538 136.7082,52.94367 l -0.0918,-15.102867 0.73178,-0.196032 c 0.93403,-0.250214 7.22657,-0.256425 8.15278,-0.008 l 0.701,0.187987 0.099,13.384669 c 0.0963,13.01521 0.11754,13.409594 0.77063,14.287645 1.5158,2.037885 3.87483,1.13953 8.33297,-3.173315 l 2.9954,-2.897767 V 48.764246 c 0,-10.213417 0.026,-10.675641 0.61896,-10.992972 0.70665,-0.378186 7.98463,-0.446349 8.56049,-0.08017 0.44083,0.280314 0.74679,35.141789 0.31446,35.828912 -0.2647,0.420685 -7.96808,0.597043 -8.98774,0.205763 -0.39383,-0.151123 -0.50617,-0.683827 -0.50617,-2.4 0,-1.213168 -0.108,-2.202105 -0.24,-2.197638 -0.132,0.0045 -1.104,0.729177 -2.16,1.610457 -4.00144,3.339392 -8.32561,4.462397 -12.911,3.353044 z m 76.911,-0.132778 c -4.84894,-1.403053 -8.47781,-5.492611 -9.9728,-11.238848 -0.73266,-2.816067 -0.72005,-8.417939 0.0252,-11.2 0.94731,-3.53632 2.35972,-6.033638 4.8158,-8.514864 3.21243,-3.245338 6.35752,-4.684531 11.15072,-5.102563 2.52677,-0.220368 6.46694,0.433152 7.77367,1.289353 0.40969,0.268442 0.89204,0.488074 1.07189,0.488074 0.21455,0 0.35598,-3.714026 0.41126,-10.799683 l 0.0842,-10.799682 2.07557,-0.25604 c 1.14157,-0.140822 2.40236,-0.174022 2.80177,-0.07378 l 0.72619,0.182262 -0.0818,27.753461 -0.0818,27.753459 -2.3496,0.09462 c -2.82584,0.113792 -3.2504,-0.154474 -3.2504,-2.053799 0,-0.770451 -0.1242,-1.400819 -0.276,-1.400819 -0.1518,0 -0.8358,0.446538 -1.52,0.992304 -3.8821,3.09663 -8.92488,4.182592 -13.404,2.886544 z m 9.85463,-6.405613 c 1.27452,-0.646947 2.7894,-1.772365 3.74318,-2.780845 l 1.60219,-1.69408 v -7.715046 c 0,-8.433962 -0.0664,-8.794474 -1.90531,-10.341795 -2.05145,-1.726186 -7.25366,-1.934525 -10.66241,-0.427011 -0.99777,0.44126 -2.43021,1.43703 -3.1832,2.212816 -4.8815,5.029267 -4.97693,14.961942 -0.1896,19.73374 1.74867,1.743008 3.26099,2.291197 6.03734,2.188439 2.0083,-0.07433 2.77871,-0.273149 4.55781,-1.176218 z M 115.53126,73.301037 C 115.31763,72.901856 115.2,67.788704 115.2,58.901037 V 45.12 h -2.26103 c -3.35974,0 -3.49897,-0.132589 -3.49897,-3.332077 0,-1.787974 0.13618,-2.782576 0.41237,-3.011795 0.22681,-0.18823 1.40338,-0.500554 2.61461,-0.694048 1.21124,-0.193494 2.2997,-0.412042 2.41881,-0.485658 0.11912,-0.07362 0.30358,-1.974928 0.40993,-4.225136 0.21958,-4.646326 0.76428,-7.05369 2.20953,-9.765249 1.06368,-1.995671 3.45908,-4.388735 5.36767,-5.362423 4.68666,-2.390956 12.42995,-2.272947 18.33388,0.279412 0.83974,0.363032 1.60727,0.869758 1.70562,1.126059 0.0984,0.256302 -0.66071,1.923041 -1.6868,3.703866 -2.12637,3.690417 -1.7271,3.549379 -5.86562,2.071982 -4.31638,-1.540894 -7.38922,-0.703924 -9.13088,2.487031 -0.84198,1.542613 -0.93276,2.025741 -1.05386,5.608036 l -0.13252,3.92 h 3.09967 c 4.36538,0 4.33759,-0.02459 4.33759,3.84 0,3.861181 0.0237,3.84 -4.29896,3.84 H 125.12 v 13.781037 c 0,8.887667 -0.11762,14.000819 -0.33125,14.4 C 124.48648,73.865818 124.08129,73.92 120.16,73.92 c -3.92129,0 -4.32648,-0.05418 -4.62874,-0.618963 z m -63.469297,0.09426 c -0.12208,-0.122077 -0.221961,-8.102554 -0.221961,-17.734391 0,-15.673849 0.05314,-17.532822 0.506173,-17.706665 0.716508,-0.274951 6.619011,-0.232589 7.05912,0.05066 0.20312,0.13073 0.468624,1.620215 0.598054,3.355101 0.128019,1.716 0.339248,3.12 0.469402,3.12 0.13015,0 0.765536,-0.796576 1.411968,-1.770173 2.629315,-3.960035 4.358419,-5.269827 6.95689,-5.269827 1.452448,0 3.897965,1.209859 4.386358,2.170042 0.191472,0.376435 -0.114803,1.757523 -0.970697,4.377148 -1.424727,4.36066 -1.666512,4.777415 -2.509831,4.326087 C 69.42549,48.140973 68.532588,48 67.763209,48 65.61526,48 63.89646,49.420448 62.148616,52.64 l -0.868614,1.6 -0.16,9.6 -0.16,9.6 -4.338038,0.08863 C 54.23604,73.57738 52.18404,73.51737 52.061963,73.395297 Z m 122.871377,-0.0086 c -0.11733,-0.117319 -0.21333,-7.792519 -0.21333,-17.055987 0,-12.673184 0.0951,-16.937728 0.384,-17.226666 0.50966,-0.509664 4.80233,-0.509664 5.312,0 0.24048,0.240486 0.384,1.436445 0.384,3.2 0,1.5488 0.11291,2.816 0.25093,2.816 0.13801,0 1.03801,-0.799853 2,-1.777446 3.67663,-3.736285 7.10196,-5.332708 11.50907,-5.363956 1.496,-0.01062 3.27882,0.169248 3.96182,0.39968 1.74786,0.589687 3.5114,2.2989 4.39992,4.264397 0.75457,1.669165 0.75875,1.744922 0.85982,15.569632 0.0559,7.640768 0.0171,14.228768 -0.0861,14.64 -0.17675,0.70424 -0.3338,0.747693 -2.70238,0.747693 -1.68748,0 -2.62958,-0.138403 -2.8639,-0.420733 -0.23715,-0.28576 -0.37804,-4.851718 -0.43918,-14.232989 l -0.09,-13.812259 -0.85923,-0.85896 c -0.67004,-0.66984 -1.25294,-0.891609 -2.64748,-1.007254 -2.49285,-0.206727 -5.00347,1.078598 -8.92271,4.568035 -4.78015,4.255917 -4.37058,2.870006 -4.37058,14.789558 0,7.511802 -0.10139,10.307988 -0.384,10.590602 -0.40617,0.406166 -5.10103,0.552307 -5.48267,0.170666 z"
       id="path825"
       inkscape:connector-curvature="0" />
    <path
       style="fill:#bfcf2c;stroke-width:0.31999999"
       d="m 115.65009,107.09544 c -0.77378,-0.66557 -0.93009,-1.0452 -0.93009,-2.25884 0,-1.85037 0.86329,-2.79662 2.78544,-3.05315 L 118.88,101.6 l 0.0975,-1.700851 c 0.0656,-1.144208 0.22265,-1.659117 0.48,-1.573335 0.2723,0.09077 0.38255,1.410948 0.38255,4.580856 V 107.36 l -0.8,0.0606 c -0.44,0.0333 -1.17346,0.15379 -1.62991,0.26773 -0.62027,0.15484 -1.06487,0.005 -1.76,-0.59285 z m 2.98991,-0.80132 c 0.5097,-0.63258 0.52051,-3.00561 0.016,-3.51012 -0.52481,-0.52481 -2.0145,-0.48417 -2.4723,0.0674 -0.20607,0.24829 -0.45682,0.95771 -0.55724,1.57649 -0.14963,0.92207 -0.0346,1.27303 0.63772,1.94533 0.86662,0.86661 1.6344,0.84104 2.37582,-0.0791 z m 4.97569,1.06489 c -0.86007,-0.60242 -1.4708,-2.38863 -1.19391,-3.49185 0.27074,-1.07869 1.58455,-2.10716 2.69178,-2.10716 1.01109,0 1.92644,0.87866 1.92644,1.84923 0,0.60194 -0.2084,0.6897 -1.84,0.7748 -1.59858,0.0834 -1.85278,0.18559 -1.93741,0.77905 -0.14289,1.00191 1.39059,2.12002 2.55642,1.86396 1.06611,-0.23416 1.23297,0.32935 0.18099,0.61127 -1.12298,0.30095 -1.64282,0.24005 -2.38431,-0.2793 z m 2.56821,-3.88957 C 126.53978,103.11356 125.72317,102.4 124.96,102.4 c -0.76316,0 -1.57977,0.71356 -1.22389,1.06944 0.11581,0.11581 0.66656,0.21056 1.22389,0.21056 0.55734,0 1.10809,-0.0948 1.2239,-0.21056 z m 25.65611,4.00105 c -1.07174,-0.5862 -1.44,-1.28851 -1.44,-2.7462 0,-2.51919 2.55584,-3.92845 4.17967,-2.30462 1.11118,1.11119 0.69497,1.71846 -1.30245,1.90033 -1.60266,0.14593 -1.76569,0.23277 -1.8534,0.98739 -0.12998,1.1181 0.6934,1.72709 2.2789,1.68552 1.17895,-0.0309 1.24392,0.007 0.6975,0.4065 -0.71799,0.525 -1.68141,0.55175 -2.56022,0.0711 z m 2.24,-4.43049 c 0,-0.74983 -2.19751,-0.65515 -2.34312,0.10096 -0.0949,0.49283 0.0743,0.56564 1.11561,0.48 0.83291,-0.0685 1.22751,-0.25526 1.22751,-0.58096 z m 8.26091,4.48988 c -1.58077,-0.6643 -1.93665,-3.64323 -0.59546,-4.98442 0.77027,-0.77028 2.18991,-1.03249 2.92664,-0.54056 0.54513,0.36399 1.13973,1.65236 0.92382,2.00171 -0.10653,0.17237 -0.88756,0.31339 -1.73562,0.31339 -1.81147,0 -2.50019,0.55382 -1.95517,1.57221 0.51193,0.95655 1.50999,1.38039 2.67364,1.13538 0.7299,-0.15368 0.92709,-0.11582 0.69124,0.1327 -0.47838,0.50405 -2.11708,0.71082 -2.92909,0.36959 z m 2.29909,-4.48988 c 0,-0.74983 -2.19751,-0.65515 -2.34312,0.10096 -0.0949,0.49283 0.0743,0.56564 1.11561,0.48 0.83291,-0.0685 1.22751,-0.25526 1.22751,-0.58096 z m 16.90519,4.33352 c -1.4896,-0.64797 -1.74009,-1.38498 -1.63677,-4.81575 0.12415,-4.122557 0.70651,-4.092557 0.82233,0.0424 0.10357,3.69754 0.50479,4.40786 2.48973,4.40786 1.83089,0 2.19719,-0.66217 2.37952,-4.30156 0.19077,-3.807867 0.75697,-4.253502 0.90054,-0.70879 0.13693,3.38101 -0.3149,4.80401 -1.71054,5.38715 -1.33695,0.55861 -1.9395,0.55652 -3.24481,-0.0113 z m 26.87573,0.14425 c -0.96152,-0.38741 -1.38092,-1.29658 -1.38092,-2.99351 0,-1.17214 0.15579,-1.56035 0.84315,-2.10103 1.1692,-0.91969 2.47807,-0.85688 3.27574,0.15719 0.96865,1.23144 0.58246,1.6947 -1.50422,1.80446 -2.14793,0.11298 -2.49777,0.72111 -1.17549,2.0434 0.66273,0.66272 1.04421,0.80304 1.78203,0.65548 1.09299,-0.2186 1.28526,0.26875 0.21879,0.55455 -0.91082,0.24409 -1.19545,0.22742 -2.05908,-0.12054 z m 2.27667,-4.12151 c 0.2784,-0.45046 -0.67128,-1.05551 -1.47671,-0.94082 -0.40389,0.0575 -0.78237,0.35656 -0.84108,0.66456 -0.0853,0.44735 0.11949,0.56 1.01785,0.56 0.61852,0 1.20349,-0.12768 1.29994,-0.28374 z m 8.90241,4.24369 c -0.57302,-0.24823 -0.4962,-0.77678 0.0807,-0.5554 0.2644,0.10146 0.8404,0.0942 1.28,-0.0161 1.26537,-0.31759 1.01033,-1.30427 -0.56071,-2.16925 -1.5364,-0.84591 -1.97107,-2.01793 -1.00923,-2.72124 0.67348,-0.49246 2.56521,-0.55748 2.84923,-0.0979 0.1191,0.19272 -0.30527,0.32 -1.06688,0.32 -0.81481,0 -1.32856,0.16656 -1.44433,0.46823 -0.17067,0.44478 0.0908,0.70713 2.17956,2.18671 0.88861,0.62946 1.0545,1.54515 0.38115,2.10398 -0.52037,0.43187 -2.13595,0.72082 -2.6895,0.48103 z m 10.02286,-0.30281 c -0.3495,-0.3495 -0.50286,-1.11071 -0.50286,-2.496 0,-1.09622 -0.15583,-2.14896 -0.34627,-2.33941 -0.23754,-0.23754 -0.24488,-0.53397 -0.0234,-0.944 0.1776,-0.32875 0.42267,-0.88573 0.5446,-1.23773 0.20326,-0.586771 0.25409,-0.56441 0.61118,0.26887 0.21422,0.49987 0.59297,1.04251 0.84167,1.20585 0.37826,0.24844 0.36063,0.35094 -0.10782,0.62704 -0.43965,0.25911 -0.56,0.76562 -0.56,2.35682 0,1.83004 0.0699,2.04593 0.72,2.22409 0.60062,0.1646 0.64041,0.24956 0.24,0.51242 -0.65273,0.4285 -0.83338,0.40582 -1.41714,-0.17795 z m 4.18675,0.10026 c -1.05216,-0.77212 -0.56792,-1.90872 1.07039,-2.51241 1.2483,-0.45999 1.44,-0.65272 1.44,-1.44781 0,-0.87803 -0.0591,-0.91449 -1.38514,-0.8541 -1.17617,0.0536 -1.32716,-0.007 -1.00082,-0.4 0.55093,-0.66383 2.34045,-0.58056 2.99184,0.13922 0.42474,0.46934 0.524,1.08155 0.4496,2.7731 -0.0903,2.05367 -0.13864,2.17476 -0.89548,2.24443 -0.44,0.0405 -1.088,0.1675 -1.44,0.28223 -0.35721,0.11642 -0.90087,0.0172 -1.23039,-0.22466 z m 2.61847,-1.6596 c 0.0844,-0.42593 -0.0842,-0.52291 -0.76773,-0.44176 -1.10317,0.13095 -1.80028,1.10508 -1.10224,1.54023 0.58259,0.36318 1.71187,-0.30019 1.86997,-1.09847 z m 4.39478,1.55934 c -0.3495,-0.3495 -0.50286,-1.11071 -0.50286,-2.496 0,-1.09622 -0.15583,-2.14896 -0.34627,-2.33941 -0.23754,-0.23754 -0.24488,-0.53397 -0.0234,-0.944 0.1776,-0.32875 0.4044,-0.85886 0.50401,-1.17801 0.24601,-0.788299 0.82562,-0.36767 0.82562,0.59917 0,0.48099 0.18443,0.78111 0.48,0.78111 0.264,0 0.48,0.1286 0.48,0.28576 0,0.15717 -0.216,0.36865 -0.48,0.46996 -0.70334,0.2699 -0.6855,4.21695 0.0203,4.48778 0.27515,0.10559 0.41065,0.337 0.30111,0.51424 -0.28242,0.45696 -0.6777,0.40024 -1.25854,-0.1806 z m 17.30715,0.14045 c -0.84936,-0.49372 -1.51778,-2.29875 -1.28404,-3.46747 0.53163,-2.65813 4.59403,-3.01263 4.59403,-0.40089 0,0.60179 -0.20847,0.68972 -1.83689,0.7748 -2.17204,0.11348 -2.53249,0.71569 -1.21622,2.03196 0.66579,0.66578 1.01999,0.78942 1.78203,0.62205 1.10494,-0.24269 1.31738,0.30915 0.23108,0.60027 -1.02021,0.27341 -1.5929,0.23286 -2.26999,-0.16072 z m 2.45388,-4.00815 c 0.35588,-0.35588 -0.46073,-1.06944 -1.22389,-1.06944 -0.76317,0 -1.57978,0.71356 -1.22389,1.06944 0.11581,0.11581 0.66655,0.21056 1.22389,0.21056 0.55733,0 1.10808,-0.0948 1.22389,-0.21056 z m -130.83576,3.31723 c -0.10123,-0.40334 -0.13997,-1.58547 -0.0861,-2.62697 l 0.0979,-1.89363 1.25713,-0.2599 c 0.78327,-0.16194 1.38035,-0.1367 1.584,0.067 0.2225,0.22249 0.10787,0.32687 -0.35898,0.32687 -1.07183,0 -1.68215,1.18686 -1.68215,3.2712 0,1.85196 -0.46623,2.49255 -0.81186,1.11547 z M 138.88,103.36 V 99.2 h 2.25889 c 1.42444,0 2.18583,0.118211 2.06111,0.32 -0.10877,0.176 -0.89366,0.32 -1.74419,0.32 -1.38264,0 -1.56769,0.08473 -1.74721,0.8 -0.11044,0.44 -0.11044,1.16 0,1.6 0.17604,0.70141 0.37397,0.8 1.6061,0.8 0.77291,0 1.4053,0.144 1.4053,0.32 0,0.176 -0.5675,0.32 -1.26111,0.32 -0.69361,0 -1.35391,0.15014 -1.46732,0.33364 -0.16774,0.27142 -0.33522,1.47246 -0.45548,3.26636 -0.009,0.132 -0.16009,0.24 -0.33609,0.24 -0.19692,0 -0.32,-1.6 -0.32,-4.16 z m 6.98437,1.55844 c -0.0619,-1.54227 0.0259,-2.64786 0.21563,-2.71527 0.78275,-0.27815 2.3653,-0.25347 2.36184,0.0368 -0.002,0.176 -0.19952,0.28018 -0.43872,0.2315 -0.80067,-0.16291 -1.44312,1.26153 -1.44312,3.1997 0,2.82472 -0.57717,2.20015 -0.69563,-0.75276 z m 11.71765,2.19009 c -0.3312,-0.8631 0.002,-4.81234 0.41799,-4.94969 0.29774,-0.0984 0.4,0.52423 0.4,2.43561 0,2.36606 -0.40139,3.59972 -0.81799,2.51408 z m 10.73799,-2.30495 c 0,-2.60391 0.0298,-2.71638 0.72,-2.71567 0.396,3.2e-4 1.24732,-0.0875 1.89183,-0.19531 1.66302,-0.27822 2.25466,0.6787 2.12426,3.43579 -0.12682,2.68126 -0.71058,2.61036 -0.83009,-0.10082 -0.10338,-2.34552 -0.54198,-3.01843 -1.76699,-2.71097 -0.9734,0.2443 -1.49901,1.44295 -1.49901,3.41846 0,0.87171 -0.144,1.58494 -0.32,1.58494 -0.18821,0 -0.32,-1.11881 -0.32,-2.71642 z m 21.44,0 c 0,-2.60562 0.0294,-2.71614 0.72,-2.70986 0.396,0.004 1.18931,-0.0866 1.76293,-0.20034 0.63126,-0.12522 1.22326,-0.0572 1.49977,0.17226 0.53275,0.44215 0.98145,3.47675 0.68735,4.64856 -0.38544,1.53571 -0.83005,0.80177 -0.83005,-1.3702 0,-2.24904 -0.31727,-2.944 -1.344,-2.944 -1.18998,0 -1.856,1.14831 -1.856,3.2 0,1.06667 -0.14222,1.92 -0.32,1.92 -0.18821,0 -0.32,-1.11881 -0.32,-2.71642 z m 7.68,-0.0302 c 0,-2.05437 0.10082,-2.71341 0.4,-2.61472 0.43547,0.14365 0.7239,3.38477 0.41186,4.62806 -0.40641,1.61925 -0.81186,0.61377 -0.81186,-2.01335 z m 4.62367,1.62666 c -0.25502,-0.616 -0.67967,-1.64159 -0.94367,-2.27908 -0.54283,-1.31079 -0.61336,-2.04092 -0.19717,-2.04092 0.15556,0 0.60428,0.792 0.99717,1.76 0.39288,0.968 0.88731,1.76 1.09872,1.76 0.21142,0 0.63405,-0.792 0.93919,-1.76 0.30514,-0.968 0.69143,-1.76 0.85844,-1.76 0.44291,0 0.39928,0.22746 -0.56773,2.96 -0.49375,1.39522 -1.06215,2.48 -1.29946,2.48 -0.232,0 -0.63047,-0.504 -0.88549,-1.12 z m 12.33633,-1.6 c 0,-2.98905 -0.19091,-2.72717 2.08,-2.85333 0.264,-0.0147 0.47055,0.11733 0.45901,0.29333 -0.0115,0.176 -0.2167,0.28018 -0.4559,0.2315 -0.80067,-0.16291 -1.44311,1.26153 -1.44311,3.1997 0,1.0192 -0.14359,1.8488 -0.32,1.8488 -0.18824,0 -0.32,-1.12 -0.32,-2.72 z m 10.88,0 c 0,-1.6 0.13176,-2.72 0.32,-2.72 0.18823,0 0.32,1.12 0.32,2.72 0,1.6 -0.13177,2.72 -0.32,2.72 -0.18824,0 -0.32,-1.12 -0.32,-2.72 z m 23.56884,-0.93402 c -0.11478,-2.00971 -0.12132,-3.881708 -0.0145,-4.159999 0.29734,-0.774858 3.99945,-0.712675 4.71609,0.07922 0.61953,0.684569 0.68333,1.737319 0.15641,2.581049 -0.30486,0.48817 -0.24627,0.75891 0.32,1.47882 0.86656,1.10164 0.87352,1.75937 0.03,2.83177 -0.59989,0.76265 -0.87024,0.84316 -2.83123,0.84316 h -2.168 z m 3.52381,2.994 c 2.36127,-0.89775 1.51486,-3.49998 -1.13841,-3.49998 -1.36875,0 -1.63424,0.33177 -1.63424,2.04217 0,1.69586 0.9008,2.16949 2.77265,1.45781 z m 0.24449,-4.64284 c 0.7099,-0.7099 0.62405,-1.61596 -0.20834,-2.199 -0.84906,-0.594697 -1.89501,-0.643935 -2.4248,-0.11414 -0.40824,0.40823 -0.52866,2.24468 -0.17067,2.60267 0.40673,0.40673 2.30341,0.21088 2.80381,-0.28953 z m 11.58749,5.08083 c -0.11254,-0.11255 -0.20463,-1.33264 -0.20463,-2.7113 0,-2.38488 0.035,-2.50688 0.72,-2.51104 0.396,-0.003 1.044,-0.0912 1.44,-0.19732 0.52502,-0.1407 0.72,-0.0556 0.72,0.31432 0,0.30269 -0.1802,0.43813 -0.4468,0.33583 -0.75428,-0.28945 -1.4732,1.15691 -1.4732,2.96386 0,1.57221 -0.29165,2.26937 -0.75537,1.80565 z m 4.91537,-4.41797 c 0,-2.88 0.12138,-4.64 0.32,-4.64 0.19862,0 0.32,1.76 0.32,4.64 0,2.88 -0.12138,4.64 -0.32,4.64 -0.19862,0 -0.32,-1.76 -0.32,-4.64 z m 3.84,1.92 c 0,-1.6 0.13176,-2.72 0.32,-2.72 0.18824,0 0.32,1.12 0.32,2.72 0,1.6 -0.13176,2.72 -0.32,2.72 -0.18824,0 -0.32,-1.12 -0.32,-2.72 z m 3.98202,2.30853 c -0.0954,-0.24861 -0.13039,-1.44574 -0.0777,-2.66028 0.0907,-2.09254 0.13764,-2.21228 0.89572,-2.2852 0.44,-0.0423 1.26932,-0.16685 1.84293,-0.27675 0.60509,-0.11592 1.22622,-0.0477 1.47951,0.16253 0.53759,0.44616 0.91629,3.07754 0.641,4.45399 -0.33453,1.6726 -0.76344,1.15356 -0.76344,-0.92386 0,-2.31729 -0.38845,-3.17896 -1.43311,-3.17896 -1.11717,0 -1.76689,1.13712 -1.76689,3.09232 0,1.61823 -0.46479,2.5366 -0.81798,1.61621 z m -43.02202,-7.08186 c 0,-0.27867 0.228,-0.50667 0.50666,-0.50667 0.5651,0 0.46669,0.68888 -0.12666,0.88667 -0.209,0.0697 -0.38,-0.10134 -0.38,-0.38 z m 2.24,0 c 0,-0.27867 0.228,-0.50667 0.50666,-0.50667 0.27867,0 0.44967,0.170998 0.38,0.38 -0.19778,0.59335 -0.88666,0.69176 -0.88666,0.12667 z m -78.72,-0.50667 c 0,-0.176 0.216,-0.32 0.48,-0.32 0.264,0 0.48,0.144 0.48,0.32 0,0.176 -0.216,0.32 -0.48,0.32 -0.264,0 -0.48,-0.144 -0.48,-0.32 z m 40,0 c 0,-0.176 0.216,-0.32 0.48,-0.32 0.264,0 0.48,0.144 0.48,0.32 0,0.176 -0.216,0.32 -0.48,0.32 -0.264,0 -0.48,-0.144 -0.48,-0.32 z m 27.68,0 c 0.10877,-0.176 0.33327,-0.32 0.49888,-0.32 0.16562,0 0.30112,0.144 0.30112,0.32 0,0.176 -0.2245,0.32 -0.49889,0.32 -0.27439,0 -0.40989,-0.144 -0.30111,-0.32 z m 47.84,0 c 0,-0.176 0.144,-0.32 0.32,-0.32 0.176,0 0.32,0.144 0.32,0.32 0,0.176 -0.144,0.32 -0.32,0.32 -0.176,0 -0.32,-0.144 -0.32,-0.32 z m -78.78497,-4.69769 c -0.63766,-0.167846 -1.04318,-1.203718 -0.69302,-1.770288 0.13383,-0.21654 0.21154,-0.810761 0.1727,-1.320496 -0.0388,-0.509734 0.086,-1.11551 0.27744,-1.346172 0.2551,-0.307383 0.21269,-0.681156 -0.15884,-1.399607 -0.63199,-1.222137 -0.35159,-2.518243 0.64284,-2.971331 0.77463,-0.352947 4.30385,-0.07036 4.30385,0.344611 0,0.128135 -0.13292,0.369773 -0.29538,0.536973 -0.16246,0.1672 -0.34246,0.731459 -0.4,1.253907 -0.10935,0.992778 -0.89445,1.576707 -2.58462,1.922333 -1.514,0.3096 -1.09248,1.12776 0.58103,1.12776 2.41834,0 3.26514,0.904179 2.38572,2.547379 -0.51799,0.967875 -2.61488,1.500522 -4.23172,1.074931 z m 3.25771,-1.055052 c 0.7665,-0.766506 0.53882,-1.541968 -0.53164,-1.810634 -1.47652,-0.370582 -2.99234,0.798634 -2.54538,1.963376 0.27535,0.717571 2.30759,0.616691 3.07702,-0.152742 z M 196.73601,88.896 c 0.61859,-0.618589 0.46564,-2.109789 -0.256,-2.496 -1.29526,-0.693203 -2.65082,0.874464 -1.92647,2.227914 0.38575,0.72078 1.58274,0.867814 2.18247,0.268086 z m 63.0315,5.820781 c -0.46168,-0.284269 -0.52334,-0.666999 -0.37513,-2.328483 0.22305,-2.500391 0.21685,-3.018042 -0.0517,-4.320922 -0.30856,-1.496826 0.49939,-2.319485 2.22895,-2.269517 1.92158,0.05552 3.3132,0.403527 2.8304,0.707811 -0.22,0.138656 -0.4,0.675604 -0.4,1.193216 0,1.197639 -1.01413,2.221114 -2.20082,2.221114 -0.92226,0 -1.81878,0.673734 -1.42307,1.069443 0.11581,0.115805 0.89627,0.210557 1.73437,0.210557 2.40185,0 3.17248,1.151805 1.80952,2.704582 -0.81054,0.923412 -3.20974,1.392679 -4.1525,0.812199 z m 3.2013,-0.814925 c 0.88768,-0.621757 0.92163,-1.631939 0.064,-1.904138 -1.67445,-0.531449 -3.74196,0.875018 -2.85584,1.942736 0.5019,0.604743 1.90094,0.585399 2.79183,-0.0386 z m -0.15396,-5.292326 c 0.45339,-0.724618 0.0267,-2.103098 -0.71064,-2.29592 -1.40206,-0.366647 -2.56198,1.580608 -1.54645,2.596144 0.52255,0.522544 1.85302,0.345574 2.25709,-0.300224 z M 142.56,91.530147 c -0.528,-0.120457 -1.2825,-0.392285 -1.67668,-0.604067 -1.70679,-0.917002 -2.37004,-4.399264 -1.1539,-6.058333 1.26907,-1.731286 4.32374,-2.561405 5.70604,-1.55064 0.52728,0.385552 0.36172,0.43273 -1.40376,0.4 -1.87662,-0.03479 -2.05989,0.02813 -2.93662,1.007943 -0.77373,0.864726 -0.93508,1.325705 -0.93508,2.671612 0,1.412708 0.13285,1.75066 1.01041,2.570426 0.86361,0.806733 1.22391,0.92999 2.48,0.848387 L 145.12,90.72 l 0.0984,-1.36 c 0.0752,-1.03872 -0.0149,-1.36 -0.38111,-1.36 -0.26373,0 -0.56851,-0.144 -0.67729,-0.32 -0.11769,-0.190438 0.26335,-0.32 0.94112,-0.32 H 146.24 v 1.930042 c 0,1.265494 -0.13772,1.972144 -0.4,2.05231 -1.00827,0.308195 -2.40237,0.388013 -3.28,0.187795 z M 115.59047,87.315456 115.68,83.04 l 0.94119,-0.107158 c 1.79889,-0.204816 3.71055,0.286668 4.75912,1.223561 0.95012,0.848938 1.01969,1.054381 1.01969,3.011194 0,1.942643 -0.078,2.178064 -1.03993,3.140029 -0.95662,0.956617 -1.23297,1.04968 -3.44953,1.161609 l -2.4096,0.12168 z m 4.21337,3.258291 c 2.05488,-0.781264 2.38385,-4.518185 0.54258,-6.163366 -1.0779,-0.963101 -3.07918,-1.229619 -3.80242,-0.506381 -0.40148,0.401488 -0.5518,5.526371 -0.18976,6.469827 0.2228,0.580602 2.15397,0.692522 3.4496,0.19992 z m 5.53431,0.737728 c -0.32536,-0.32535 -0.26378,-5.165501 0.0683,-5.370752 0.44972,-0.277942 0.67395,0.66288 0.66864,2.80545 -0.005,1.940937 -0.30755,2.994713 -0.73696,2.565302 z M 129.28,90.88 c -0.46933,-0.469334 -0.64,-1.066666 -0.64,-2.24 0,-1.943066 0.75803,-2.882461 2.32,-2.875101 1.21121,0.0057 1.61271,0.225127 2.09712,1.146077 0.51219,0.973763 -0.0844,1.409024 -1.93116,1.409024 -1.79167,0 -2.20561,0.52344 -1.39376,1.76247 0.41197,0.628749 0.79188,0.79753 1.79518,0.79753 0.69994,0 1.27262,0.144 1.27262,0.32 0,0.61969 -2.83834,0.361658 -3.52,-0.32 z m 3.11471,-3.738336 c 0.17377,-0.529418 -0.95257,-1.065066 -1.78297,-0.847914 -0.40968,0.107136 -0.69174,0.434509 -0.69174,0.80289 0,0.521117 0.19062,0.605885 1.17527,0.522678 0.6464,-0.05463 1.23114,-0.269568 1.29944,-0.477654 z m 17.18801,3.968672 c -0.095,-0.247626 -0.13001,-1.497792 -0.0778,-2.778147 l 0.095,-2.327917 1.36,-0.121523 c 0.77276,-0.06905 1.36,0.01638 1.36,0.197862 0,0.175664 -0.28294,0.319389 -0.62875,0.319389 -0.88267,0 -1.29125,0.949299 -1.29125,3.000077 0,1.692819 -0.45701,2.649145 -0.81729,1.710259 z m 5.36129,0.02566 c -0.4708,-0.470794 -0.52884,-5.056 -0.064,-5.056 0.17947,0 0.32,0.885334 0.32,2.016 0,2.145469 0.33357,2.784 1.4544,2.784 1.16656,0 1.7456,-0.983968 1.7456,-2.96631 0,-1.777408 0.39251,-2.62018 0.76647,-1.64568 0.10644,0.277385 0.19353,1.480982 0.19353,2.674665 v 2.170333 l -1.48467,0.203498 c -2.07276,0.284102 -2.49258,0.258249 -2.93133,-0.180506 z m 7.616,-2.29913 V 86.15374 l 1.69498,-0.211776 c 2.01531,-0.251795 2.65765,-0.05745 2.90911,0.880166 0.24622,0.918068 0.24771,3.550512 0.002,4.189856 -0.38651,1.007239 -0.76658,0.105136 -0.77137,-1.830876 -0.006,-2.394973 -0.25818,-2.865316 -1.46241,-2.72674 -1.18039,0.135837 -1.72182,1.196672 -1.72797,3.385626 -0.003,0.924 -0.14872,1.68 -0.32472,1.68 -0.18789,0 -0.32,-1.107709 -0.32,-2.68313 z m 7.80959,2.009533 c -0.4278,-0.47271 -0.60959,-1.149171 -0.60959,-2.268272 0,-1.873177 0.84882,-2.818131 2.53145,-2.818131 1.36915,0 1.78855,-0.502746 1.78855,-2.144 0,-0.7568 0.144,-1.376 0.32,-1.376 0.19795,0 0.32,1.69271 0.32,4.438131 v 4.438131 l -1.2,0.198346 c -1.95687,0.32345 -2.50811,0.241526 -3.15041,-0.468205 z m 3.12521,-0.496 c 1.05974,-0.959053 0.56183,-4.290169 -0.63766,-4.266035 -0.84507,0.01702 -1.63275,0.487549 -1.93814,1.157811 -1.0891,2.390323 0.82149,4.69585 2.5758,3.108224 z m 4.8092,0.785597 c -0.46849,-0.468486 -0.52326,-4.932163 -0.064,-5.216 0.1985,-0.122682 0.32,0.469734 0.32,1.560282 0,2.364601 0.42092,3.399718 1.38248,3.399718 1.18635,0 1.76999,-0.921971 1.87931,-2.968762 0.14961,-2.801033 0.72427,-2.383337 0.83042,0.603594 l 0.0922,2.594829 -1.49688,0.205171 c -2.08568,0.285872 -2.50427,0.260442 -2.94354,-0.178832 z m 7.616,-2.29913 V 86.15374 l 1.69499,-0.211776 c 2.0153,-0.251795 2.65764,-0.05745 2.9091,0.880166 0.24622,0.918068 0.24771,3.550512 0.002,4.189856 -0.38651,1.007239 -0.76658,0.105136 -0.77137,-1.830876 -0.006,-2.394973 -0.25818,-2.865316 -1.46241,-2.72674 -1.18039,0.135837 -1.72182,1.196672 -1.72797,3.385626 -0.003,0.924 -0.14872,1.68 -0.32472,1.68 -0.18789,0 -0.32,-1.107709 -0.32,-2.68313 z m 15.17115,2.316461 c -0.15968,-0.258371 0.0257,-0.303341 0.62769,-0.152256 0.98384,0.246931 2.12116,-0.249475 2.12116,-0.92583 0,-0.254231 -0.57119,-0.753635 -1.2693,-1.109786 -1.67556,-0.854806 -2.17598,-1.764038 -1.42661,-2.59208 0.62392,-0.689427 2.82774,-0.85672 3.20678,-0.243427 0.16259,0.263082 -0.0517,0.313891 -0.74168,0.175885 -0.59837,-0.119674 -1.19848,-0.02723 -1.56551,0.241149 -0.57972,0.423904 -0.57946,0.452588 0.0101,1.104112 0.33294,0.367897 0.77393,0.668902 0.97998,0.668902 0.45176,0 1.76618,1.347792 1.76618,1.811027 0,1.089101 -3.13372,1.952874 -3.70884,1.022304 z m 6.48699,0.158144 c -0.11998,-0.119977 -0.21814,-1.173341 -0.21814,-2.340809 0,-1.18112 -0.16432,-2.28698 -0.37044,-2.493104 -0.25459,-0.254586 -0.26867,-0.499776 -0.045,-0.784 0.17898,-0.22746 0.41938,-0.908112 0.53424,-1.512564 0.2892,-1.522124 1.05089,-2.260994 2.33079,-2.260994 0.58872,0 1.07041,0.144 1.07041,0.32 0,0.176 -0.34972,0.32 -0.77715,0.32 -0.42743,0 -1.00343,0.226285 -1.28,0.502858 -0.64335,0.643353 -0.65835,2.337558 -0.0228,2.58142 0.264,0.101309 0.48,0.312788 0.48,0.469959 0,0.157168 -0.216,0.285763 -0.48,0.285763 -0.37878,0 -0.48104,0.45551 -0.4849,2.16 -0.005,2.104918 -0.29605,3.192387 -0.73696,2.751475 z m 4.52586,-0.123673 c -0.84901,-0.49537 -1.3439,-2.383466 -0.93339,-3.561047 0.44782,-1.284614 1.21012,-1.843913 2.53042,-1.856579 1.49581,-0.01434 2.19038,0.45119 2.62131,1.756928 0.42948,1.301341 0.0467,2.842294 -0.88093,3.546406 -0.65677,0.498516 -2.56679,0.563924 -3.33741,0.114292 z m 3.07785,-1.019005 c 1.4376,-2.052451 -0.61726,-4.942019 -2.45575,-3.453306 -0.82742,0.670003 -0.98997,2.788202 -0.27965,3.64409 0.63417,0.764128 2.14012,0.659094 2.7354,-0.190784 z m 4.01854,-1.429911 3.2e-4,-2.818886 h 1.25226 c 0.68874,0 1.36057,0.108 1.49294,0.24 0.13238,0.132 -0.0632,0.24 -0.4345,0.24 -1.02423,0 -1.67148,1.197437 -1.67148,3.092317 0,0.918451 -0.144,1.758909 -0.32,1.867683 -0.20409,0.126138 -0.31986,-0.823251 -0.31961,-2.621114 z m 5.14283,1.937959 c -0.83716,-1.064275 -0.87317,-2.986672 -0.0744,-3.973079 0.38495,-0.475385 1.07739,-0.792332 2,-0.915449 L 227.68001,85.6 l 0.16,-1.575184 c 0.088,-0.866352 0.34,-1.634352 0.56,-1.706669 0.30717,-0.100966 0.4,0.904688 0.4,4.333315 v 4.4648 l -1.2,0.198346 c -2.04288,0.337667 -2.57083,0.234282 -3.25678,-0.637763 z M 227.45601,90.496 c 0.2112,-0.2112 0.384,-1.142134 0.384,-2.068742 0,-1.661623 -0.46122,-2.347258 -1.57897,-2.347258 -1.37919,0 -2.16379,3.029866 -1.09144,4.214803 0.60499,0.668499 1.72091,0.766698 2.28641,0.201197 z m 4.56722,0.180845 c -0.40175,-0.510743 -0.66322,-1.313763 -0.66322,-2.036845 0,-1.762736 0.99927,-2.88 2.57585,-2.88 0.97854,0 1.36268,0.172893 1.77196,0.79753 0.84347,1.287305 0.40732,1.76247 -1.61777,1.76247 -1.66083,0 -1.77004,0.04795 -1.77004,0.777142 0,1.141648 0.82063,1.782858 2.28174,1.782858 0.7692,0 1.19748,0.127101 1.07826,0.32 -0.10878,0.176 -0.82682,0.32 -1.59566,0.32 -1.12902,0 -1.52546,-0.162173 -2.06112,-0.843155 z m 3.04678,-3.365389 c 0.20273,-0.328022 -0.64095,-1.231456 -1.15,-1.231456 -0.10873,0 -0.4632,0.194154 -0.78773,0.431456 -0.77563,0.567155 -0.37023,1.168544 0.78773,1.168544 0.50722,0 1.02472,-0.165846 1.15,-0.368544 z m 8.76208,3.387712 c -0.34638,-0.911046 -0.41957,-3.646714 -0.11855,-4.431158 0.37979,-0.989728 0.76647,-0.119632 0.76647,1.724704 0,2.457212 0.19306,2.887286 1.29609,2.887286 1.26823,0 1.90391,-1.038768 1.90391,-3.111203 0,-0.928839 0.144,-1.688797 0.32,-1.688797 0.18622,0 0.32,1.05271 0.32,2.518131 v 2.518131 l -1.2,0.198346 c -2.32215,0.383827 -2.95289,0.265766 -3.28792,-0.61544 z m 7.86063,0.11392 c -0.0913,-0.4032 -0.13155,-1.647706 -0.0894,-2.765574 l 0.0767,-2.032484 1.87173,-0.140364 c 1.09346,-0.082 2.04656,0.0047 2.29219,0.208585 0.52967,0.439591 0.92151,3.177207 0.63891,4.463863 -0.37268,1.696787 -0.80283,1.052163 -0.80283,-1.203114 0,-2.326483 -0.31167,-2.944 -1.48586,-2.944 -1.06468,0 -1.71414,1.171626 -1.71414,3.092317 0,1.744982 -0.50087,2.585254 -0.78729,1.320771 z M 12.48,64.64 V 38.08 h 4.445764 c 4.991885,0 4.834237,-0.08063 4.834237,2.472589 v 1.460246 l 1.703479,-1.611078 c 3.042541,-2.877507 6.434939,-3.982925 10.196563,-3.322563 6.762112,1.187104 11.374295,6.606873 12.44048,14.61879 1.373491,10.321168 -4.276771,20.110851 -12.938407,22.417174 -3.349632,0.891904 -9.351118,0.319415 -10.442953,-0.996169 C 22.500523,72.855546 22.195268,72.64 22.040818,72.64 c -0.154449,0 -0.280817,3.948224 -0.280817,8.773827 0,4.825607 -0.08741,9.001607 -0.194237,9.28 C 21.401543,91.121782 20.684522,91.2 16.925764,91.2 H 12.48 Z m 19.060365,1.444982 c 2.651627,-1.553955 4.333591,-4.421641 4.95723,-8.451888 0.424157,-2.741097 0.05327,-6.108198 -0.923939,-8.387926 -2.536432,-5.917251 -8.898458,-6.334378 -12.875533,-0.844182 l -0.938122,1.29504 v 7.240784 c 0,7.94336 0.04987,8.176108 1.963873,9.165878 2.450396,1.267149 5.636369,1.259933 7.816491,-0.0177 z M 238.72001,88.64 c 0,-1.958787 0.10333,-2.56 0.44,-2.56 0.242,0 0.89,-0.09 1.44,-0.2 0.61468,-0.122938 1,-0.06986 1,0.137744 0,0.18576 -0.3204,0.38376 -0.71199,0.44 -0.94195,0.135283 -1.51749,1.352733 -1.5233,3.222256 -0.003,0.836 -0.14871,1.52 -0.32471,1.52 -0.18667,0 -0.32,-1.066666 -0.32,-2.56 z M 155.09334,84.266666 C 154.72513,83.898464 154.8603,83.52 155.36001,83.52 c 0.264,0 0.48,0.216 0.48,0.48 0,0.499702 -0.37847,0.63487 -0.74667,0.266666 z m 2.8887,0.0087 c -0.25566,-0.255661 0.0333,-0.75537 0.43685,-0.75537 0.16561,0 0.30112,0.216 0.30112,0.48 0,0.494851 -0.37759,0.635744 -0.73797,0.275366 z m 54.4,0 c -0.25566,-0.255661 0.0333,-0.75537 0.43685,-0.75537 0.16562,0 0.30112,0.216 0.30112,0.48 0,0.494851 -0.37759,0.635744 -0.73797,0.275366 z m 2.24,0 c -0.25566,-0.255661 0.0333,-0.75537 0.43685,-0.75537 0.16562,0 0.30112,0.216 0.30112,0.48 0,0.494851 -0.37759,0.635744 -0.73797,0.275366 z M 125.18134,83.496 c 0.0631,-0.1892 0.25146,-0.344 0.41866,-0.344 0.1672,0 0.3556,0.1548 0.41867,0.344 0.0631,0.1892 -0.12533,0.344 -0.41867,0.344 -0.29333,0 -0.48173,-0.1548 -0.41866,-0.344 z M 87.360003,74.060774 C 78.47647,72.14593 72.892034,64.38911 73.351737,54.6032 c 0.30039,-6.394592 3.062877,-11.468566 8.044931,-14.776464 2.786247,-1.849965 4.998353,-2.485824 9.172721,-2.636662 3.335245,-0.120519 3.928925,-0.0529 6.184905,0.704406 3.172525,1.064982 5.360136,2.469395 7.504496,4.817792 6.21142,6.802413 6.47668,18.230246 0.5892,25.38391 -2.54288,3.08976 -5.947737,5.132512 -9.967987,5.980324 -2.736627,0.577113 -4.789552,0.572819 -7.52,-0.01574 z m 6.668787,-7.695187 c 1.957594,-0.97551 3.543287,-2.884317 4.582919,-5.516774 1.044502,-2.644794 1.02464,-7.740771 -0.04072,-10.446455 -1.04391,-2.6512 -3.734304,-5.338934 -5.884352,-5.878528 C 89.31913,43.678691 86.023603,45.733037 84.030256,49.92 83.101235,51.871379 83.04,52.227558 83.04,55.68 c 0,3.450758 0.0616,3.809571 0.988912,5.76 1.305369,2.74561 2.358109,3.936822 4.361427,4.93512 2.095799,1.044378 3.528384,1.041958 5.638448,-0.0095 z m 48.68914,7.272291 c -2.46354,-0.801187 -3.75518,-1.959891 -4.86229,-4.361865 C 137.12192,67.684154 137.12,67.64168 137.12,52.96 V 38.24 l 4.4,-0.08903 4.4,-0.08903 0.002,12.569031 c 0.002,15.413254 0.15779,16.24903 3.02517,16.24903 1.73624,0 3.58115,-1.176115 6.98175,-4.450819 l 2.6313,-2.533872 0.16,-10.827655 0.16,-10.827654 4.40271,-0.08905 4.40272,-0.08905 -0.0827,17.68905 -0.0828,17.689046 -3.95501,0.09013 c -2.64265,0.06022 -4.10267,-0.03242 -4.4,-0.279184 -0.30106,-0.249856 -0.44499,-1.081177 -0.44499,-2.570128 0,-1.374707 -0.1309,-2.200819 -0.34872,-2.200819 -0.1918,0 -1.1638,0.727786 -2.16,1.617302 -0.99621,0.889517 -2.74173,2.076272 -3.87894,2.637232 -1.88121,0.927965 -2.37173,1.026436 -5.44,1.092064 -1.85479,0.03967 -3.73328,-0.04525 -4.17442,-0.18872 z M 52.061963,73.395293 c -0.12208,-0.122077 -0.221961,-8.102554 -0.221961,-17.734391 0,-15.673849 0.05314,-17.532822 0.506173,-17.706665 0.716508,-0.274951 6.619011,-0.232589 7.05912,0.05066 0.20312,0.13073 0.468624,1.620215 0.598054,3.355101 0.128019,1.716 0.339248,3.12 0.469402,3.12 0.13015,0 0.765536,-0.796576 1.411968,-1.770173 2.629315,-3.960035 4.358419,-5.269827 6.95689,-5.269827 1.452448,0 3.897965,1.209859 4.386358,2.170042 0.191472,0.376435 -0.114803,1.757523 -0.970697,4.377148 -1.424727,4.36066 -1.666512,4.777415 -2.509831,4.326087 C 69.42549,48.140973 68.532588,48 67.763209,48 65.61526,48 63.89646,49.420448 62.148616,52.64 l -0.868614,1.6 -0.16,9.6 -0.16,9.6 -4.338038,0.08863 C 54.23604,73.57738 52.18404,73.51737 52.061963,73.395296 Z M 116.24,73.38807 c -0.31134,-0.125628 -0.4,-3.227254 -0.4,-13.993574 0,-10.56887 -0.0944,-13.957597 -0.4,-14.363802 -0.30272,-0.402345 -1.02256,-0.553401 -2.96,-0.621161 l -2.56,-0.08953 -0.0926,-2.430387 c -0.0645,-1.694691 0.0323,-2.530355 0.32,-2.760634 0.22691,-0.181635 1.41788,-0.501977 2.6466,-0.711872 1.22871,-0.209894 2.41671,-0.533241 2.64,-0.718547 0.28725,-0.2384 0.40596,-1.475501 0.40596,-4.230512 0,-2.418923 0.18079,-4.587669 0.47734,-5.726193 1.39187,-5.343746 4.73049,-8.820843 9.90314,-10.313878 2.85492,-0.824043 9.02496,-0.520169 12.54959,0.618066 1.43553,0.463588 2.9067,1.092878 3.26925,1.398422 0.65739,0.554016 0.65427,0.564134 -1.13895,3.700073 -1.34108,2.345253 -1.92805,3.100657 -2.30925,2.971901 -0.28111,-0.09495 -1.51912,-0.534275 -2.75112,-0.976276 -4.81648,-1.727999 -8.30174,-0.748298 -10.15374,2.854194 -0.85245,1.658179 -1.52847,8.831819 -0.90327,9.585137 0.29813,0.359229 1.25297,0.50217 3.80747,0.569988 L 132,38.24 v 3.04 3.04 l -3.34152,0.09188 c -1.83783,0.05053 -3.52983,0.24816 -3.76,0.439181 -0.33297,0.276346 -0.41848,3.209107 -0.41848,14.353891 0,12.476973 -0.0553,14.027792 -0.50617,14.200816 -0.60033,0.230371 -7.15623,0.21537 -7.73383,-0.0177 z"
       id="path823"
       inkscape:connector-curvature="0" />
    <path
       style="fill:#4f6e8b;stroke-width:0.31999999"
       d="m 115.65009,107.09544 c -0.77378,-0.66557 -0.93009,-1.0452 -0.93009,-2.25884 0,-1.85037 0.86329,-2.79662 2.78544,-3.05315 L 118.88,101.6 l 0.0975,-1.700851 c 0.0656,-1.144208 0.22265,-1.659117 0.48,-1.573335 0.2723,0.09077 0.38255,1.410948 0.38255,4.580856 V 107.36 l -0.8,0.0606 c -0.44,0.0333 -1.17346,0.15379 -1.62991,0.26773 -0.62027,0.15484 -1.06487,0.005 -1.76,-0.59285 z m 2.98991,-0.80132 c 0.5097,-0.63258 0.52051,-3.00561 0.016,-3.51012 -0.52481,-0.52481 -2.0145,-0.48417 -2.4723,0.0674 -0.20607,0.24829 -0.45682,0.95771 -0.55724,1.57649 -0.14963,0.92207 -0.0346,1.27303 0.63772,1.94533 0.86662,0.86661 1.6344,0.84104 2.37582,-0.0791 z m 4.97569,1.06489 c -0.86007,-0.60242 -1.4708,-2.38863 -1.19391,-3.49185 0.27074,-1.07869 1.58455,-2.10716 2.69178,-2.10716 1.01109,0 1.92644,0.87866 1.92644,1.84923 0,0.60194 -0.2084,0.6897 -1.84,0.7748 -1.59858,0.0834 -1.85278,0.18559 -1.93741,0.77905 -0.14289,1.00191 1.39059,2.12002 2.55642,1.86396 1.06611,-0.23416 1.23297,0.32935 0.18099,0.61127 -1.12298,0.30095 -1.64282,0.24005 -2.38431,-0.2793 z m 2.56821,-3.88957 C 126.53978,103.11356 125.72317,102.4 124.96,102.4 c -0.76316,0 -1.57977,0.71356 -1.22389,1.06944 0.11581,0.11581 0.66656,0.21056 1.22389,0.21056 0.55734,0 1.10809,-0.0948 1.2239,-0.21056 z m 25.65611,4.00105 c -1.07174,-0.5862 -1.44,-1.28851 -1.44,-2.7462 0,-2.51919 2.55584,-3.92845 4.17967,-2.30462 1.11118,1.11119 0.69497,1.71846 -1.30245,1.90033 -1.60266,0.14593 -1.76569,0.23277 -1.8534,0.98739 -0.12998,1.1181 0.6934,1.72709 2.2789,1.68552 1.17895,-0.0309 1.24392,0.007 0.6975,0.4065 -0.71799,0.525 -1.68141,0.55175 -2.56022,0.0711 z m 2.24,-4.43049 c 0,-0.74983 -2.19751,-0.65515 -2.34312,0.10096 -0.0949,0.49283 0.0743,0.56564 1.11561,0.48 0.83291,-0.0685 1.22751,-0.25526 1.22751,-0.58096 z m 8.26091,4.48988 c -1.58077,-0.6643 -1.93665,-3.64323 -0.59546,-4.98442 0.77027,-0.77028 2.18991,-1.03249 2.92664,-0.54056 0.54513,0.36399 1.13973,1.65236 0.92382,2.00171 -0.10653,0.17237 -0.88756,0.31339 -1.73562,0.31339 -1.81147,0 -2.50019,0.55382 -1.95517,1.57221 0.51193,0.95655 1.50999,1.38039 2.67364,1.13538 0.7299,-0.15368 0.92709,-0.11582 0.69124,0.1327 -0.47838,0.50405 -2.11708,0.71082 -2.92909,0.36959 z m 2.29909,-4.48988 c 0,-0.74983 -2.19751,-0.65515 -2.34312,0.10096 -0.0949,0.49283 0.0743,0.56564 1.11561,0.48 0.83291,-0.0685 1.22751,-0.25526 1.22751,-0.58096 z m 16.90519,4.33352 c -1.4896,-0.64797 -1.74009,-1.38498 -1.63677,-4.81575 0.12415,-4.122557 0.70651,-4.092557 0.82233,0.0424 0.10357,3.69754 0.50479,4.40786 2.48973,4.40786 1.83089,0 2.19719,-0.66217 2.37952,-4.30156 0.19077,-3.807867 0.75697,-4.253502 0.90054,-0.70879 0.13693,3.38101 -0.3149,4.80401 -1.71054,5.38715 -1.33695,0.55861 -1.9395,0.55652 -3.24481,-0.0113 z m 26.87573,0.14425 c -0.96152,-0.38741 -1.38092,-1.29658 -1.38092,-2.99351 0,-1.17214 0.15579,-1.56035 0.84315,-2.10103 1.1692,-0.91969 2.47807,-0.85688 3.27574,0.15719 0.96865,1.23144 0.58246,1.6947 -1.50422,1.80446 -2.14793,0.11298 -2.49777,0.72111 -1.17549,2.0434 0.66273,0.66272 1.04421,0.80304 1.78203,0.65548 1.09299,-0.2186 1.28526,0.26875 0.21879,0.55455 -0.91082,0.24409 -1.19545,0.22742 -2.05908,-0.12054 z m 2.27667,-4.12151 c 0.2784,-0.45046 -0.67128,-1.05551 -1.47671,-0.94082 -0.40389,0.0575 -0.78237,0.35656 -0.84108,0.66456 -0.0853,0.44735 0.11949,0.56 1.01785,0.56 0.61852,0 1.20349,-0.12768 1.29994,-0.28374 z m 8.90241,4.24369 c -0.57302,-0.24823 -0.4962,-0.77678 0.0807,-0.5554 0.2644,0.10146 0.8404,0.0942 1.28,-0.0161 1.26537,-0.31759 1.01033,-1.30427 -0.56071,-2.16925 -1.5364,-0.84591 -1.97107,-2.01793 -1.00923,-2.72124 0.67348,-0.49246 2.56521,-0.55748 2.84923,-0.0979 0.1191,0.19272 -0.30527,0.32 -1.06688,0.32 -0.81481,0 -1.32856,0.16656 -1.44433,0.46823 -0.17067,0.44478 0.0908,0.70713 2.17956,2.18671 0.88861,0.62946 1.0545,1.54515 0.38115,2.10398 -0.52037,0.43187 -2.13595,0.72082 -2.6895,0.48103 z m 10.02286,-0.30281 c -0.3495,-0.3495 -0.50286,-1.11071 -0.50286,-2.496 0,-1.09622 -0.15583,-2.14896 -0.34627,-2.33941 -0.23754,-0.23754 -0.24488,-0.53397 -0.0234,-0.944 0.1776,-0.32875 0.42267,-0.88573 0.5446,-1.23773 0.20326,-0.586771 0.25409,-0.56441 0.61118,0.26887 0.21422,0.49987 0.59297,1.04251 0.84167,1.20585 0.37826,0.24844 0.36063,0.35094 -0.10782,0.62704 -0.43965,0.25911 -0.56,0.76562 -0.56,2.35682 0,1.83004 0.0699,2.04593 0.72,2.22409 0.60062,0.1646 0.64041,0.24956 0.24,0.51242 -0.65273,0.4285 -0.83338,0.40582 -1.41714,-0.17795 z m 4.18675,0.10026 c -1.05216,-0.77212 -0.56792,-1.90872 1.07039,-2.51241 1.2483,-0.45999 1.44,-0.65272 1.44,-1.44781 0,-0.87803 -0.0591,-0.91449 -1.38514,-0.8541 -1.17617,0.0536 -1.32716,-0.007 -1.00082,-0.4 0.55093,-0.66383 2.34045,-0.58056 2.99184,0.13922 0.42474,0.46934 0.524,1.08155 0.4496,2.7731 -0.0903,2.05367 -0.13864,2.17476 -0.89548,2.24443 -0.44,0.0405 -1.088,0.1675 -1.44,0.28223 -0.35721,0.11642 -0.90087,0.0172 -1.23039,-0.22466 z m 2.61847,-1.6596 c 0.0844,-0.42593 -0.0842,-0.52291 -0.76773,-0.44176 -1.10317,0.13095 -1.80028,1.10508 -1.10224,1.54023 0.58259,0.36318 1.71187,-0.30019 1.86997,-1.09847 z m 4.39478,1.55934 c -0.3495,-0.3495 -0.50286,-1.11071 -0.50286,-2.496 0,-1.09622 -0.15583,-2.14896 -0.34627,-2.33941 -0.23754,-0.23754 -0.24488,-0.53397 -0.0234,-0.944 0.1776,-0.32875 0.4044,-0.85886 0.50401,-1.17801 0.24601,-0.788299 0.82562,-0.36767 0.82562,0.59917 0,0.48099 0.18443,0.78111 0.48,0.78111 0.264,0 0.48,0.1286 0.48,0.28576 0,0.15717 -0.216,0.36865 -0.48,0.46996 -0.70334,0.2699 -0.6855,4.21695 0.0203,4.48778 0.27515,0.10559 0.41065,0.337 0.30111,0.51424 -0.28242,0.45696 -0.6777,0.40024 -1.25854,-0.1806 z m 17.30715,0.14045 c -0.84936,-0.49372 -1.51778,-2.29875 -1.28404,-3.46747 0.53163,-2.65813 4.59403,-3.01263 4.59403,-0.40089 0,0.60179 -0.20847,0.68972 -1.83689,0.7748 -2.17204,0.11348 -2.53249,0.71569 -1.21622,2.03196 0.66579,0.66578 1.01999,0.78942 1.78203,0.62205 1.10494,-0.24269 1.31738,0.30915 0.23108,0.60027 -1.02021,0.27341 -1.5929,0.23286 -2.26999,-0.16072 z m 2.45388,-4.00815 c 0.35588,-0.35588 -0.46073,-1.06944 -1.22389,-1.06944 -0.76317,0 -1.57978,0.71356 -1.22389,1.06944 0.11581,0.11581 0.66655,0.21056 1.22389,0.21056 0.55733,0 1.10808,-0.0948 1.22389,-0.21056 z m -130.83576,3.31723 c -0.10123,-0.40334 -0.13997,-1.58547 -0.0861,-2.62697 l 0.0979,-1.89363 1.25713,-0.2599 c 0.78327,-0.16194 1.38035,-0.1367 1.584,0.067 0.2225,0.22249 0.10787,0.32687 -0.35898,0.32687 -1.07183,0 -1.68215,1.18686 -1.68215,3.2712 0,1.85196 -0.46623,2.49255 -0.81186,1.11547 z M 138.88,103.36 V 99.2 h 2.25889 c 1.42444,0 2.18583,0.118211 2.06111,0.32 -0.10877,0.176 -0.89366,0.32 -1.74419,0.32 -1.38264,0 -1.56769,0.08473 -1.74721,0.8 -0.11044,0.44 -0.11044,1.16 0,1.6 0.17604,0.70141 0.37397,0.8 1.6061,0.8 0.77291,0 1.4053,0.144 1.4053,0.32 0,0.176 -0.5675,0.32 -1.26111,0.32 -0.69361,0 -1.35391,0.15014 -1.46732,0.33364 -0.16774,0.27142 -0.33522,1.47246 -0.45548,3.26636 -0.009,0.132 -0.16009,0.24 -0.33609,0.24 -0.19692,0 -0.32,-1.6 -0.32,-4.16 z m 6.98437,1.55844 c -0.0619,-1.54227 0.0259,-2.64786 0.21563,-2.71527 0.78275,-0.27815 2.3653,-0.25347 2.36184,0.0368 -0.002,0.176 -0.19952,0.28018 -0.43872,0.2315 -0.80067,-0.16291 -1.44312,1.26153 -1.44312,3.1997 0,2.82472 -0.57717,2.20015 -0.69563,-0.75276 z m 11.71765,2.19009 c -0.3312,-0.8631 0.002,-4.81234 0.41799,-4.94969 0.29774,-0.0984 0.4,0.52423 0.4,2.43561 0,2.36606 -0.40139,3.59972 -0.81799,2.51408 z m 10.73799,-2.30495 c 0,-2.60391 0.0298,-2.71638 0.72,-2.71567 0.396,3.2e-4 1.24732,-0.0875 1.89183,-0.19531 1.66302,-0.27822 2.25466,0.6787 2.12426,3.43579 -0.12682,2.68126 -0.71058,2.61036 -0.83009,-0.10082 -0.10338,-2.34552 -0.54198,-3.01843 -1.76699,-2.71097 -0.9734,0.2443 -1.49901,1.44295 -1.49901,3.41846 0,0.87171 -0.144,1.58494 -0.32,1.58494 -0.18821,0 -0.32,-1.11881 -0.32,-2.71642 z m 21.44,0 c 0,-2.60562 0.0294,-2.71614 0.72,-2.70986 0.396,0.004 1.18931,-0.0866 1.76293,-0.20034 0.63126,-0.12522 1.22326,-0.0572 1.49977,0.17226 0.53275,0.44215 0.98145,3.47675 0.68735,4.64856 -0.38544,1.53571 -0.83005,0.80177 -0.83005,-1.3702 0,-2.24904 -0.31727,-2.944 -1.344,-2.944 -1.18998,0 -1.856,1.14831 -1.856,3.2 0,1.06667 -0.14222,1.92 -0.32,1.92 -0.18821,0 -0.32,-1.11881 -0.32,-2.71642 z m 7.68,-0.0302 c 0,-2.05437 0.10082,-2.71341 0.4,-2.61472 0.43547,0.14365 0.7239,3.38477 0.41186,4.62806 -0.40641,1.61925 -0.81186,0.61377 -0.81186,-2.01335 z m 4.62367,1.62666 c -0.25502,-0.616 -0.67967,-1.64159 -0.94367,-2.27908 -0.54283,-1.31079 -0.61336,-2.04092 -0.19717,-2.04092 0.15556,0 0.60428,0.792 0.99717,1.76 0.39288,0.968 0.88731,1.76 1.09872,1.76 0.21142,0 0.63405,-0.792 0.93919,-1.76 0.30514,-0.968 0.69143,-1.76 0.85844,-1.76 0.44291,0 0.39928,0.22746 -0.56773,2.96 -0.49375,1.39522 -1.06215,2.48 -1.29946,2.48 -0.232,0 -0.63047,-0.504 -0.88549,-1.12 z m 12.33633,-1.6 c 0,-2.98905 -0.19091,-2.72717 2.08,-2.85333 0.264,-0.0147 0.47055,0.11733 0.45901,0.29333 -0.0115,0.176 -0.2167,0.28018 -0.4559,0.2315 -0.80067,-0.16291 -1.44311,1.26153 -1.44311,3.1997 0,1.0192 -0.14359,1.8488 -0.32,1.8488 -0.18824,0 -0.32,-1.12 -0.32,-2.72 z m 10.88,0 c 0,-1.6 0.13176,-2.72 0.32,-2.72 0.18823,0 0.32,1.12 0.32,2.72 0,1.6 -0.13177,2.72 -0.32,2.72 -0.18824,0 -0.32,-1.12 -0.32,-2.72 z m 23.56884,-0.93402 c -0.11478,-2.00971 -0.12132,-3.881708 -0.0145,-4.159999 0.29734,-0.774858 3.99945,-0.712675 4.71609,0.07922 0.61953,0.684569 0.68333,1.737319 0.15641,2.581049 -0.30486,0.48817 -0.24627,0.75891 0.32,1.47882 0.86656,1.10164 0.87352,1.75937 0.03,2.83177 -0.59989,0.76265 -0.87024,0.84316 -2.83123,0.84316 h -2.168 z m 3.52381,2.994 c 2.36127,-0.89775 1.51486,-3.49998 -1.13841,-3.49998 -1.36875,0 -1.63424,0.33177 -1.63424,2.04217 0,1.69586 0.9008,2.16949 2.77265,1.45781 z m 0.24449,-4.64284 c 0.7099,-0.7099 0.62405,-1.61596 -0.20834,-2.199 -0.84906,-0.594697 -1.89501,-0.643935 -2.4248,-0.11414 -0.40824,0.40823 -0.52866,2.24468 -0.17067,2.60267 0.40673,0.40673 2.30341,0.21088 2.80381,-0.28953 z m 11.58749,5.08083 c -0.11254,-0.11255 -0.20463,-1.33264 -0.20463,-2.7113 0,-2.38488 0.035,-2.50688 0.72,-2.51104 0.396,-0.003 1.044,-0.0912 1.44,-0.19732 0.52502,-0.1407 0.72,-0.0556 0.72,0.31432 0,0.30269 -0.1802,0.43813 -0.4468,0.33583 -0.75428,-0.28945 -1.4732,1.15691 -1.4732,2.96386 0,1.57221 -0.29165,2.26937 -0.75537,1.80565 z m 4.91537,-4.41797 c 0,-2.88 0.12138,-4.64 0.32,-4.64 0.19862,0 0.32,1.76 0.32,4.64 0,2.88 -0.12138,4.64 -0.32,4.64 -0.19862,0 -0.32,-1.76 -0.32,-4.64 z m 3.84,1.92 c 0,-1.6 0.13176,-2.72 0.32,-2.72 0.18824,0 0.32,1.12 0.32,2.72 0,1.6 -0.13176,2.72 -0.32,2.72 -0.18824,0 -0.32,-1.12 -0.32,-2.72 z m 3.98202,2.30853 c -0.0954,-0.24861 -0.13039,-1.44574 -0.0777,-2.66028 0.0907,-2.09254 0.13764,-2.21228 0.89572,-2.2852 0.44,-0.0423 1.26932,-0.16685 1.84293,-0.27675 0.60509,-0.11592 1.22622,-0.0477 1.47951,0.16253 0.53759,0.44616 0.91629,3.07754 0.641,4.45399 -0.33453,1.6726 -0.76344,1.15356 -0.76344,-0.92386 0,-2.31729 -0.38845,-3.17896 -1.43311,-3.17896 -1.11717,0 -1.76689,1.13712 -1.76689,3.09232 0,1.61823 -0.46479,2.5366 -0.81798,1.61621 z m -43.02202,-7.08186 c 0,-0.27867 0.228,-0.50667 0.50666,-0.50667 0.5651,0 0.46669,0.68888 -0.12666,0.88667 -0.209,0.0697 -0.38,-0.10134 -0.38,-0.38 z m 2.24,0 c 0,-0.27867 0.228,-0.50667 0.50666,-0.50667 0.27867,0 0.44967,0.170998 0.38,0.38 -0.19778,0.59335 -0.88666,0.69176 -0.88666,0.12667 z m -78.72,-0.50667 c 0,-0.176 0.216,-0.32 0.48,-0.32 0.264,0 0.48,0.144 0.48,0.32 0,0.176 -0.216,0.32 -0.48,0.32 -0.264,0 -0.48,-0.144 -0.48,-0.32 z m 40,0 c 0,-0.176 0.216,-0.32 0.48,-0.32 0.264,0 0.48,0.144 0.48,0.32 0,0.176 -0.216,0.32 -0.48,0.32 -0.264,0 -0.48,-0.144 -0.48,-0.32 z m 27.68,0 c 0.10877,-0.176 0.33327,-0.32 0.49888,-0.32 0.16562,0 0.30112,0.144 0.30112,0.32 0,0.176 -0.2245,0.32 -0.49889,0.32 -0.27439,0 -0.40989,-0.144 -0.30111,-0.32 z m 47.84,0 c 0,-0.176 0.144,-0.32 0.32,-0.32 0.176,0 0.32,0.144 0.32,0.32 0,0.176 -0.144,0.32 -0.32,0.32 -0.176,0 -0.32,-0.144 -0.32,-0.32 z m -78.78497,-4.69769 c -0.63766,-0.167846 -1.04318,-1.203718 -0.69302,-1.770288 0.13383,-0.21654 0.21154,-0.810761 0.1727,-1.320496 -0.0388,-0.509734 0.086,-1.11551 0.27744,-1.346172 0.2551,-0.307383 0.21269,-0.681156 -0.15884,-1.399607 -0.63199,-1.222137 -0.35159,-2.518243 0.64284,-2.971331 0.77463,-0.352947 4.30385,-0.07036 4.30385,0.344611 0,0.128135 -0.13292,0.369773 -0.29538,0.536973 -0.16246,0.1672 -0.34246,0.731459 -0.4,1.253907 -0.10935,0.992778 -0.89445,1.576707 -2.58462,1.922333 -1.514,0.3096 -1.09248,1.12776 0.58103,1.12776 2.41834,0 3.26514,0.904179 2.38572,2.547379 -0.51799,0.967875 -2.61488,1.500522 -4.23172,1.074931 z m 3.25771,-1.055052 c 0.7665,-0.766506 0.53882,-1.541968 -0.53164,-1.810634 -1.47652,-0.370582 -2.99234,0.798634 -2.54538,1.963376 0.27535,0.717571 2.30759,0.616691 3.07702,-0.152742 z M 196.73601,88.896 c 0.61859,-0.618589 0.46564,-2.109789 -0.256,-2.496 -1.29526,-0.693203 -2.65082,0.874464 -1.92647,2.227914 0.38575,0.72078 1.58274,0.867814 2.18247,0.268086 z m 63.0315,5.820781 c -0.46168,-0.284269 -0.52334,-0.666999 -0.37513,-2.328483 0.22305,-2.500391 0.21685,-3.018042 -0.0517,-4.320922 -0.30856,-1.496826 0.49939,-2.319485 2.22895,-2.269517 1.92158,0.05552 3.3132,0.403527 2.8304,0.707811 -0.22,0.138656 -0.4,0.675604 -0.4,1.193216 0,1.197639 -1.01413,2.221114 -2.20082,2.221114 -0.92226,0 -1.81878,0.673734 -1.42307,1.069443 0.11581,0.115805 0.89627,0.210557 1.73437,0.210557 2.40185,0 3.17248,1.151805 1.80952,2.704582 -0.81054,0.923412 -3.20974,1.392679 -4.1525,0.812199 z m 3.2013,-0.814925 c 0.88768,-0.621757 0.92163,-1.631939 0.064,-1.904138 -1.67445,-0.531449 -3.74196,0.875018 -2.85584,1.942736 0.5019,0.604743 1.90094,0.585399 2.79183,-0.0386 z m -0.15396,-5.292326 c 0.45339,-0.724618 0.0267,-2.103098 -0.71064,-2.29592 -1.40206,-0.366647 -2.56198,1.580608 -1.54645,2.596144 0.52255,0.522544 1.85302,0.345574 2.25709,-0.300224 z M 142.56,91.530147 c -0.528,-0.120457 -1.2825,-0.392285 -1.67668,-0.604067 -1.70679,-0.917002 -2.37004,-4.399264 -1.1539,-6.058333 1.26907,-1.731286 4.32374,-2.561405 5.70604,-1.55064 0.52728,0.385552 0.36172,0.43273 -1.40376,0.4 -1.87662,-0.03479 -2.05989,0.02813 -2.93662,1.007943 -0.77373,0.864726 -0.93508,1.325705 -0.93508,2.671612 0,1.412708 0.13285,1.75066 1.01041,2.570426 0.86361,0.806733 1.22391,0.92999 2.48,0.848387 L 145.12,90.72 l 0.0984,-1.36 c 0.0752,-1.03872 -0.0149,-1.36 -0.38111,-1.36 -0.26373,0 -0.56851,-0.144 -0.67729,-0.32 -0.11769,-0.190438 0.26335,-0.32 0.94112,-0.32 H 146.24 v 1.930042 c 0,1.265494 -0.13772,1.972144 -0.4,2.05231 -1.00827,0.308195 -2.40237,0.388013 -3.28,0.187795 z M 115.59047,87.315456 115.68,83.04 l 0.94119,-0.107158 c 1.79889,-0.204816 3.71055,0.286668 4.75912,1.223561 0.95012,0.848938 1.01969,1.054381 1.01969,3.011194 0,1.942643 -0.078,2.178064 -1.03993,3.140029 -0.95662,0.956617 -1.23297,1.04968 -3.44953,1.161609 l -2.4096,0.12168 z m 4.21337,3.258291 c 2.05488,-0.781264 2.38385,-4.518185 0.54258,-6.163366 -1.0779,-0.963101 -3.07918,-1.229619 -3.80242,-0.506381 -0.40148,0.401488 -0.5518,5.526371 -0.18976,6.469827 0.2228,0.580602 2.15397,0.692522 3.4496,0.19992 z m 5.53431,0.737728 c -0.32536,-0.32535 -0.26378,-5.165501 0.0683,-5.370752 0.44972,-0.277942 0.67395,0.66288 0.66864,2.80545 -0.005,1.940937 -0.30755,2.994713 -0.73696,2.565302 z M 129.28,90.88 c -0.46933,-0.469334 -0.64,-1.066666 -0.64,-2.24 0,-1.943066 0.75803,-2.882461 2.32,-2.875101 1.21121,0.0057 1.61271,0.225127 2.09712,1.146077 0.51219,0.973763 -0.0844,1.409024 -1.93116,1.409024 -1.79167,0 -2.20561,0.52344 -1.39376,1.76247 0.41197,0.628749 0.79188,0.79753 1.79518,0.79753 0.69994,0 1.27262,0.144 1.27262,0.32 0,0.61969 -2.83834,0.361658 -3.52,-0.32 z m 3.11471,-3.738336 c 0.17377,-0.529418 -0.95257,-1.065066 -1.78297,-0.847914 -0.40968,0.107136 -0.69174,0.434509 -0.69174,0.80289 0,0.521117 0.19062,0.605885 1.17527,0.522678 0.6464,-0.05463 1.23114,-0.269568 1.29944,-0.477654 z m 17.18801,3.968672 c -0.095,-0.247626 -0.13001,-1.497792 -0.0778,-2.778147 l 0.095,-2.327917 1.36,-0.121523 c 0.77276,-0.06905 1.36,0.01638 1.36,0.197862 0,0.175664 -0.28294,0.319389 -0.62875,0.319389 -0.88267,0 -1.29125,0.949299 -1.29125,3.000077 0,1.692819 -0.45701,2.649145 -0.81729,1.710259 z m 5.36129,0.02566 c -0.4708,-0.470794 -0.52884,-5.056 -0.064,-5.056 0.17947,0 0.32,0.885334 0.32,2.016 0,2.145469 0.33357,2.784 1.4544,2.784 1.16656,0 1.7456,-0.983968 1.7456,-2.96631 0,-1.777408 0.39251,-2.62018 0.76647,-1.64568 0.10644,0.277385 0.19353,1.480982 0.19353,2.674665 v 2.170333 l -1.48467,0.203498 c -2.07276,0.284102 -2.49258,0.258249 -2.93133,-0.180506 z m 7.616,-2.29913 V 86.15374 l 1.69498,-0.211776 c 2.01531,-0.251795 2.65765,-0.05745 2.90911,0.880166 0.24622,0.918068 0.24771,3.550512 0.002,4.189856 -0.38651,1.007239 -0.76658,0.105136 -0.77137,-1.830876 -0.006,-2.394973 -0.25818,-2.865316 -1.46241,-2.72674 -1.18039,0.135837 -1.72182,1.196672 -1.72797,3.385626 -0.003,0.924 -0.14872,1.68 -0.32472,1.68 -0.18789,0 -0.32,-1.107709 -0.32,-2.68313 z m 7.80959,2.009533 c -0.4278,-0.47271 -0.60959,-1.149171 -0.60959,-2.268272 0,-1.873177 0.84882,-2.818131 2.53145,-2.818131 1.36915,0 1.78855,-0.502746 1.78855,-2.144 0,-0.7568 0.144,-1.376 0.32,-1.376 0.19795,0 0.32,1.69271 0.32,4.438131 v 4.438131 l -1.2,0.198346 c -1.95687,0.32345 -2.50811,0.241526 -3.15041,-0.468205 z m 3.12521,-0.496 c 1.05974,-0.959053 0.56183,-4.290169 -0.63766,-4.266035 -0.84507,0.01702 -1.63275,0.487549 -1.93814,1.157811 -1.0891,2.390323 0.82149,4.69585 2.5758,3.108224 z m 4.8092,0.785597 c -0.46849,-0.468486 -0.52326,-4.932163 -0.064,-5.216 0.1985,-0.122682 0.32,0.469734 0.32,1.560282 0,2.364601 0.42092,3.399718 1.38248,3.399718 1.18635,0 1.76999,-0.921971 1.87931,-2.968762 0.14961,-2.801033 0.72427,-2.383337 0.83042,0.603594 l 0.0922,2.594829 -1.49688,0.205171 c -2.08568,0.285872 -2.50427,0.260442 -2.94354,-0.178832 z m 7.616,-2.29913 V 86.15374 l 1.69499,-0.211776 c 2.0153,-0.251795 2.65764,-0.05745 2.9091,0.880166 0.24622,0.918068 0.24771,3.550512 0.002,4.189856 -0.38651,1.007239 -0.76658,0.105136 -0.77137,-1.830876 -0.006,-2.394973 -0.25818,-2.865316 -1.46241,-2.72674 -1.18039,0.135837 -1.72182,1.196672 -1.72797,3.385626 -0.003,0.924 -0.14872,1.68 -0.32472,1.68 -0.18789,0 -0.32,-1.107709 -0.32,-2.68313 z m 15.17115,2.316461 c -0.15968,-0.258371 0.0257,-0.303341 0.62769,-0.152256 0.98384,0.246931 2.12116,-0.249475 2.12116,-0.92583 0,-0.254231 -0.57119,-0.753635 -1.2693,-1.109786 -1.67556,-0.854806 -2.17598,-1.764038 -1.42661,-2.59208 0.62392,-0.689427 2.82774,-0.85672 3.20678,-0.243427 0.16259,0.263082 -0.0517,0.313891 -0.74168,0.175885 -0.59837,-0.119674 -1.19848,-0.02723 -1.56551,0.241149 -0.57972,0.423904 -0.57946,0.452588 0.0101,1.104112 0.33294,0.367897 0.77393,0.668902 0.97998,0.668902 0.45176,0 1.76618,1.347792 1.76618,1.811027 0,1.089101 -3.13372,1.952874 -3.70884,1.022304 z m 6.48699,0.158144 c -0.11998,-0.119977 -0.21814,-1.173341 -0.21814,-2.340809 0,-1.18112 -0.16432,-2.28698 -0.37044,-2.493104 -0.25459,-0.254586 -0.26867,-0.499776 -0.045,-0.784 0.17898,-0.22746 0.41938,-0.908112 0.53424,-1.512564 0.2892,-1.522124 1.05089,-2.260994 2.33079,-2.260994 0.58872,0 1.07041,0.144 1.07041,0.32 0,0.176 -0.34972,0.32 -0.77715,0.32 -0.42743,0 -1.00343,0.226285 -1.28,0.502858 -0.64335,0.643353 -0.65835,2.337558 -0.0228,2.58142 0.264,0.101309 0.48,0.312788 0.48,0.469959 0,0.157168 -0.216,0.285763 -0.48,0.285763 -0.37878,0 -0.48104,0.45551 -0.4849,2.16 -0.005,2.104918 -0.29605,3.192387 -0.73696,2.751475 z m 4.52586,-0.123673 c -0.84901,-0.49537 -1.3439,-2.383466 -0.93339,-3.561047 0.44782,-1.284614 1.21012,-1.843913 2.53042,-1.856579 1.49581,-0.01434 2.19038,0.45119 2.62131,1.756928 0.42948,1.301341 0.0467,2.842294 -0.88093,3.546406 -0.65677,0.498516 -2.56679,0.563924 -3.33741,0.114292 z m 3.07785,-1.019005 c 1.4376,-2.052451 -0.61726,-4.942019 -2.45575,-3.453306 -0.82742,0.670003 -0.98997,2.788202 -0.27965,3.64409 0.63417,0.764128 2.14012,0.659094 2.7354,-0.190784 z m 4.01854,-1.429911 3.2e-4,-2.818886 h 1.25226 c 0.68874,0 1.36057,0.108 1.49294,0.24 0.13238,0.132 -0.0632,0.24 -0.4345,0.24 -1.02423,0 -1.67148,1.197437 -1.67148,3.092317 0,0.918451 -0.144,1.758909 -0.32,1.867683 -0.20409,0.126138 -0.31986,-0.823251 -0.31961,-2.621114 z m 5.14283,1.937959 c -0.83716,-1.064275 -0.87317,-2.986672 -0.0744,-3.973079 0.38495,-0.475385 1.07739,-0.792332 2,-0.915449 L 227.68001,85.6 l 0.16,-1.575184 c 0.088,-0.866352 0.34,-1.634352 0.56,-1.706669 0.30717,-0.100966 0.4,0.904688 0.4,4.333315 v 4.4648 l -1.2,0.198346 c -2.04288,0.337667 -2.57083,0.234282 -3.25678,-0.637763 z M 227.45601,90.496 c 0.2112,-0.2112 0.384,-1.142134 0.384,-2.068742 0,-1.661623 -0.46122,-2.347258 -1.57897,-2.347258 -1.37919,0 -2.16379,3.029866 -1.09144,4.214803 0.60499,0.668499 1.72091,0.766698 2.28641,0.201197 z m 4.56722,0.180845 c -0.40175,-0.510743 -0.66322,-1.313763 -0.66322,-2.036845 0,-1.762736 0.99927,-2.88 2.57585,-2.88 0.97854,0 1.36268,0.172893 1.77196,0.79753 0.84347,1.287305 0.40732,1.76247 -1.61777,1.76247 -1.66083,0 -1.77004,0.04795 -1.77004,0.777142 0,1.141648 0.82063,1.782858 2.28174,1.782858 0.7692,0 1.19748,0.127101 1.07826,0.32 -0.10878,0.176 -0.82682,0.32 -1.59566,0.32 -1.12902,0 -1.52546,-0.162173 -2.06112,-0.843155 z m 3.04678,-3.365389 c 0.20273,-0.328022 -0.64095,-1.231456 -1.15,-1.231456 -0.10873,0 -0.4632,0.194154 -0.78773,0.431456 -0.77563,0.567155 -0.37023,1.168544 0.78773,1.168544 0.50722,0 1.02472,-0.165846 1.15,-0.368544 z m 8.76208,3.387712 c -0.34638,-0.911046 -0.41957,-3.646714 -0.11855,-4.431158 0.37979,-0.989728 0.76647,-0.119632 0.76647,1.724704 0,2.457212 0.19306,2.887286 1.29609,2.887286 1.26823,0 1.90391,-1.038768 1.90391,-3.111203 0,-0.928839 0.144,-1.688797 0.32,-1.688797 0.18622,0 0.32,1.05271 0.32,2.518131 v 2.518131 l -1.2,0.198346 c -2.32215,0.383827 -2.95289,0.265766 -3.28792,-0.61544 z m 7.86063,0.11392 c -0.0913,-0.4032 -0.13155,-1.647706 -0.0894,-2.765574 l 0.0767,-2.032484 1.87173,-0.140364 c 1.09346,-0.082 2.04656,0.0047 2.29219,0.208585 0.52967,0.439591 0.92151,3.177207 0.63891,4.463863 -0.37268,1.696787 -0.80283,1.052163 -0.80283,-1.203114 0,-2.326483 -0.31167,-2.944 -1.48586,-2.944 -1.06468,0 -1.71414,1.171626 -1.71414,3.092317 0,1.744982 -0.50087,2.585254 -0.78729,1.320771 z M 238.72001,88.64 c 0,-1.958787 0.10333,-2.56 0.44,-2.56 0.242,0 0.89,-0.09 1.44,-0.2 0.61468,-0.122938 1,-0.06986 1,0.137744 0,0.18576 -0.3204,0.38376 -0.71199,0.44 -0.94195,0.135283 -1.51749,1.352733 -1.5233,3.222256 -0.003,0.836 -0.14871,1.52 -0.32471,1.52 -0.18667,0 -0.32,-1.066666 -0.32,-2.56 z M 155.09334,84.266666 C 154.72513,83.898464 154.8603,83.52 155.36001,83.52 c 0.264,0 0.48,0.216 0.48,0.48 0,0.499702 -0.37847,0.63487 -0.74667,0.266666 z m 2.8887,0.0087 c -0.25566,-0.255661 0.0333,-0.75537 0.43685,-0.75537 0.16561,0 0.30112,0.216 0.30112,0.48 0,0.494851 -0.37759,0.635744 -0.73797,0.275366 z m 54.4,0 c -0.25566,-0.255661 0.0333,-0.75537 0.43685,-0.75537 0.16562,0 0.30112,0.216 0.30112,0.48 0,0.494851 -0.37759,0.635744 -0.73797,0.275366 z m 2.24,0 c -0.25566,-0.255661 0.0333,-0.75537 0.43685,-0.75537 0.16562,0 0.30112,0.216 0.30112,0.48 0,0.494851 -0.37759,0.635744 -0.73797,0.275366 z M 125.18134,83.496 c 0.0631,-0.1892 0.25146,-0.344 0.41866,-0.344 0.1672,0 0.3556,0.1548 0.41867,0.344 0.0631,0.1892 -0.12533,0.344 -0.41867,0.344 -0.29333,0 -0.48173,-0.1548 -0.41866,-0.344 z m 17.53659,-9.858122 c -2.46354,-0.801187 -3.75518,-1.959891 -4.86229,-4.361865 C 137.12192,67.684154 137.12,67.64168 137.12,52.96 V 38.24 l 4.4,-0.08903 4.4,-0.08903 0.002,12.569031 c 0.002,15.413254 0.15779,16.24903 3.02517,16.24903 1.73624,0 3.58115,-1.176115 6.98175,-4.450819 l 2.6313,-2.533872 0.16,-10.827655 0.16,-10.827654 4.40271,-0.08905 4.40272,-0.08905 -0.0827,17.68905 -0.0828,17.689046 -3.95501,0.09013 c -2.64265,0.06022 -4.10267,-0.03242 -4.4,-0.279184 -0.30106,-0.249856 -0.44499,-1.081177 -0.44499,-2.570128 0,-1.374707 -0.1309,-2.200819 -0.34872,-2.200819 -0.1918,0 -1.1638,0.727786 -2.16,1.617302 -0.99621,0.889517 -2.74173,2.076272 -3.87894,2.637232 -1.88121,0.927965 -2.37173,1.026436 -5.44,1.092064 -1.85479,0.03967 -3.73328,-0.04525 -4.17442,-0.18872 z M 116.24,73.38807 c -0.31134,-0.125628 -0.4,-3.227254 -0.4,-13.993574 0,-10.56887 -0.0944,-13.957597 -0.4,-14.363802 -0.30272,-0.402345 -1.02256,-0.553401 -2.96,-0.621161 l -2.56,-0.08953 -0.0926,-2.430387 c -0.0645,-1.694691 0.0323,-2.530355 0.32,-2.760634 0.22691,-0.181635 1.41788,-0.501977 2.6466,-0.711872 1.22871,-0.209894 2.41671,-0.533241 2.64,-0.718547 0.28725,-0.2384 0.40596,-1.475501 0.40596,-4.230512 0,-2.418923 0.18079,-4.587669 0.47734,-5.726193 1.39187,-5.343746 4.73049,-8.820843 9.90314,-10.313878 2.85492,-0.824043 9.02496,-0.520169 12.54959,0.618066 1.43553,0.463588 2.9067,1.092878 3.26925,1.398422 0.65739,0.554016 0.65427,0.564134 -1.13895,3.700073 -1.34108,2.345253 -1.92805,3.100657 -2.30925,2.971901 -0.28111,-0.09495 -1.51912,-0.534275 -2.75112,-0.976276 -4.81648,-1.727999 -8.30174,-0.748298 -10.15374,2.854194 -0.85245,1.658179 -1.52847,8.831819 -0.90327,9.585137 0.29813,0.359229 1.25297,0.50217 3.80747,0.569988 L 132,38.24 v 3.04 3.04 l -3.34152,0.09188 c -1.83783,0.05053 -3.52983,0.24816 -3.76,0.439181 -0.33297,0.276346 -0.41848,3.209107 -0.41848,14.353891 0,12.476973 -0.0553,14.027792 -0.50617,14.200816 -0.60033,0.230371 -7.15623,0.21537 -7.73383,-0.0177 z"
       id="path821"
       inkscape:connector-curvature="0" />
    <path
       style="fill:#083a65;stroke-width:0.31999999"
       d="m 202.56001,106.72 c 0,-0.264 0.144,-0.48 0.32,-0.48 0.176,0 0.32,0.216 0.32,0.48 0,0.264 -0.144,0.48 -0.32,0.48 -0.176,0 -0.32,-0.216 -0.32,-0.48 z m 34.08,-0.16 c 0.10877,-0.176 0.26127,-0.32 0.33888,-0.32 0.0776,0 0.14112,0.144 0.14112,0.32 0,0.176 -0.1525,0.32 -0.33889,0.32 -0.18639,0 -0.24989,-0.144 -0.14111,-0.32 z m 17.14739,-0.16 c 0.0333,-0.60615 0.56664,-1.62683 0.58522,-1.12 0.01,0.264 -0.122,0.696 -0.29261,0.96 -0.17061,0.264 -0.30229,0.336 -0.29261,0.16 z m -138.88213,-1.62667 c 0.0154,-0.37278 0.0912,-0.4486 0.19333,-0.19333 0.0924,0.231 0.0811,0.507 -0.0252,0.61333 -0.10633,0.10634 -0.18196,-0.0827 -0.16807,-0.42 z M 236.48001,104.64 c 0,-0.176 0.144,-0.32 0.32,-0.32 0.176,0 0.32,0.144 0.32,0.32 0,0.176 -0.144,0.32 -0.32,0.32 -0.176,0 -0.32,-0.144 -0.32,-0.32 z m -85.76,-0.62111 c 0,-0.36239 0.144,-0.65889 0.32,-0.65889 0.176,0 0.32,0.2075 0.32,0.46111 0,0.25362 -0.144,0.55012 -0.32,0.65889 -0.176,0.10877 -0.32,-0.0987 -0.32,-0.46111 z m 10.56,-0.0189 c 0,-0.59733 0.0853,-0.68267 0.384,-0.384 0.29866,0.29867 0.29866,0.46933 0,0.768 -0.29867,0.29867 -0.384,0.21333 -0.384,-0.384 z M 122.88,103.82111 c 0,-0.27438 0.14635,-0.40843 0.32522,-0.29788 0.17887,0.11054 0.24238,0.33504 0.14112,0.49888 -0.27432,0.44385 -0.46634,0.36109 -0.46634,-0.201 z m 84.48001,0 c 0,-0.27438 0.14635,-0.40843 0.32522,-0.29788 0.17887,0.11054 0.24237,0.33504 0.14111,0.49888 -0.27431,0.44385 -0.46633,0.36109 -0.46633,-0.201 z m 49.92,0 c 0,-0.27438 0.14635,-0.40843 0.32522,-0.29788 0.17887,0.11054 0.24237,0.33504 0.14111,0.49888 -0.27431,0.44385 -0.46633,0.36109 -0.46633,-0.201 z M 139.2,103.36 c 0,-0.59733 0.0853,-0.68267 0.384,-0.384 0.29867,0.29867 0.29867,0.46933 0,0.768 -0.29866,0.29867 -0.384,0.21333 -0.384,-0.384 z m -8.90947,-0.32 c 0,-0.44 0.0726,-0.62 0.1614,-0.4 0.0888,0.22 0.0888,0.58 0,0.8 -0.0888,0.22 -0.1614,0.04 -0.1614,-0.4 z M 146.24,103.0211 c 0,-0.36238 0.13772,-0.57377 0.30603,-0.46975 0.16831,0.10403 0.22491,0.40052 0.12576,0.65889 -0.25383,0.66147 -0.43179,0.58353 -0.43179,-0.18914 z m 22.40001,0 c 0,-0.36238 0.13771,-0.57377 0.30602,-0.46975 0.16831,0.10403 0.22491,0.40052 0.12576,0.65889 -0.25383,0.66147 -0.43178,0.58353 -0.43178,-0.18914 z m 21.44,0 c 0,-0.36238 0.13771,-0.57377 0.30602,-0.46975 0.16832,0.10403 0.22491,0.40052 0.12577,0.65889 -0.25384,0.66147 -0.43179,0.58353 -0.43179,-0.18914 z m 24.64,0 c 0,-0.36238 0.13771,-0.57377 0.30602,-0.46975 0.16832,0.10403 0.22491,0.40052 0.12577,0.65889 -0.25384,0.66147 -0.43179,0.58353 -0.43179,-0.18914 z m 34.61052,0.0189 c 0,-0.44 0.0726,-0.62 0.16141,-0.4 0.0888,0.22 0.0888,0.58 0,0.8 -0.0888,0.22 -0.16141,0.04 -0.16141,-0.4 z m 14.98948,0.19777 c 0,-0.264 0.144,-0.569 0.32,-0.67777 0.176,-0.10877 0.32,0.0182 0.32,0.28223 0,0.264 -0.144,0.569 -0.32,0.67777 -0.176,0.10877 -0.32,-0.0182 -0.32,-0.28223 z m 12.97367,-0.17566 c -0.10126,-0.16384 -0.0378,-0.38834 0.14111,-0.49888 0.17887,-0.11055 0.32522,0.0235 0.32522,0.29788 0,0.56209 -0.19202,0.64485 -0.46633,0.201 z m -158.40001,-0.64 c -0.21858,-0.35367 0.28621,-0.73557 0.5817,-0.44008 0.30425,0.30425 0.24755,0.73797 -0.0965,0.73797 -0.16561,0 -0.38396,-0.13405 -0.48522,-0.29789 z m 110.27578,-0.16216 c 0.0608,-0.29357 0.25456,-0.52615 0.43056,-0.51685 0.47497,0.0251 0.38771,0.741 -0.11056,0.90709 -0.26916,0.0897 -0.38912,-0.0566 -0.32,-0.39024 z M 240.48001,102.4 c -0.12773,-0.20667 -0.0882,-0.51976 0.0878,-0.69576 0.21334,-0.21334 0.39742,-0.19475 0.55224,0.0558 0.12773,0.20667 0.0882,0.51976 -0.0878,0.69576 -0.21333,0.21334 -0.39741,0.19475 -0.55223,-0.0558 z m 13.00358,-1.01383 c -0.024,-0.2936 -0.13678,-0.7976 -0.25068,-1.12 -0.15986,-0.452487 -0.1172,-0.503364 0.1871,-0.22308 0.2168,0.1997 0.3296,0.7037 0.25067,1.12 -0.0789,0.4163 -0.16313,0.51669 -0.18709,0.22308 z m -59.44538,-9.69969 c -0.26438,-0.688979 -0.0497,-0.841264 0.43861,-0.31112 0.25212,0.273718 0.28047,0.502714 0.0777,0.628006 -0.17549,0.108458 -0.40785,-0.03414 -0.51635,-0.316886 z m 65.8018,-0.02537 c 0,-0.274388 0.144,-0.409888 0.32,-0.301114 0.176,0.108774 0.32,0.333274 0.32,0.498886 0,0.165613 -0.144,0.301114 -0.32,0.301114 -0.176,0 -0.32,-0.224499 -0.32,-0.498886 z M 158.42527,90.37333 c 0.0154,-0.372784 0.0912,-0.448608 0.19333,-0.193334 0.0924,0.230998 0.0811,0.507002 -0.0252,0.613334 -0.10633,0.106333 -0.18196,-0.08267 -0.16807,-0.42 z m 15.53901,0.02666 c 0.10131,-0.264 0.24079,-0.48 0.30996,-0.48 0.0692,0 0.12577,0.216 0.12577,0.48 0,0.264 -0.13949,0.48 -0.30996,0.48 -0.17048,0 -0.22707,-0.216 -0.12577,-0.48 z m 7.79573,0.0189 c 0,-0.253612 0.144,-0.550112 0.32,-0.658886 0.176,-0.108774 0.32,0.09873 0.32,0.461114 0,0.362387 -0.144,0.658886 -0.32,0.658886 -0.176,0 -0.32,-0.207501 -0.32,-0.461114 z m 46.08,0.16 c 0,-0.165612 0.144,-0.390112 0.32,-0.498886 0.176,-0.108774 0.32,0.02672 0.32,0.301114 0,0.274387 -0.144,0.498886 -0.32,0.498886 -0.176,0 -0.32,-0.135501 -0.32,-0.301114 z m 19.86526,-0.205552 c 0.0154,-0.372784 0.0912,-0.448608 0.19333,-0.193334 0.0924,0.230998 0.0811,0.507002 -0.0252,0.613334 -0.10634,0.106333 -0.18197,-0.08267 -0.16807,-0.42 z M 139.89553,89.36 c -0.53553,-1.044966 -0.6955,-2.264547 -0.39527,-3.013574 0.24958,-0.622688 0.30254,-0.49096 0.31946,0.794611 0.0112,0.847571 0.16935,1.819571 0.35154,2.16 0.18219,0.340429 0.25926,0.618963 0.17126,0.618963 -0.088,0 -0.28915,-0.252 -0.44699,-0.56 z m 84.17872,-0.72 c 0,-0.616 0.0658,-0.868 0.14634,-0.56 0.0805,0.308 0.0805,0.812 0,1.12 -0.0805,0.308 -0.14634,0.056 -0.14634,-0.56 z M 121.82814,87.953501 c 0.10033,-0.890167 -0.0247,-1.853152 -0.33812,-2.603152 -0.59356,-1.420599 -0.42669,-1.577571 0.26177,-0.24624 0.534,1.032646 0.64197,3.117641 0.19776,3.819046 -0.17379,0.27441 -0.22002,-0.09482 -0.12141,-0.969654 z M 169.97053,88.64 c 0,-0.44 0.0726,-0.62 0.16141,-0.4 0.0888,0.22 0.0888,0.58 0,0.8 -0.0888,0.22 -0.16141,0.04 -0.16141,-0.4 z M 128.96,87.821114 c 0,-0.274388 0.14635,-0.408436 0.32522,-0.297888 0.17887,0.110547 0.24238,0.335046 0.14112,0.498886 -0.27432,0.443853 -0.46634,0.361091 -0.46634,-0.200998 z m 102.72001,0.03777 c 0,-0.274387 0.144,-0.498886 0.32,-0.498886 0.176,0 0.32,0.135501 0.32,0.301114 0,0.165612 -0.144,0.390112 -0.32,0.498886 -0.176,0.108774 -0.32,-0.02672 -0.32,-0.301114 z M 259.57053,87.68 c 0,-0.44 0.0726,-0.62 0.16141,-0.4 0.0888,0.22 0.0888,0.58 0,0.8 -0.0888,0.22 -0.16141,0.04 -0.16141,-0.4 z M 149.76001,87.058886 c 0,-0.362387 0.144,-0.658886 0.32,-0.658886 0.176,0 0.32,0.207501 0.32,0.461114 0,0.253612 -0.144,0.550112 -0.32,0.658886 -0.176,0.108774 -0.32,-0.09873 -0.32,-0.461114 z M 162.8849,87.12 c -0.003,-0.396 0.13911,-0.72 0.31511,-0.72 0.40093,0 0.40093,0.339597 0,0.96 -0.25084,0.388147 -0.31114,0.342221 -0.31511,-0.24 z m 23.35511,-0.09889 c 0,-0.362388 0.13771,-0.573776 0.30602,-0.469751 0.16832,0.104023 0.22491,0.400522 0.12577,0.658887 -0.25384,0.661475 -0.43179,0.583526 -0.43179,-0.189136 z m 33.28,0 c 0,-0.362388 0.13771,-0.573776 0.30602,-0.469751 0.16832,0.104023 0.22491,0.400522 0.12577,0.658887 -0.25384,0.661475 -0.43179,0.583526 -0.43179,-0.189136 z m 19.5249,0.09889 c -0.003,-0.396 0.1391,-0.72 0.3151,-0.72 0.40093,0 0.40093,0.339597 0,0.96 -0.25084,0.388147 -0.31114,0.342221 -0.3151,-0.24 z m -41.6049,-0.221114 c 0,-0.274387 0.144,-0.498886 0.32,-0.498886 0.176,0 0.32,0.135501 0.32,0.301114 0,0.165612 -0.144,0.390112 -0.32,0.498886 -0.176,0.108774 -0.32,-0.02672 -0.32,-0.301114 z m 54.72,-0.03777 c 0,-0.274388 0.14635,-0.408436 0.32522,-0.297888 0.17887,0.110547 0.24237,0.335046 0.14111,0.498886 -0.27431,0.443853 -0.46633,0.361091 -0.46633,-0.200998 z m 11.08428,0.01888 c -0.10131,-0.264 -0.0447,-0.48 0.12576,-0.48 0.17048,0 0.30996,0.216 0.30996,0.48 0,0.264 -0.0566,0.48 -0.12576,0.48 -0.0692,0 -0.20865,-0.216 -0.30996,-0.48 z m -35.22054,-0.373511 c -0.1126,-0.29343 -0.056,-0.68223 0.12577,-0.864 0.22732,-0.227312 0.33049,-0.06077 0.33049,0.533517 0,0.987152 -0.15984,1.102934 -0.45626,0.33049 z m -54.12098,-0.134371 c -0.11825,-0.191338 -0.0547,-0.508138 0.14112,-0.704 0.26149,-0.261485 0.35612,-0.169046 0.35612,0.347888 0,0.772643 -0.16623,0.891696 -0.49724,0.356118 z m 33.59937,-0.06329 c -0.30089,-0.784093 0.19327,-1.401748 0.57531,-0.719085 0.20444,0.365318 0.19302,0.667792 -0.0338,0.894601 -0.24356,0.243562 -0.40018,0.192797 -0.54152,-0.175516 z M 144,73.556035 C 141.27779,73.10881 139.54091,71.881818 138.4,69.6 L 137.44,67.68 137.345,53.04 137.25,38.4 h 4.17502 4.17502 l 0.002,12.4 c 0.001,7.949504 0.12701,12.859405 0.35068,13.68 0.51976,1.906906 1.41676,2.72 3.00067,2.72 1.80013,0 3.80935,-1.307402 7.28687,-4.741565 l 2.79987,-2.765091 V 49.046672 38.4 h 4.16 4.16 V 55.849562 73.29912 l -4.08,-0.08956 -4.08,-0.08956 -0.0956,-2.399626 c -0.0526,-1.319795 -0.21901,-2.523004 -0.3698,-2.673798 -0.15223,-0.152227 -1.19605,0.507888 -2.34688,1.484166 -2.8577,2.424263 -4.58423,3.368919 -7.15135,3.91281 -2.44497,0.518013 -2.7306,0.524147 -5.23635,0.112483 z M 116.38295,73.076278 C 116.26033,72.953658 116.16,66.623619 116.16,59.009523 116.16,46.850909 116.0988,45.104502 115.65715,44.662858 115.28412,44.289834 114.49575,44.16 112.60369,44.16 h -2.55061 l 0.0935,-2.479203 0.0935,-2.4792 2.65406,-0.4808 c 1.57526,-0.285367 2.77642,-0.675904 2.9551,-0.960797 0.16557,-0.264 0.30325,-2.213747 0.30594,-4.332768 0.005,-4.216056 0.45499,-6.522234 1.78226,-9.141476 1.6693,-3.29422 4.33494,-5.398173 8.28312,-6.537779 2.92959,-0.845595 9.06193,-0.528961 12.57372,0.649224 3.92584,1.317096 3.84376,1.122557 1.8914,4.482799 -1.01863,1.753165 -1.85572,2.853084 -2.13947,2.811206 C 138.28976,25.653369 137,25.241185 135.68,24.775241 c -1.97584,-0.697448 -2.78168,-0.820092 -4.55965,-0.693957 -4.19707,0.297755 -6.17284,2.724291 -6.66053,8.180079 C 123.9002,38.521878 123.81993,38.4 128.50286,38.4 H 131.84 v 2.88 2.88 l -3.28,0.0049 c -1.804,0.0026 -3.496,0.14136 -3.76,0.308144 -0.41083,0.259549 -0.50305,2.345376 -0.64,14.475101 l -0.16,14.171856 -3.69705,0.08961 c -2.03338,0.04929 -3.79738,-0.01072 -3.92,-0.133331 z"
       id="path819"
       inkscape:connector-curvature="0" />
  </g>
</svg>
