<?xml version="1.0" encoding="UTF-8" standalone="no"?>
<svg
   xmlns:dc="http://purl.org/dc/elements/1.1/"
   xmlns:cc="http://creativecommons.org/ns#"
   xmlns:rdf="http://www.w3.org/1999/02/22-rdf-syntax-ns#"
   xmlns:svg="http://www.w3.org/2000/svg"
   xmlns="http://www.w3.org/2000/svg"
   xmlns:xlink="http://www.w3.org/1999/xlink"
   xmlns:sodipodi="http://sodipodi.sourceforge.net/DTD/sodipodi-0.dtd"
   xmlns:inkscape="http://www.inkscape.org/namespaces/inkscape"
   data-v-423bf9ae=""
   viewBox="0 0 968.26056 99.275002"
   class="iconLeftSlogan"
   version="1.1"
   id="svg20"
   sodipodi:docname="logo-minus-slogan.svg"
   inkscape:version="0.92.5 (2060ec1f9f, 2020-04-08)"
   width="968.26056"
   height="99.275002">
  <metadata
     id="metadata24">
    <rdf:RDF>
      <cc:Work
         rdf:about="">
        <dc:format>image/svg+xml</dc:format>
        <dc:type
           rdf:resource="http://purl.org/dc/dcmitype/StillImage" />
        <dc:title></dc:title>
      </cc:Work>
    </rdf:RDF>
  </metadata>
  <sodipodi:namedview
     pagecolor="#ffffff"
     bordercolor="#666666"
     borderopacity="1"
     objecttolerance="10"
     gridtolerance="10"
     guidetolerance="10"
     inkscape:pageopacity="0"
     inkscape:pageshadow="2"
     inkscape:window-width="1920"
     inkscape:window-height="1016"
     id="namedview22"
     showgrid="false"
     inkscape:zoom="1.2025626"
     inkscape:cx="455.16975"
     inkscape:cy="-220.02187"
     inkscape:window-x="0"
     inkscape:window-y="27"
     inkscape:window-maximized="1"
     inkscape:current-layer="svg20"
     fit-margin-top="0"
     fit-margin-left="0"
     fit-margin-right="0"
     fit-margin-bottom="0" />
  <!---->
  <!---->
  <!---->
  <g
     data-v-423bf9ae=""
     id="6625b589-c8b0-4f1d-8de5-77685cd4e76e"
     transform="matrix(5.9352516,0,0,5.9352516,133.64549,16.848921)"
     style="fill:#000000">
    <path
       d="M 8.75,3.86 C 8.75,2 7.59,0.71 5.03,0.71 H 1.04 V 10.5 H 3.28 V 7.17 h 1.84 c 2.52,0 3.63,-1.63 3.63,-3.31 z M 6.48,3.89 C 6.48,4.8 5.96,5.4 4.84,5.4 H 3.28 V 2.45 h 1.51 c 1.12,0 1.69,0.5 1.69,1.44 z m 8.49,0.86 V 2.88 C 14.8,2.86 14.59,2.86 14.49,2.86 13.37,2.86 12.74,3.5 12.53,4.35 12.52,3.92 12.46,3.33 12.43,3 h -2.15 c 0.02,0.16 0.07,1.3 0.07,1.77 v 5.73 h 2.21 V 6.61 c 0,-1.12 0.52,-1.91 1.66,-1.91 0.24,0 0.44,0 0.75,0.05 z m 6.06,2 c 0,1.66 -0.51,2.43 -1.57,2.43 -0.95,0 -1.53,-0.85 -1.53,-2.43 0,-1.58 0.51,-2.37 1.57,-2.37 0.97,0 1.53,0.8 1.53,2.37 z m 2.22,-0.02 c 0,-2.28 -1.09,-3.87 -3.76,-3.87 -2.56,0 -3.8,1.61 -3.8,3.87 0,2.36 1.25,3.91 3.76,3.91 2.56,0 3.8,-1.54 3.8,-3.91 z m 5.91,3.77 h 2.2 V 6.27 c 0,-1.13 0.5,-1.75 1.2,-1.75 0.76,0 0.98,0.52 0.98,1.47 v 4.51 h 2.24 V 5.61 C 35.78,4 35.18,2.86 33.54,2.86 32.48,2.86 31.6,3.42 31.26,4.59 31.05,3.67 30.52,2.86 29.13,2.86 28.1,2.86 27.29,3.39 26.94,4.52 26.91,3.93 26.85,3.18 26.84,3 h -2.13 c 0.03,0.28 0.07,1.05 0.07,1.69 v 5.81 h 2.2 V 6.36 c 0,-1.25 0.49,-1.84 1.19,-1.84 0.75,0 0.99,0.52 0.99,1.54 z m 11.57,0.14 c 2.31,0 3.03,-1.09 3.31,-2.31 L 41.97,8.2 C 41.85,8.93 41.48,9.24 40.8,9.24 39.75,9.24 39.41,8.3 39.41,7.35 v -0.2 h 4.75 c 0,0 0.02,-0.32 0.02,-0.65 0,-2.09 -0.85,-3.64 -3.44,-3.64 -2,0 -3.65,0.92 -3.65,3.85 0,2.64 1.3,3.93 3.64,3.93 z M 40.7,4.17 c 0.75,0 1.23,0.39 1.23,1.7 V 5.89 H 39.41 C 39.45,4.56 39.98,4.17 40.7,4.17 Z m 4.18,0.41 h 1 v 3.93 c 0,1.39 0.71,2.13 1.99,2.13 0.78,0 1.21,-0.06 1.66,-0.08 V 8.81 h -0.7 c -0.57,0 -0.75,-0.17 -0.75,-0.7 V 4.58 H 49.5 V 3 H 48.08 V 0.7 h -2.2 V 3 h -1 z M 53.34,3.15 V -0.48 H 51.11 V 10.5 h 2.23 V 6.51 c 0,-1.15 0.53,-1.97 1.4,-1.97 0.85,0 1.16,0.68 1.16,1.75 v 4.21 h 2.23 V 5.7 c 0,-1.71 -0.74,-2.84 -2.44,-2.84 -1.02,0 -2,0.49 -2.41,1.77 0.03,-0.39 0.06,-0.95 0.06,-1.48 z m 9.72,7.49 c 2.31,0 3.03,-1.09 3.31,-2.31 L 64.3,8.2 c -0.12,0.73 -0.49,1.04 -1.17,1.04 -1.05,0 -1.39,-0.94 -1.39,-1.89 v -0.2 h 4.75 c 0,0 0.02,-0.32 0.02,-0.65 0,-2.09 -0.85,-3.64 -3.44,-3.64 -2,0 -3.65,0.92 -3.65,3.85 0,2.64 1.3,3.93 3.64,3.93 z M 63.03,4.17 c 0.75,0 1.23,0.39 1.23,1.7 V 5.89 H 61.74 C 61.78,4.56 62.31,4.17 63.03,4.17 Z M 70.06,3 h -2.22 v 5.01 c 0,1.34 0.58,2.63 2.43,2.63 1.03,0 1.91,-0.42 2.4,-1.68 0,0.35 0.09,1.4 0.1,1.54 H 74.9 C 74.87,10.33 74.84,9.27 74.84,8.81 V 3 h -2.22 v 4.08 c 0,1.19 -0.53,1.89 -1.4,1.89 -0.88,0 -1.16,-0.51 -1.16,-1.56 z m 12.72,5.19 c 0,-1.51 -1.12,-2 -2.66,-2.35 -1.47,-0.34 -1.64,-0.58 -1.64,-1.01 0,-0.34 0.27,-0.62 0.94,-0.62 0.63,0 1.11,0.31 1.14,0.9 l 2.03,-0.14 c -0.17,-1.22 -1.31,-2.11 -3.1,-2.11 -1.96,0 -2.99,0.91 -2.99,2.25 0,1.23 0.61,1.97 2.5,2.41 1.22,0.28 1.58,0.47 1.58,0.98 0,0.46 -0.33,0.74 -1.07,0.74 -0.87,0 -1.19,-0.52 -1.25,-1.02 l -1.99,0.22 c 0.17,1.15 1.01,2.2 3.26,2.2 2.16,0 3.25,-0.91 3.25,-2.45 z M 95.86,7.66 C 95.86,5.35 93.98,4.97 92.15,4.59 90.8,4.31 90.02,4.13 90.02,3.22 c 0,-0.59 0.39,-1.06 1.57,-1.06 1.08,0 1.65,0.39 1.83,1.2 L 95.58,3.08 C 95.26,1.4 94.19,0.57 91.66,0.57 c -2.3,0 -3.82,0.94 -3.82,2.76 0,1.99 1.63,2.61 3.29,2.96 1.4,0.29 2.56,0.61 2.56,1.49 0,0.8 -0.72,1.19 -2.02,1.19 -1.51,0 -1.92,-0.6 -2.11,-1.42 L 87.49,7.9 c 0.39,1.79 1.48,2.74 4.18,2.74 2.93,0 4.19,-1.18 4.19,-2.98 z m 4.69,2.98 c 2.2,0 3.26,-1.29 3.43,-2.76 L 101.84,7.8 c -0.1,0.95 -0.59,1.37 -1.25,1.37 -0.94,0 -1.39,-0.78 -1.39,-2.46 0,-1.59 0.41,-2.34 1.35,-2.34 0.74,0 1.15,0.47 1.23,1.26 l 2.16,-0.1 c -0.19,-1.44 -1.28,-2.67 -3.39,-2.67 -2.35,0 -3.63,1.42 -3.63,3.92 0,2.36 1.19,3.86 3.63,3.86 z m 4.8,-0.14 h 2.17 V 3 h -2.17 z m 0,-8.44 h 2.17 V 0.01 h -2.17 z m 7.13,8.58 c 2.31,0 3.03,-1.09 3.31,-2.31 L 113.72,8.2 c -0.12,0.73 -0.49,1.04 -1.17,1.04 -1.05,0 -1.39,-0.94 -1.39,-1.89 v -0.2 h 4.75 c 0,0 0.02,-0.32 0.02,-0.65 0,-2.09 -0.85,-3.64 -3.44,-3.64 -2,0 -3.65,0.92 -3.65,3.85 0,2.64 1.3,3.93 3.64,3.93 z m -0.03,-6.47 c 0.75,0 1.23,0.39 1.23,1.7 v 0.02 h -2.52 c 0.04,-1.33 0.57,-1.72 1.29,-1.72 z m 9.71,6.33 h 2.23 V 5.53 c 0,-1.4 -0.53,-2.67 -2.42,-2.67 -1.18,0 -2.02,0.57 -2.4,1.68 C 119.55,3.95 119.48,3.21 119.46,3 h -2.1 c 0.02,0.42 0.04,0.96 0.04,1.73 v 5.77 h 2.2 V 6.52 c 0,-1.23 0.51,-2 1.4,-2 0.87,0 1.16,0.53 1.16,1.58 z m 7.2,0.14 c 2.2,0 3.26,-1.29 3.43,-2.76 L 130.65,7.8 c -0.1,0.95 -0.59,1.37 -1.25,1.37 -0.94,0 -1.38,-0.78 -1.38,-2.46 0,-1.59 0.4,-2.34 1.34,-2.34 0.74,0 1.15,0.47 1.23,1.26 l 2.16,-0.1 c -0.18,-1.44 -1.28,-2.67 -3.39,-2.67 -2.35,0 -3.63,1.42 -3.63,3.92 0,2.36 1.19,3.86 3.63,3.86 z m 7.8,0 c 2.31,0 3.04,-1.09 3.32,-2.31 L 138.4,8.2 c -0.12,0.73 -0.49,1.04 -1.17,1.04 -1.05,0 -1.39,-0.94 -1.39,-1.89 v -0.2 h 4.75 c 0,0 0.03,-0.32 0.03,-0.65 0,-2.09 -0.86,-3.64 -3.45,-3.64 -2,0 -3.65,0.92 -3.65,3.85 0,2.64 1.3,3.93 3.64,3.93 z m -0.03,-6.47 c 0.76,0 1.23,0.39 1.23,1.7 v 0.02 h -2.52 c 0.04,-1.33 0.58,-1.72 1.29,-1.72 z"
       id="path2"
       inkscape:connector-curvature="0" />
  </g>
  <defs
     data-v-423bf9ae=""
     id="defs10">
    <linearGradient
       data-v-423bf9ae=""
       gradientTransform="rotate(25)"
       id="b406e1d2-7d78-4372-b64d-b6d5436418b1"
       x1="0"
       y1="0"
       x2="1"
       y2="0">
      <stop
         data-v-423bf9ae=""
         offset="0%"
         style="stop-color: rgb(40, 139, 88); stop-opacity: 1;"
         id="stop5" />
      <stop
         data-v-423bf9ae=""
         offset="100%"
         style="stop-color: rgb(21, 34, 241); stop-opacity: 1;"
         id="stop7" />
    </linearGradient>
    <linearGradient
       inkscape:collect="always"
       xlink:href="#b406e1d2-7d78-4372-b64d-b6d5436418b1"
       id="linearGradient22"
       gradientTransform="scale(1.0954667,0.91285296)"
       x1="10.862037"
       y1="19.992268"
       x2="80.424171"
       y2="19.992268"
       gradientUnits="userSpaceOnUse" />
    <linearGradient
       inkscape:collect="always"
       xlink:href="#b406e1d2-7d78-4372-b64d-b6d5436418b1"
       id="linearGradient24"
       x1="41.02"
       y1="41.02"
       x2="58.98"
       y2="41.02"
       gradientUnits="userSpaceOnUse" />
    <linearGradient
       inkscape:collect="always"
       xlink:href="#b406e1d2-7d78-4372-b64d-b6d5436418b1"
       id="linearGradient26"
       gradientTransform="scale(1.0954667,0.91285296)"
       x1="10.862037"
       y1="19.992268"
       x2="80.424171"
       y2="19.992268"
       gradientUnits="userSpaceOnUse" />
  </defs>
  <g
     data-v-423bf9ae=""
     id="366de592-7575-41c4-8184-ca75576dc05a"
     transform="matrix(1.5590552,0,0,1.5590552,-18.551198,-28.17776)"
     style="fill:url(#linearGradient26);stroke:none">
    <path
       d="M 43.649,18.25 11.899,50 43.649,81.75 V 69.05 L 24.6,50 43.649,30.95 Z M 56.352,81.75 88.102,50 56.352,18.25 v 12.7 L 75.398,50 56.352,69.05 Z"
       id="path12"
       style="fill:url(#linearGradient22)"
       inkscape:connector-curvature="0" />
    <path
       d="M 50,58.98 41.02,50 50,41.02 58.98,50 Z"
       id="path14"
       style="fill:url(#linearGradient24)"
       inkscape:connector-curvature="0" />
  </g>
  <!---->
</svg>
