<?xml version="1.0" encoding="UTF-8" standalone="no"?>
<svg
   xmlns:dc="http://purl.org/dc/elements/1.1/"
   xmlns:cc="http://creativecommons.org/ns#"
   xmlns:rdf="http://www.w3.org/1999/02/22-rdf-syntax-ns#"
   xmlns:svg="http://www.w3.org/2000/svg"
   xmlns="http://www.w3.org/2000/svg"
   xmlns:xlink="http://www.w3.org/1999/xlink"
   xmlns:sodipodi="http://sodipodi.sourceforge.net/DTD/sodipodi-0.dtd"
   xmlns:inkscape="http://www.inkscape.org/namespaces/inkscape"
   data-v-423bf9ae=""
   viewBox="0 0 968.26056 99.275002"
   class="iconLeftSlogan"
   version="1.1"
   id="svg20"
   sodipodi:docname="logo.svg"
   inkscape:version="0.92.5 (2060ec1f9f, 2020-04-08)"
   width="968.26056"
   height="99.275002"
   inkscape:export-filename="/home/andre/repositories/consultancy/landing-page/static/images/logo.png"
   inkscape:export-xdpi="96"
   inkscape:export-ydpi="96">
  <metadata
     id="metadata24">
    <rdf:RDF>
      <cc:Work
         rdf:about="">
        <dc:format>image/svg+xml</dc:format>
        <dc:type
           rdf:resource="http://purl.org/dc/dcmitype/StillImage" />
        <dc:title />
      </cc:Work>
    </rdf:RDF>
  </metadata>
  <sodipodi:namedview
     pagecolor="#ffffff"
     bordercolor="#666666"
     borderopacity="1"
     objecttolerance="10"
     gridtolerance="10"
     guidetolerance="10"
     inkscape:pageopacity="0"
     inkscape:pageshadow="2"
     inkscape:window-width="1920"
     inkscape:window-height="1016"
     id="namedview22"
     showgrid="false"
     inkscape:zoom="1.2025626"
     inkscape:cx="293.84759"
     inkscape:cy="-220.02187"
     inkscape:window-x="0"
     inkscape:window-y="27"
     inkscape:window-maximized="1"
     inkscape:current-layer="svg20"
     fit-margin-top="0"
     fit-margin-left="0"
     fit-margin-right="0"
     fit-margin-bottom="0" />
  <!---->
  <!---->
  <!---->
  <g
     data-v-423bf9ae=""
     id="6625b589-c8b0-4f1d-8de5-77685cd4e76e"
     transform="matrix(5.9352516,0,0,5.9352516,133.64549,2.8489208)"
     style="fill:#000000">
    <path
       d="M 8.75,3.86 C 8.75,2 7.59,0.71 5.03,0.71 H 1.04 V 10.5 H 3.28 V 7.17 h 1.84 c 2.52,0 3.63,-1.63 3.63,-3.31 z M 6.48,3.89 C 6.48,4.8 5.96,5.4 4.84,5.4 H 3.28 V 2.45 h 1.51 c 1.12,0 1.69,0.5 1.69,1.44 z m 8.49,0.86 V 2.88 C 14.8,2.86 14.59,2.86 14.49,2.86 13.37,2.86 12.74,3.5 12.53,4.35 12.52,3.92 12.46,3.33 12.43,3 h -2.15 c 0.02,0.16 0.07,1.3 0.07,1.77 v 5.73 h 2.21 V 6.61 c 0,-1.12 0.52,-1.91 1.66,-1.91 0.24,0 0.44,0 0.75,0.05 z m 6.06,2 c 0,1.66 -0.51,2.43 -1.57,2.43 -0.95,0 -1.53,-0.85 -1.53,-2.43 0,-1.58 0.51,-2.37 1.57,-2.37 0.97,0 1.53,0.8 1.53,2.37 z m 2.22,-0.02 c 0,-2.28 -1.09,-3.87 -3.76,-3.87 -2.56,0 -3.8,1.61 -3.8,3.87 0,2.36 1.25,3.91 3.76,3.91 2.56,0 3.8,-1.54 3.8,-3.91 z m 5.91,3.77 h 2.2 V 6.27 c 0,-1.13 0.5,-1.75 1.2,-1.75 0.76,0 0.98,0.52 0.98,1.47 v 4.51 h 2.24 V 5.61 C 35.78,4 35.18,2.86 33.54,2.86 32.48,2.86 31.6,3.42 31.26,4.59 31.05,3.67 30.52,2.86 29.13,2.86 28.1,2.86 27.29,3.39 26.94,4.52 26.91,3.93 26.85,3.18 26.84,3 h -2.13 c 0.03,0.28 0.07,1.05 0.07,1.69 v 5.81 h 2.2 V 6.36 c 0,-1.25 0.49,-1.84 1.19,-1.84 0.75,0 0.99,0.52 0.99,1.54 z m 11.57,0.14 c 2.31,0 3.03,-1.09 3.31,-2.31 L 41.97,8.2 C 41.85,8.93 41.48,9.24 40.8,9.24 39.75,9.24 39.41,8.3 39.41,7.35 v -0.2 h 4.75 c 0,0 0.02,-0.32 0.02,-0.65 0,-2.09 -0.85,-3.64 -3.44,-3.64 -2,0 -3.65,0.92 -3.65,3.85 0,2.64 1.3,3.93 3.64,3.93 z M 40.7,4.17 c 0.75,0 1.23,0.39 1.23,1.7 V 5.89 H 39.41 C 39.45,4.56 39.98,4.17 40.7,4.17 Z m 4.18,0.41 h 1 v 3.93 c 0,1.39 0.71,2.13 1.99,2.13 0.78,0 1.21,-0.06 1.66,-0.08 V 8.81 h -0.7 c -0.57,0 -0.75,-0.17 -0.75,-0.7 V 4.58 H 49.5 V 3 H 48.08 V 0.7 h -2.2 V 3 h -1 z M 53.34,3.15 V -0.48 H 51.11 V 10.5 h 2.23 V 6.51 c 0,-1.15 0.53,-1.97 1.4,-1.97 0.85,0 1.16,0.68 1.16,1.75 v 4.21 h 2.23 V 5.7 c 0,-1.71 -0.74,-2.84 -2.44,-2.84 -1.02,0 -2,0.49 -2.41,1.77 0.03,-0.39 0.06,-0.95 0.06,-1.48 z m 9.72,7.49 c 2.31,0 3.03,-1.09 3.31,-2.31 L 64.3,8.2 c -0.12,0.73 -0.49,1.04 -1.17,1.04 -1.05,0 -1.39,-0.94 -1.39,-1.89 v -0.2 h 4.75 c 0,0 0.02,-0.32 0.02,-0.65 0,-2.09 -0.85,-3.64 -3.44,-3.64 -2,0 -3.65,0.92 -3.65,3.85 0,2.64 1.3,3.93 3.64,3.93 z M 63.03,4.17 c 0.75,0 1.23,0.39 1.23,1.7 V 5.89 H 61.74 C 61.78,4.56 62.31,4.17 63.03,4.17 Z M 70.06,3 h -2.22 v 5.01 c 0,1.34 0.58,2.63 2.43,2.63 1.03,0 1.91,-0.42 2.4,-1.68 0,0.35 0.09,1.4 0.1,1.54 H 74.9 C 74.87,10.33 74.84,9.27 74.84,8.81 V 3 h -2.22 v 4.08 c 0,1.19 -0.53,1.89 -1.4,1.89 -0.88,0 -1.16,-0.51 -1.16,-1.56 z m 12.72,5.19 c 0,-1.51 -1.12,-2 -2.66,-2.35 -1.47,-0.34 -1.64,-0.58 -1.64,-1.01 0,-0.34 0.27,-0.62 0.94,-0.62 0.63,0 1.11,0.31 1.14,0.9 l 2.03,-0.14 c -0.17,-1.22 -1.31,-2.11 -3.1,-2.11 -1.96,0 -2.99,0.91 -2.99,2.25 0,1.23 0.61,1.97 2.5,2.41 1.22,0.28 1.58,0.47 1.58,0.98 0,0.46 -0.33,0.74 -1.07,0.74 -0.87,0 -1.19,-0.52 -1.25,-1.02 l -1.99,0.22 c 0.17,1.15 1.01,2.2 3.26,2.2 2.16,0 3.25,-0.91 3.25,-2.45 z M 95.86,7.66 C 95.86,5.35 93.98,4.97 92.15,4.59 90.8,4.31 90.02,4.13 90.02,3.22 c 0,-0.59 0.39,-1.06 1.57,-1.06 1.08,0 1.65,0.39 1.83,1.2 L 95.58,3.08 C 95.26,1.4 94.19,0.57 91.66,0.57 c -2.3,0 -3.82,0.94 -3.82,2.76 0,1.99 1.63,2.61 3.29,2.96 1.4,0.29 2.56,0.61 2.56,1.49 0,0.8 -0.72,1.19 -2.02,1.19 -1.51,0 -1.92,-0.6 -2.11,-1.42 L 87.49,7.9 c 0.39,1.79 1.48,2.74 4.18,2.74 2.93,0 4.19,-1.18 4.19,-2.98 z m 4.69,2.98 c 2.2,0 3.26,-1.29 3.43,-2.76 L 101.84,7.8 c -0.1,0.95 -0.59,1.37 -1.25,1.37 -0.94,0 -1.39,-0.78 -1.39,-2.46 0,-1.59 0.41,-2.34 1.35,-2.34 0.74,0 1.15,0.47 1.23,1.26 l 2.16,-0.1 c -0.19,-1.44 -1.28,-2.67 -3.39,-2.67 -2.35,0 -3.63,1.42 -3.63,3.92 0,2.36 1.19,3.86 3.63,3.86 z m 4.8,-0.14 h 2.17 V 3 h -2.17 z m 0,-8.44 h 2.17 V 0.01 h -2.17 z m 7.13,8.58 c 2.31,0 3.03,-1.09 3.31,-2.31 L 113.72,8.2 c -0.12,0.73 -0.49,1.04 -1.17,1.04 -1.05,0 -1.39,-0.94 -1.39,-1.89 v -0.2 h 4.75 c 0,0 0.02,-0.32 0.02,-0.65 0,-2.09 -0.85,-3.64 -3.44,-3.64 -2,0 -3.65,0.92 -3.65,3.85 0,2.64 1.3,3.93 3.64,3.93 z m -0.03,-6.47 c 0.75,0 1.23,0.39 1.23,1.7 v 0.02 h -2.52 c 0.04,-1.33 0.57,-1.72 1.29,-1.72 z m 9.71,6.33 h 2.23 V 5.53 c 0,-1.4 -0.53,-2.67 -2.42,-2.67 -1.18,0 -2.02,0.57 -2.4,1.68 C 119.55,3.95 119.48,3.21 119.46,3 h -2.1 c 0.02,0.42 0.04,0.96 0.04,1.73 v 5.77 h 2.2 V 6.52 c 0,-1.23 0.51,-2 1.4,-2 0.87,0 1.16,0.53 1.16,1.58 z m 7.2,0.14 c 2.2,0 3.26,-1.29 3.43,-2.76 L 130.65,7.8 c -0.1,0.95 -0.59,1.37 -1.25,1.37 -0.94,0 -1.38,-0.78 -1.38,-2.46 0,-1.59 0.4,-2.34 1.34,-2.34 0.74,0 1.15,0.47 1.23,1.26 l 2.16,-0.1 c -0.18,-1.44 -1.28,-2.67 -3.39,-2.67 -2.35,0 -3.63,1.42 -3.63,3.92 0,2.36 1.19,3.86 3.63,3.86 z m 7.8,0 c 2.31,0 3.04,-1.09 3.32,-2.31 L 138.4,8.2 c -0.12,0.73 -0.49,1.04 -1.17,1.04 -1.05,0 -1.39,-0.94 -1.39,-1.89 v -0.2 h 4.75 c 0,0 0.03,-0.32 0.03,-0.65 0,-2.09 -0.86,-3.64 -3.45,-3.64 -2,0 -3.65,0.92 -3.65,3.85 0,2.64 1.3,3.93 3.64,3.93 z m -0.03,-6.47 c 0.76,0 1.23,0.39 1.23,1.7 v 0.02 h -2.52 c 0.04,-1.33 0.58,-1.72 1.29,-1.72 z"
       id="path2"
       inkscape:connector-curvature="0" />
  </g>
  <defs
     data-v-423bf9ae=""
     id="defs10">
    <linearGradient
       data-v-423bf9ae=""
       gradientTransform="rotate(25)"
       id="b406e1d2-7d78-4372-b64d-b6d5436418b1"
       x1="0"
       y1="0"
       x2="1"
       y2="0">
      <stop
         data-v-423bf9ae=""
         offset="0%"
         style="stop-color: rgb(40, 139, 88); stop-opacity: 1;"
         id="stop5" />
      <stop
         data-v-423bf9ae=""
         offset="100%"
         style="stop-color: rgb(21, 34, 241); stop-opacity: 1;"
         id="stop7" />
    </linearGradient>
    <linearGradient
       inkscape:collect="always"
       xlink:href="#b406e1d2-7d78-4372-b64d-b6d5436418b1"
       id="linearGradient22"
       gradientTransform="scale(1.0954667,0.91285296)"
       x1="10.862037"
       y1="19.992268"
       x2="80.424171"
       y2="19.992268"
       gradientUnits="userSpaceOnUse" />
    <linearGradient
       inkscape:collect="always"
       xlink:href="#b406e1d2-7d78-4372-b64d-b6d5436418b1"
       id="linearGradient24"
       x1="41.02"
       y1="41.02"
       x2="58.98"
       y2="41.02"
       gradientUnits="userSpaceOnUse" />
    <linearGradient
       inkscape:collect="always"
       xlink:href="#b406e1d2-7d78-4372-b64d-b6d5436418b1"
       id="linearGradient26"
       gradientTransform="scale(1.0954667,0.91285296)"
       x1="10.862037"
       y1="19.992268"
       x2="80.424171"
       y2="19.992268"
       gradientUnits="userSpaceOnUse" />
  </defs>
  <g
     data-v-423bf9ae=""
     id="366de592-7575-41c4-8184-ca75576dc05a"
     transform="matrix(1.5590552,0,0,1.5590552,-18.551198,-28.17776)"
     style="fill:url(#linearGradient26);stroke:none">
    <path
       d="M 43.649,18.25 11.899,50 43.649,81.75 V 69.05 L 24.6,50 43.649,30.95 Z M 56.352,81.75 88.102,50 56.352,18.25 v 12.7 L 75.398,50 56.352,69.05 Z"
       id="path12"
       style="fill:url(#linearGradient22)"
       inkscape:connector-curvature="0" />
    <path
       d="M 50,58.98 41.02,50 50,41.02 58.98,50 Z"
       id="path14"
       style="fill:url(#linearGradient24)"
       inkscape:connector-curvature="0" />
  </g>
  <!---->
  <g
     data-v-423bf9ae=""
     id="c03c25a5-7aeb-4574-8c3c-7f980194b9e2"
     transform="matrix(1.9543451,0,0,1.9543451,139.70549,72.052841)"
     style="fill:#000000">
    <path
       d="m 5.1879572,1.364525 c -3.0980261,0 -5.18175158,2.43705 -5.18175158,5.48625 0,3.03765 2.08372648,5.4747 5.18175158,5.4747 3.0980259,0 5.1817518,-2.43705 5.1817518,-5.4747 0,-3.0492 -2.0837259,-5.48625 -5.1817518,-5.48625 z m 0,9.78285 c -2.4806258,0 -4.0241262,-1.8942 -4.0241262,-4.2966 0,-2.41395 1.5435004,-4.30815 4.0241262,-4.30815 2.4806259,0 4.0241264,1.8942 4.0241264,4.30815 0,2.4024 -1.5435005,4.2966 -4.0241264,4.2966 z M 21.09703,8.386925 h 3.450824 c 2.171924,0 3.516974,-1.32825 3.516974,-3.45345 0,-2.1021 -1.34505,-3.4419 -3.516974,-3.4419 h -4.608449 v 10.70685 h 1.157625 z m 3.373649,-5.74035 c 1.598625,0 2.436524,0.86625 2.436524,2.2869 0,1.44375 -0.837899,2.32155 -2.436524,2.32155 H 21.09703 v -4.60845 z m 20.396248,0.01155 v -1.16655 h -7.508025 v 10.70685 h 7.508025 v -1.16655 h -6.3504 v -3.6036 h 5.677875 v -1.1781 h -5.677875 v -3.59205 z m 17.2431,-1.16655 v 9.009 l -6.3063,-9.009 h -1.34505 v 10.70685 h 1.157626 v -9.04365 l 6.3063,9.04365 h 1.34505 V 1.491575 Z m 23.0643,2.8182 c 0,-0.7161 0.3969,-1.81335 2.71215,-1.81335 1.87425,0 2.7342,0.8547 2.855475,1.92885 h 1.1907 c -0.0882,-1.60545 -1.323,-3.06075 -4.046175,-3.06075 -2.5578,0 -3.8367,1.21275 -3.8367,2.9568 0,3.6729 6.98985,2.34465 6.98985,4.9665 0,1.25895 -1.08045,1.8942 -2.811374,1.8942 -1.775025,0 -3.208276,-0.63525 -3.285451,-2.18295 h -1.201725 c 0.154351,1.9173 1.38915,3.3264 4.410001,3.3264 2.5137,0 4.046174,-1.09725 4.046174,-3.08385 0,-3.7422 -7.022925,-2.4486 -7.022925,-4.93185 z m 20.914443,6.8376 c -2.49166,0 -3.88081,-1.8942 -3.88081,-4.2966 0,-2.41395 1.38915,-4.30815 3.88081,-4.30815 1.67581,0 2.78934,0.84315 3.31854,2.1483 h 1.21275 c -0.63945,-1.95195 -2.31526,-3.3264 -4.63052,-3.3264 -3.06495,0 -4.93921,2.43705 -4.93921,5.48625 0,3.03765 1.87426,5.4747 4.93921,5.4747 2.31526,0 3.99107,-1.37445 4.63052,-3.3264 h -1.21275 c -0.5292,1.30515 -1.64273,2.1483 -3.31854,2.1483 z m 15.13737,-9.6558 h -1.15763 v 10.70685 h 1.15763 z m 17.73922,1.16655 v -1.16655 h -7.51905 v 10.70685 h 7.51905 v -1.16655 h -6.36142 v -3.6036 h 5.67787 v -1.1781 h -5.67787 v -3.59205 z m 17.2431,-1.16655 v 9.009 l -6.31732,-9.009 h -1.34505 v 10.70685 h 1.15762 v -9.04365 l 6.31733,9.04365 h 1.34505 V 1.491575 Z m 15.75473,9.6558 c -2.48063,0 -3.86978,-1.8942 -3.86978,-4.2966 0,-2.41395 1.38915,-4.30815 3.86978,-4.30815 1.68682,0 2.78932,0.84315 3.31852,2.1483 h 1.22378 c -0.65048,-1.95195 -2.31525,-3.3264 -4.6305,-3.3264 -3.07598,0 -4.9392,2.43705 -4.9392,5.48625 0,3.03765 1.86322,5.4747 4.9392,5.4747 2.31525,0 3.98002,-1.37445 4.6305,-3.3264 h -1.22378 c -0.5292,1.30515 -1.6317,2.1483 -3.31852,2.1483 z m 21.49875,-8.48925 v -1.16655 h -7.51905 v 10.70685 h 7.51905 v -1.16655 h -6.36143 v -3.6036 h 5.6889 v -1.1781 h -5.6889 v -3.59205 z m 27.97042,0 v -1.16655 h -7.37572 v 10.70685 h 1.15762 v -4.6431 h 5.53455 v -1.1781 h -5.53455 v -3.7191 z m 13.88048,-1.2936 c -3.10905,0 -5.19278,2.43705 -5.19278,5.48625 0,3.03765 2.08373,5.4747 5.19278,5.4747 3.09802,0 5.18175,-2.43705 5.18175,-5.4747 0,-3.0492 -2.08373,-5.48625 -5.18175,-5.48625 z m 0,9.78285 c -2.49165,0 -4.03515,-1.8942 -4.03515,-4.2966 0,-2.41395 1.5435,-4.30815 4.03515,-4.30815 2.48062,0 4.02412,1.8942 4.02412,4.30815 0,2.4024 -1.5435,4.2966 -4.02412,4.2966 z m 15.90907,-3.06075 h 3.55005 l 2.4696,4.1118 h 1.37813 l -2.6901,-4.3197 c 1.1466,-0.2772 2.4696,-0.9702 2.4696,-3.03765 0,-2.0328 -1.34505,-3.3495 -3.4398,-3.3495 h -4.8951 v 10.70685 h 1.15762 z m 0,-5.44005 h 3.59415 c 1.4553,0 2.4255,0.8316 2.4255,2.1945 0,1.6632 -1.38915,2.1021 -2.48062,2.1021 h -3.53903 z m 35.4123,0.01155 v -1.16655 h -7.51905 v 10.70685 h 7.51905 v -1.16655 h -6.36142 v -3.6036 h 5.67787 v -1.1781 h -5.67787 v -3.59205 z m 16.7139,-1.16655 -3.53902,9.3324 -3.528,-9.3324 h -1.26788 l 4.13438,10.70685 h 1.323 l 4.1454,-10.70685 z m 17.79435,1.16655 v -1.16655 h -7.51905 v 10.70685 h 7.51905 v -1.16655 h -6.36142 v -3.6036 h 5.67787 v -1.1781 h -5.67787 v -3.59205 z m 10.73835,5.4285 h 3.55005 l 2.4696,4.1118 h 1.37813 l -2.6901,-4.3197 c 1.1466,-0.2772 2.4696,-0.9702 2.4696,-3.03765 0,-2.0328 -1.33403,-3.3495 -3.4398,-3.3495 h -4.8951 v 10.70685 h 1.15762 z m 0,-5.44005 h 3.60518 c 1.44427,0 2.41447,0.8316 2.41447,2.1945 0,1.6632 -1.38915,2.1021 -2.48062,2.1021 h -3.53903 z m 20.8593,5.313 4.2777,-6.468 h -1.4112 l -3.45082,5.20905 -3.46185,-5.20905 h -1.40018 l 4.28873,6.468 v 4.23885 h 1.15762 z m 17.22105,-6.59505 c -3.09802,0 -5.18175,2.43705 -5.18175,5.48625 0,3.03765 2.08373,5.4747 5.18175,5.4747 3.10905,0 5.19278,-2.43705 5.19278,-5.4747 0,-3.0492 -2.08373,-5.48625 -5.19278,-5.48625 z m 0,9.78285 c -2.48062,0 -4.02412,-1.8942 -4.02412,-4.2966 0,-2.41395 1.5435,-4.30815 4.02412,-4.30815 2.49165,0 4.03515,1.8942 4.03515,4.30815 0,2.4024 -1.5435,4.2966 -4.03515,4.2966 z m 22.41383,-9.6558 v 9.009 l -6.31733,-9.009 h -1.33402 v 10.70685 h 1.15762 v -9.04365 l 6.3063,9.04365 h 1.34505 V 1.491575 Z m 18.89685,1.16655 v -1.16655 h -7.51905 v 10.70685 h 7.51905 v -1.16655 h -6.36143 v -3.6036 h 5.67788 v -1.1781 h -5.67788 v -3.59205 z"
       id="path17"
       inkscape:connector-curvature="0"
       style="stroke-width:1.12844467" />
  </g>
</svg>
