<?xml version="1.0" encoding="UTF-8" standalone="no"?>
<!-- Created with Inkscape (http://www.inkscape.org/) -->

<svg
   xmlns:dc="http://purl.org/dc/elements/1.1/"
   xmlns:cc="http://creativecommons.org/ns#"
   xmlns:rdf="http://www.w3.org/1999/02/22-rdf-syntax-ns#"
   xmlns:svg="http://www.w3.org/2000/svg"
   xmlns="http://www.w3.org/2000/svg"
   xmlns:sodipodi="http://sodipodi.sourceforge.net/DTD/sodipodi-0.dtd"
   xmlns:inkscape="http://www.inkscape.org/namespaces/inkscape"
   width="27.286398mm"
   height="17.145851mm"
   viewBox="0 0 27.286399 17.145852"
   version="1.1"
   id="svg8"
   inkscape:version="0.92.4 (fd57863, 2020-04-02)"
   sodipodi:docname="logo_openknowhow.svg"
   inkscape:export-filename="/home/kaspar/projects/okh/logo.png"
   inkscape:export-xdpi="192"
   inkscape:export-ydpi="192">
  <defs
     id="defs2">
    <inkscape:path-effect
       effect="spiro"
       id="path-effect1091"
       is_visible="true" />
    <inkscape:path-effect
       effect="spiro"
       id="path-effect1071"
       is_visible="true" />
    <inkscape:path-effect
       effect="spiro"
       id="path-effect1091-7"
       is_visible="true" />
  </defs>
  <sodipodi:namedview
     id="base"
     pagecolor="#ffffff"
     bordercolor="#666666"
     borderopacity="1.0"
     inkscape:pageopacity="0.0"
     inkscape:pageshadow="2"
     inkscape:zoom="5.4009664"
     inkscape:cx="-8.8605612"
     inkscape:cy="31.082517"
     inkscape:document-units="mm"
     inkscape:current-layer="layer1"
     showgrid="false"
     objecttolerance="1"
     guidetolerance="1"
     fit-margin-top="0"
     fit-margin-left="0"
     fit-margin-right="0"
     fit-margin-bottom="0"
     inkscape:window-width="1920"
     inkscape:window-height="1016"
     inkscape:window-x="0"
     inkscape:window-y="27"
     inkscape:window-maximized="1" />
  <metadata
     id="metadata5">
    <rdf:RDF>
      <cc:Work
         rdf:about="">
        <dc:format>image/svg+xml</dc:format>
        <dc:type
           rdf:resource="http://purl.org/dc/dcmitype/StillImage" />
        <dc:title></dc:title>
      </cc:Work>
    </rdf:RDF>
  </metadata>
  <g
     inkscape:label="Layer 1"
     inkscape:groupmode="layer"
     id="layer1"
     transform="translate(7.0467424,-113.36299)">
    <g
       id="g899"
       inkscape:export-xdpi="192"
       inkscape:export-ydpi="192"
       style="fill:#800080;stroke:#ffffff;stroke-width:0.05798893"
       transform="matrix(2.6292312,0,0,2.6292312,-9.0780122,-272.73278)"
       inkscape:export-filename="/home/kaspar/projects/okh/logo.png">
      <g
         id="g903"
         transform="translate(0.03340869,-1.2695302)"
         style="stroke:#ffffff;stroke-width:0.05798893">
        <path
           inkscape:export-ydpi="94.879448"
           inkscape:export-xdpi="94.879448"
           id="path884"
           d="m 7.081868,153.17872 -2.0691603,-2.06916 c 0.2046422,-0.52297 0.090952,-1.1369 -0.3410704,-1.56892 -0.4547604,-0.45476 -1.1369011,-0.54571 -1.6826137,-0.2956 l 0.977735,0.97774 -0.6821407,0.68215 -1.0004732,-0.97775 c -0.2728563,0.54572 -0.159166,1.22786 0.2955944,1.68262 0.4320225,0.43202 1.0459491,0.5457 1.5689238,0.34107 l 2.0691602,2.06916 c 0.090952,0.091 0.2273802,0.091 0.3183323,0 l 0.5229745,-0.52297 c 0.1136902,-0.091 0.1136902,-0.25013 0.022738,-0.31834 z"
           inkscape:connector-curvature="0"
           style="fill:#800080;stroke:#ffffff;stroke-width:0.05798893" />
        <path
           sodipodi:nodetypes="cccssssccccccsssss"
           inkscape:export-ydpi="94.879448"
           inkscape:export-xdpi="94.879448"
           id="path873"
           d="m 6.6582547,152.21651 v -0.21981 l 0.075125,-0.0779 c 0.3171778,0.27267 0.7289665,0.43682 1.1769189,0.43682 0.9988451,0 1.8084993,-0.80966 1.8084993,-1.8085 0,-0.99884 -0.8096542,-1.8085 -1.8084993,-1.8085 -0.9988548,0 -1.8085091,0.80966 -1.8085091,1.8085 0,0.44796 0.1641624,0.85973 0.4368269,1.17693 l -0.077901,0.0751 H 6.2409136 l -1.9411088,1.74237 0.4145545,0.41458 z m 0,-1.6694 c 0,-0.69279 0.5592414,-1.25203 1.2520439,-1.25203 0.6927922,0 1.2520338,0.55924 1.2520338,1.25203 0,0.69281 -0.5592416,1.25204 -1.2520338,1.25204 -0.6928025,0 -1.2520439,-0.55923 -1.2520439,-1.25204 z"
           inkscape:connector-curvature="0"
           style="fill:#800080;stroke:#ffffff;stroke-width:0.05798893" />
      </g>
    </g>
  </g>
</svg>
